<svg width="30" height="24" viewBox="0 0 30 24" fill="none" xmlns="http://www.w3.org/2000/svg">
<g id="Vector">
<path d="M3 0L6 6H10.5L7.5 0H10.5L13.5 6H18L15 0H18L21 6H25.5L22.5 0H27C27.825 0 28.5315 0.294 29.1195 0.882C29.7065 1.469 30 2.175 30 3V21C30 21.825 29.7065 22.5315 29.1195 23.1195C28.5315 23.7065 27.825 24 27 24H3C2.175 24 1.469 23.7065 0.882 23.1195C0.294 22.5315 0 21.825 0 21V3C0 2.175 0.294 1.469 0.882 0.882C1.469 0.294 2.175 0 3 0ZM3 9V21H27V9H3Z" fill="#ECFDF5"/>
<path d="M13.231 16.5429H10.1634L9.59342 18H7.5L10.7023 10.5H12.7232L15.9359 18H13.801L13.231 16.5429ZM12.6299 14.9786L11.6972 12.5786L10.7645 14.9786H12.6299Z" fill="#ECFDF5"/>
<path d="M16.5176 10.5H19.9479C20.7424 10.5 21.4471 10.6536 22.062 10.9607C22.6769 11.2679 23.1537 11.7036 23.4922 12.2679C23.8307 12.8321 24 13.4929 24 14.25C24 15.0071 23.8307 15.6679 23.4922 16.2321C23.1537 16.7964 22.6769 17.2321 22.062 17.5393C21.4471 17.8464 20.7424 18 19.9479 18H16.5176V10.5ZM19.865 16.3071C20.4868 16.3071 20.9842 16.125 21.3573 15.7607C21.7373 15.3964 21.9273 14.8929 21.9273 14.25C21.9273 13.6071 21.7373 13.1036 21.3573 12.7393C20.9842 12.375 20.4868 12.1929 19.865 12.1929H18.5695V16.3071H19.865Z" fill="#ECFDF5"/>
</g>
</svg>
