<svg width="252" height="240" viewBox="0 0 252 240" fill="none" xmlns="http://www.w3.org/2000/svg">
<path d="M38.7844 197.661L26.814 197.84C22.798 197.9 18.746 197.93 14.706 197.936H14.4307V197.661V190.963V190.664H14.7359L26.7721 190.706L32.7932 190.76L38.8143 190.832H38.946V190.957L38.7844 197.661ZM38.7844 197.661L38.6527 190.963L38.7844 191.095L32.7633 191.167L26.7422 191.221L14.706 191.263L14.9993 190.963V197.661L14.7239 197.386C18.7101 197.386 22.6842 197.421 26.6943 197.481L38.7844 197.661Z" fill="#EBEBEB"/>
<path d="M25.3477 199.409H1.26929V206.106H25.3477V199.409Z" fill="#EBEBEB"/>
<path d="M155.364 223.541H131.285V230.238H155.364V223.541Z" fill="#EBEBEB"/>
<path d="M250.708 143.028H226.629V149.725H250.708V143.028Z" fill="#EBEBEB"/>
<path d="M185.009 6.99668L173.038 7.17624C169.022 7.23609 164.97 7.26602 160.924 7.272H160.649V6.99668V0.299259V0H160.948L172.99 0.0418984L179.005 0.0957629L185.027 0.167587H185.158V0.293275L185.009 6.99668ZM185.009 6.99668L184.883 0.293275L185.009 0.42495L178.988 0.496772L172.972 0.550638L160.93 0.592534L161.229 0.293275V6.9907L160.954 6.71538C164.934 6.71538 168.914 6.75129 172.925 6.81114L185.009 6.99668Z" fill="#EBEBEB"/>
<path d="M198.439 8.74438H174.361V15.4418H198.439V8.74438Z" fill="#EBEBEB"/>
<path d="M25.3477 6.99668L13.3774 7.17624C9.36131 7.23609 5.30934 7.26602 1.26336 7.272H0.988037V6.99668V0.299259V0H1.2873L13.3295 0.0418984L19.3506 0.0957629L25.3358 0.167587H25.4675V0.293275L25.3477 6.99668ZM25.3477 6.99668L25.2221 0.293275L25.3477 0.42495L19.3626 0.496772L13.3415 0.550638L1.29926 0.592534L1.59852 0.293275V6.9907L1.32321 6.71538C5.30336 6.71538 9.28351 6.75129 13.2936 6.81114L25.3477 6.99668Z" fill="#EBEBEB"/>
<path d="M134.092 97.8936H110.013V104.591H134.092V97.8936Z" fill="#EBEBEB"/>
<path d="M243.351 4.46497H202.897V53.5375H243.351V4.46497Z" fill="#EBEBEB"/>
<path d="M238.732 8.94183H207.519V49.0546H238.732V8.94183Z" fill="white"/>
<path d="M208.734 8.94183H207.519V49.0546H208.734V8.94183Z" fill="#C7C7C7"/>
<path d="M244.568 4.46497H243.353V53.5375H244.568V4.46497Z" fill="#C7C7C7"/>
<path d="M223.816 40.1427H231.178V18.219H223.816V40.1427Z" fill="#EBEBEB"/>
<path d="M234.691 25.5149H214.467V14.1431H234.691V25.5149ZM215.066 24.9164H234.093V14.7416H215.066V24.9164Z" fill="#EBEBEB"/>
<path d="M243.351 125.396H202.897V174.468H243.351V125.396Z" fill="#EBEBEB"/>
<path d="M238.732 129.879H207.519V169.991H238.732V129.879Z" fill="white"/>
<path d="M208.734 129.879H207.519V169.991H208.734V129.879Z" fill="#C7C7C7"/>
<path d="M244.568 125.396H243.353V174.468H244.568V125.396Z" fill="#C7C7C7"/>
<path d="M225.342 139.156H217.981V161.079H225.342V139.156Z" fill="#EBEBEB"/>
<path d="M234.691 146.451H214.467V135.11H234.691V146.451ZM215.066 145.853H234.093V135.708H215.066V145.853Z" fill="#EBEBEB"/>
<path d="M243.351 65.1548H202.897V114.227H243.351V65.1548Z" fill="#EBEBEB"/>
<path d="M238.732 69.6317H207.519V109.744H238.732V69.6317Z" fill="white"/>
<path d="M208.734 69.6317H207.519V109.744H208.734V69.6317Z" fill="#C7C7C7"/>
<path d="M244.568 65.1548H243.353V114.227H244.568V65.1548Z" fill="#C7C7C7"/>
<path d="M226.402 79.998H220.099V95.9366H226.402V79.998Z" fill="#EBEBEB"/>
<path d="M233.344 100.976H215.808V89.3887H233.344V100.976ZM216.406 100.378H232.746V89.9873H216.406V100.378Z" fill="#DBDBDB"/>
<path d="M22.9224 179.699C32.8278 189.425 34.4917 204.388 32.4029 217.555C32.349 217.855 31.8882 217.771 31.8882 217.496C31.8882 214.503 31.978 211.51 31.966 208.584C31.9121 208.446 31.8702 208.32 31.8164 208.183C29.2308 206.303 26.8486 204.179 25.3763 201.27C23.7244 198.014 23.072 194.345 21.7852 190.945C21.6655 190.622 22.0126 190.718 22.2401 190.885C28.2671 195.326 30.1884 200.109 31.9181 206.501C31.8805 203.16 31.5298 199.829 30.8707 196.553C29.5659 190.484 26.9923 184.475 22.6351 179.974C22.617 179.956 22.6028 179.933 22.5933 179.909C22.5838 179.885 22.5793 179.859 22.5798 179.833C22.5804 179.806 22.5861 179.781 22.5966 179.757C22.6071 179.733 22.6222 179.711 22.6411 179.693C22.6599 179.675 22.6822 179.661 22.7065 179.651C22.7309 179.642 22.7568 179.637 22.7829 179.638C22.8091 179.638 22.8348 179.644 22.8587 179.655C22.8827 179.665 22.9043 179.68 22.9224 179.699Z" fill="#263238"/>
<path d="M21.0614 180.83C19.3556 180.89 18.2842 183.613 16.9555 184.421C16.816 184.534 16.6543 184.616 16.4809 184.663C16.3076 184.709 16.1264 184.718 15.9493 184.69C15.7721 184.662 15.6028 184.597 15.4524 184.499C15.302 184.401 15.1738 184.273 15.0762 184.122C13.7594 182.285 15.567 180.022 17.2667 178.736C16.0697 179.232 15.0462 180.112 13.7355 180.358C13.568 180.414 13.3905 180.433 13.2149 180.414C13.0393 180.395 12.8699 180.339 12.7182 180.248C12.5665 180.158 12.4361 180.036 12.3358 179.89C12.2356 179.745 12.1679 179.58 12.1374 179.406C11.5389 176.904 14.7051 175.815 16.8598 175.737C15.8123 175.007 12.8198 173.032 14.4118 172.062C16.0039 171.092 19.5351 173.911 20.6843 174.839C22.3661 176.21 24.3771 178.251 24.455 180.387C24.5507 182.889 22.3721 181.357 21.0614 180.83Z" fill="#92E3A9"/>
<path opacity="0.1" d="M21.0614 180.83C19.3556 180.89 18.2842 183.613 16.9555 184.421C16.816 184.534 16.6543 184.616 16.4809 184.663C16.3076 184.709 16.1264 184.718 15.9493 184.69C15.7721 184.662 15.6028 184.597 15.4524 184.499C15.302 184.401 15.1738 184.273 15.0762 184.122C13.7594 182.285 15.567 180.022 17.2667 178.736C16.0697 179.232 15.0462 180.112 13.7355 180.358C13.568 180.414 13.3905 180.433 13.2149 180.414C13.0393 180.395 12.8699 180.339 12.7182 180.248C12.5665 180.158 12.4361 180.036 12.3358 179.89C12.2356 179.745 12.1679 179.58 12.1374 179.406C11.5389 176.904 14.7051 175.815 16.8598 175.737C15.8123 175.007 12.8198 173.032 14.4118 172.062C16.0039 171.092 19.5351 173.911 20.6843 174.839C22.3661 176.21 24.3771 178.251 24.455 180.387C24.5507 182.889 22.3721 181.357 21.0614 180.83Z" fill="black"/>
<path d="M21.5523 181.249C19.3737 180.262 15.19 181.686 14.8309 180.86C14.1127 179.185 17.4524 178.029 19.26 177.808C17.5961 177.359 14.412 176.641 14.5077 175.037C14.6274 173.08 19.3976 174.761 21.8097 176.611C24.8501 178.945 24.8022 181.196 24.3234 181.644C23.6411 182.243 21.9114 181.417 21.5523 181.249Z" fill="#92E3A9"/>
<path d="M45.4816 178.742C35.211 188.055 32.9786 202.982 34.5646 216.197C34.6125 216.496 35.0734 216.43 35.0854 216.155C35.1991 213.162 35.223 210.17 35.3427 207.243C35.4026 207.111 35.4505 206.986 35.5103 206.854C38.1677 205.058 40.6217 203.041 42.2077 200.187C44.0033 196.996 44.7694 193.357 46.1639 190.012C46.2956 189.689 45.9425 189.772 45.7091 189.928C39.5204 194.118 37.4196 198.846 35.4505 205.166C35.6121 201.827 36.0891 198.51 36.8749 195.261C38.4071 189.276 41.2082 183.344 45.733 179.011C45.9006 178.849 45.6612 178.574 45.4816 178.742Z" fill="#263238"/>
<path d="M47.3007 179.939C49.0005 180.064 49.9641 182.824 51.2569 183.673C51.3917 183.793 51.5502 183.882 51.722 183.935C51.8938 183.989 52.075 184.006 52.2536 183.984C52.4323 183.963 52.6044 183.904 52.7586 183.811C52.9128 183.718 53.0456 183.594 53.1483 183.446C54.5368 181.65 52.8191 179.328 51.1672 177.999C52.3642 178.544 53.3338 179.46 54.6326 179.753C54.7979 179.816 54.9748 179.842 55.1512 179.83C55.3276 179.817 55.4992 179.767 55.6544 179.682C55.8095 179.598 55.9446 179.481 56.0502 179.339C56.1559 179.197 56.2297 179.034 56.2665 178.861C56.9369 176.383 53.8725 175.151 51.6879 175.013C52.7592 174.331 55.8296 172.469 54.2735 171.422C52.7173 170.374 49.0843 173.074 47.8992 173.959C46.1635 175.258 44.0807 177.221 43.9251 179.346C43.7276 181.866 45.966 180.412 47.3007 179.939Z" fill="#92E3A9"/>
<path opacity="0.1" d="M47.3007 179.939C49.0005 180.064 49.9641 182.824 51.2569 183.673C51.3917 183.793 51.5502 183.882 51.722 183.935C51.8938 183.989 52.075 184.006 52.2536 183.984C52.4323 183.963 52.6044 183.904 52.7586 183.811C52.9128 183.718 53.0456 183.594 53.1483 183.446C54.5368 181.65 52.8191 179.328 51.1672 177.999C52.3642 178.544 53.3338 179.46 54.6326 179.753C54.7979 179.816 54.9748 179.842 55.1512 179.83C55.3276 179.817 55.4992 179.767 55.6544 179.682C55.8095 179.598 55.9446 179.481 56.0502 179.339C56.1559 179.197 56.2297 179.034 56.2665 178.861C56.9369 176.383 53.8725 175.151 51.6879 175.013C52.7592 174.331 55.8296 172.469 54.2735 171.422C52.7173 170.374 49.0843 173.074 47.8992 173.959C46.1635 175.258 44.0807 177.221 43.9251 179.346C43.7276 181.866 45.966 180.412 47.3007 179.939Z" fill="black"/>
<path d="M46.7911 180.34C49.0056 179.436 53.1294 181.016 53.5184 180.208C54.3025 178.556 51.0046 177.281 49.2091 176.988C50.8909 176.605 54.099 176.006 54.0631 174.402C54.0152 172.439 49.1911 173.941 46.7073 175.695C43.583 177.91 43.5172 180.16 44.002 180.627C44.6663 181.273 46.42 180.489 46.7911 180.34Z" fill="#92E3A9"/>
<path d="M35.0126 203.341C34.3162 208.323 33.2499 213.246 31.8225 218.07C31.8027 218.166 31.7458 218.249 31.6644 218.302C31.5831 218.356 31.4838 218.374 31.3886 218.355C31.2934 218.335 31.2099 218.278 31.1566 218.197C31.1033 218.115 31.0845 218.016 31.1043 217.921C31.7806 213.384 33.0076 208.943 33.6839 204.388C34.4194 199.797 34.6841 195.142 34.474 190.497C34.037 182.853 31.9602 174.714 26.9745 168.734C26.8608 168.591 27.0942 168.387 27.2079 168.519C37.1972 180.172 35.5872 194.453 35.5872 195.734C37.0057 190.91 38.4601 185.385 43.8109 180.471C44.0443 180.262 44.2238 180.364 44.1819 180.723C43.2243 189.665 40.7405 194.339 35.5513 199.121C35.3897 200.534 35.2042 201.946 35.0126 203.341Z" fill="#263238"/>
<path d="M26.8483 170.069C25.0528 169.273 22.5749 171.559 20.7973 171.721C19.8576 171.805 19.1574 171.434 19.0018 170.464C18.5589 167.896 21.5754 166.454 23.9755 165.993C22.4612 165.897 20.9829 166.304 19.4926 165.903C19.2888 165.879 19.0928 165.811 18.918 165.704C18.7432 165.596 18.5937 165.452 18.4799 165.282C18.3661 165.111 18.2907 164.918 18.2589 164.715C18.227 164.512 18.2395 164.305 18.2955 164.108C18.9539 161.223 22.7784 161.648 25.0408 162.677C24.3226 161.397 22.2098 157.841 24.3465 157.632C26.4833 157.422 28.7337 162.133 29.4579 163.677C30.5173 165.939 31.5707 169.064 30.5771 171.326C29.4399 173.965 27.9496 171.272 26.8483 170.069Z" fill="#92E3A9"/>
<path opacity="0.1" d="M26.8483 170.069C25.0528 169.273 22.5749 171.559 20.7973 171.721C19.8576 171.805 19.1574 171.434 19.0018 170.464C18.5589 167.896 21.5754 166.454 23.9755 165.993C22.4612 165.897 20.9829 166.304 19.4926 165.903C19.2888 165.879 19.0928 165.811 18.918 165.704C18.7432 165.596 18.5937 165.452 18.4799 165.282C18.3661 165.111 18.2907 164.918 18.2589 164.715C18.227 164.512 18.2395 164.305 18.2955 164.108C18.9539 161.223 22.7784 161.648 25.0408 162.677C24.3226 161.397 22.2098 157.841 24.3465 157.632C26.4833 157.422 28.7337 162.133 29.4579 163.677C30.5173 165.939 31.5707 169.064 30.5771 171.326C29.4399 173.965 27.9496 171.272 26.8483 170.069Z" fill="black"/>
<path d="M27.1548 170.757C25.3592 168.633 20.3317 168.004 20.3736 166.969C20.4693 164.862 24.5213 165.353 26.5084 166.029C25.0121 164.724 22.0674 162.378 22.9711 160.762C24.0844 158.793 28.1842 162.941 29.7523 166.071C31.7334 170.021 30.5843 172.344 29.8361 172.559C28.8067 172.852 27.4421 171.105 27.1548 170.757Z" fill="#92E3A9"/>
<path d="M41.5548 206.034L45.9599 239.701H19.1462C19.6969 236.708 24.6885 205.992 24.6885 205.992L41.5548 206.034Z" fill="#92E3A9"/>
<path d="M86.4847 101.395C85.9068 99.3883 85.0117 97.4869 83.8333 95.7629C82.6096 94.0578 81.1848 92.5065 79.5898 91.1424C73.2275 85.6061 64.4592 83.4634 56.1698 84.032C52.3828 84.2608 48.6701 85.1839 45.2169 86.7552C43.5341 87.54 41.9738 88.5641 40.5843 89.7957C39.2975 90.9389 37.8491 92.3454 37.2506 93.9853C37.2314 94.0443 37.2319 94.1079 37.2519 94.1666C37.272 94.2254 37.3104 94.276 37.3616 94.311C37.4128 94.3461 37.474 94.3636 37.536 94.361C37.5979 94.3584 37.6574 94.3358 37.7055 94.2965C38.4656 93.698 39.106 92.9439 39.8302 92.2855C40.5608 91.6327 41.3368 91.0327 42.1524 90.49C43.7547 89.4355 45.4591 88.5452 47.2399 87.8325C54.3562 84.9597 62.8013 85.0315 69.9836 87.6291C73.4665 88.9005 76.6816 90.8105 79.4641 93.2611C80.775 94.4197 81.9771 95.6959 83.0552 97.0737C84.2111 98.4728 85.2766 99.9442 86.2453 101.479C86.3531 101.563 86.5386 101.527 86.4847 101.395Z" fill="#263238"/>
<path d="M81.2358 90.0711C80.5167 88.9231 79.6127 87.9018 78.5604 87.0486C77.4584 86.239 76.2936 85.5185 75.0771 84.8939C70.6219 82.4904 65.7444 80.9702 60.7126 80.417C58.2849 80.1497 55.8301 80.2709 53.4406 80.7761C52.3082 81.0295 51.1911 81.3472 50.0949 81.7278C48.9785 82.0575 47.9174 82.5517 46.9467 83.1941C46.9239 83.2157 46.9085 83.2439 46.9026 83.2747C46.8967 83.3056 46.9006 83.3375 46.9139 83.3659C46.9271 83.3944 46.9489 83.418 46.9763 83.4333C47.0037 83.4487 47.0352 83.455 47.0664 83.4515C48.3472 83.1882 49.5742 82.7153 50.861 82.4699C52.1478 82.2245 53.3508 82.1767 54.6077 82.057C69.3133 80.6923 79.949 89.7838 80.9904 90.3285C81.0256 90.3537 81.0687 90.3653 81.1118 90.3613C81.1549 90.3572 81.1951 90.3378 81.225 90.3064C81.2548 90.2751 81.2724 90.234 81.2744 90.1908C81.2764 90.1476 81.2627 90.1051 81.2358 90.0711Z" fill="#263238"/>
<path d="M30.3555 136.618C33.3481 138.551 36.8913 137.139 39.2375 134.87C41.6795 132.512 43.3434 129.424 44.6242 126.317C45.8212 123.48 46.6652 120.518 47.6168 117.591C48.5684 114.664 49.4124 111.606 50.9206 108.93C52.332 106.372 54.6991 104.476 57.5043 103.658C60.5438 102.84 63.7751 103.13 66.6198 104.478C68.1264 105.142 69.4932 106.086 70.6478 107.261C71.7051 108.409 72.5284 109.753 73.0718 111.217C74.3347 114.377 74.9691 117.741 75.7352 121.039C76.3636 123.768 77.6684 126.228 80.2241 127.574C82.4027 128.723 85.0841 129.071 87.2986 127.832C87.3316 127.816 87.3577 127.789 87.3719 127.755C87.3861 127.721 87.3874 127.683 87.3756 127.649C87.3638 127.614 87.3397 127.585 87.3078 127.567C87.276 127.549 87.2386 127.543 87.2028 127.55C85.808 127.822 84.3694 127.768 82.999 127.392C81.6287 127.016 80.3636 126.329 79.3024 125.384C78.2085 124.277 77.451 122.882 77.1178 121.362C76.639 119.566 76.2799 117.717 75.7891 115.909C74.9751 112.917 74.1671 109.643 72.198 107.153C70.1924 104.741 67.4888 103.01 64.4591 102.197C61.5425 101.348 58.4276 101.483 55.5951 102.58C52.7788 103.745 50.4816 105.893 49.1311 108.625C46.306 114.012 45.3963 120.153 43.2177 125.791C42.2151 128.59 40.7191 131.186 38.8006 133.458C36.8076 135.684 33.6055 137.336 30.6249 136.097C30.5561 136.064 30.4773 136.06 30.4052 136.084C30.333 136.108 30.2731 136.16 30.2381 136.227C30.2031 136.295 30.1958 136.373 30.2177 136.446C30.2396 136.519 30.2891 136.581 30.3555 136.618Z" fill="#263238"/>
<path d="M29.7027 127.179C31.0793 127.365 32.3422 126.329 32.9826 125.192C33.8532 123.556 34.5205 121.819 34.9697 120.021C35.9179 116.301 37.1177 112.649 38.5608 109.092C40.9549 103.52 44.6837 98.145 50.0524 95.0566C52.7126 93.5075 55.6792 92.5586 58.7446 92.2764C61.8101 91.9941 64.9001 92.3854 67.7984 93.4227C70.5581 94.4291 73.0805 95.9939 75.2081 98.0193C77.3976 100.173 79.1602 102.722 80.4033 105.531C81.6455 108.442 82.6659 111.443 83.4557 114.508C83.8088 115.735 84.3056 117.226 85.4907 117.89C85.9327 118.167 86.4586 118.278 86.9748 118.204C87.491 118.129 87.9641 117.874 88.3097 117.483C88.3755 117.405 88.2678 117.322 88.196 117.369C87.8602 117.592 87.4593 117.696 87.0576 117.663C86.6559 117.631 86.2769 117.464 85.9814 117.19C85.342 116.647 84.9174 115.893 84.7844 115.065C84.3834 113.413 84.0602 111.749 83.5874 110.103C82.703 106.759 81.308 103.572 79.4516 100.653C77.7794 98.1487 75.6284 96.0001 73.1224 94.3306C70.6165 92.6612 67.8051 91.5039 64.8501 90.9254C61.8951 90.3468 58.8548 90.3585 55.9043 90.9596C52.9538 91.5608 50.1514 92.7396 47.6583 94.4282C42.4871 97.9355 38.9858 103.34 36.6695 109.044C35.4724 112.17 34.4729 115.369 33.6769 118.62C33.2819 120.265 32.7943 121.885 32.2165 123.474C31.9461 124.171 31.6261 124.847 31.2589 125.497C31.1267 125.796 30.9173 126.055 30.6523 126.246C30.3872 126.438 30.076 126.555 29.7506 126.587C29.672 126.58 29.5942 126.605 29.5341 126.656C29.4741 126.707 29.4368 126.78 29.4304 126.859C29.4241 126.937 29.4492 127.015 29.5003 127.075C29.5513 127.135 29.6242 127.173 29.7027 127.179Z" fill="#263238"/>
<path d="M31.3725 139.203C31.3636 139.27 31.3803 139.337 31.4192 139.392C31.4581 139.446 31.5163 139.484 31.5819 139.497C32.0678 139.612 32.5622 139.688 33.0603 139.724C33.2836 139.736 33.5073 139.736 33.7306 139.724C36.3701 139.592 39.1173 138.096 41.8824 135.277C44.2199 132.892 46.1454 130.135 47.5803 127.119C48.7119 124.535 49.5821 121.845 50.1779 119.087C50.3694 118.315 50.5669 117.537 50.7764 116.771C51.4288 114.317 52.6139 110.786 55.2893 108.559C56.1922 107.807 57.2525 107.267 58.392 106.979C59.5314 106.691 60.721 106.662 61.873 106.895C63.6614 107.258 65.3562 107.985 66.8522 109.03C68.3482 110.075 69.6135 111.416 70.5694 112.97C72.0689 115.469 72.6091 118.428 72.0897 121.296C71.4536 124.395 69.9486 127.25 67.7504 129.525C65.4614 131.881 62.7486 133.784 59.7542 135.134C58.4854 135.732 56.8035 136.528 55.0798 137.162L54.0922 137.528C52.8353 137.988 51.5425 138.455 50.3036 139C50.2233 139.039 50.1597 139.105 50.1244 139.187C50.0891 139.269 50.0845 139.361 50.1114 139.446C50.1383 139.531 50.1949 139.603 50.2709 139.65C50.3468 139.697 50.4371 139.715 50.5251 139.7C51.3929 139.515 52.2488 139.275 53.0448 139.042C58.8205 137.384 66.0147 134.703 70.4019 128.652C72.3846 126.029 73.5354 122.873 73.7057 119.59C73.7839 116.578 72.8481 113.627 71.0483 111.211C68.7835 108.098 65.3922 105.993 61.5977 105.345C60.3489 105.14 59.0712 105.193 57.844 105.502C56.6167 105.811 55.466 106.369 54.4633 107.141C52.2488 108.859 50.6208 111.594 49.4896 115.52C49.1784 116.585 48.8911 117.675 48.6337 118.728C48.0628 121.277 47.2614 123.769 46.2397 126.174C44.7939 129.309 42.7971 132.159 40.3443 134.589C38.3392 136.564 35.2149 138.916 31.7016 138.922C31.621 138.917 31.5415 138.944 31.4801 138.996C31.4187 139.049 31.3801 139.123 31.3725 139.203Z" fill="#263238"/>
<path d="M30.2243 130.633C30.9712 130.801 31.7473 130.791 32.4897 130.604C33.2321 130.417 33.92 130.058 34.4978 129.555C35.8085 128.508 36.4848 126.766 37.0235 125.222C38.2744 121.631 39.244 117.92 40.4889 114.311C42.4221 108.685 45.2771 102.939 50.3465 99.5517C52.6263 98.0532 55.1999 97.0591 57.895 96.6359C60.5901 96.2127 63.3445 96.3702 65.9739 97.0977C68.8843 97.9214 71.5225 99.506 73.6169 101.688C75.5376 103.818 77.06 106.275 78.1118 108.942C78.6684 110.283 79.1473 111.648 79.5722 113.036C79.9608 114.505 80.4243 115.954 80.9608 117.376C81.9423 119.734 84.4142 122.565 87.2632 121.398C87.3094 121.375 87.3469 121.338 87.37 121.292C87.3931 121.247 87.4005 121.194 87.3909 121.144C87.3814 121.094 87.3555 121.048 87.3172 121.013C87.279 120.979 87.2306 120.959 87.1794 120.955C86.3859 120.881 85.6179 120.635 84.9286 120.236C84.2393 119.836 83.6452 119.291 83.1873 118.638C82.1758 117.214 81.7867 115.454 81.3259 113.796C80.5195 110.7 79.3292 107.716 77.7826 104.914C76.404 102.436 74.5271 100.27 72.2703 98.5521C69.8273 96.7862 67.0084 95.6102 64.0347 95.1166C61.3132 94.6724 58.5305 94.7765 55.8499 95.423C53.1693 96.0696 50.645 97.2453 48.4253 98.8813C43.4995 102.562 40.6924 108.332 38.7712 114.024C37.6879 117.22 36.8499 120.482 35.8564 123.702C35.1023 126.156 33.7676 130.286 30.4159 129.741C30.3054 129.734 30.1959 129.766 30.1075 129.833C30.0191 129.899 29.9576 129.996 29.9343 130.104C29.9111 130.212 29.9276 130.325 29.9809 130.422C30.0341 130.519 30.1205 130.594 30.2243 130.633Z" fill="#263238"/>
<path d="M29.979 132.979C30.3727 133.423 30.8482 133.786 31.3795 134.05C32.4808 134.601 34.0908 134.421 35.1921 133.978C36.5455 133.359 37.6818 132.348 38.454 131.076C39.2981 129.716 40.0115 128.279 40.5847 126.784C41.273 125.126 41.8716 123.42 42.4581 121.721C43.6551 118.303 44.7265 114.856 46.0492 111.48C47.1984 108.487 48.6288 105.632 51.0349 103.454C53.177 101.488 55.8365 100.176 58.6998 99.6727C61.563 99.169 64.5106 99.4946 67.1949 100.611C69.9484 101.768 72.2904 103.726 73.9163 106.231C75.7118 108.966 76.5258 112.156 77.3158 115.275C78.0221 118.052 78.5907 121.05 80.3683 123.379C81.8466 125.324 84.9948 126.862 87.0717 124.839C87.0936 124.82 87.1077 124.793 87.1116 124.765C87.1154 124.736 87.1086 124.707 87.0925 124.682C87.0764 124.658 87.052 124.641 87.024 124.633C86.9959 124.626 86.9661 124.629 86.94 124.641C85.4557 125.378 83.714 124.875 82.4751 123.869C81.334 122.87 80.4789 121.585 79.9972 120.147C78.7702 116.968 78.2854 113.563 77.1602 110.325C76.2393 107.454 74.6328 104.852 72.4798 102.742C70.4126 100.767 67.8933 99.3285 65.142 98.552C62.3499 97.8282 59.418 97.8391 56.6314 98.5837C53.8447 99.3284 51.2982 100.781 49.2393 102.802C46.959 105.094 45.5285 107.985 44.3734 110.971C43.1165 114.245 42.099 117.609 40.9618 120.931C40.3633 122.63 39.7648 124.318 39.1004 126C38.5952 127.449 37.9644 128.851 37.2151 130.19C36.5245 131.437 35.4438 132.423 34.1387 132.997C33.5308 133.266 32.8623 133.368 32.2018 133.293C31.5413 133.219 30.9125 132.97 30.38 132.572C30.1047 132.362 29.7755 132.751 29.979 132.979Z" fill="#263238"/>
<path d="M87.7781 115.706C87.823 114.928 87.823 114.149 87.7781 113.371C87.1558 106.955 84.4188 100.927 79.9973 96.2358C75.902 91.7982 70.4459 88.8501 64.4897 87.8565C58.6371 86.9638 52.6514 87.8827 47.3361 90.49C42.0471 93.1013 37.6931 97.2818 34.869 102.46C31.9642 107.565 30.6531 113.423 31.1043 119.279C31.1043 119.404 31.3078 119.38 31.3138 119.279C31.6928 112.959 33.7438 106.853 37.2571 101.587C40.3821 96.9903 44.779 93.4046 49.9098 91.268C55.0296 89.1677 60.6721 88.6954 66.0698 89.9154C71.6297 91.296 76.5819 94.4651 80.1649 98.9351C82.0566 101.306 83.5818 103.947 84.6897 106.77C85.7845 109.691 86.6509 112.692 87.2813 115.747C87.3711 115.975 87.7601 115.975 87.7781 115.706Z" fill="#263238"/>
<path d="M78.6389 137.294C79.2973 136.325 80.7098 137.18 81.44 137.587C82.5353 138.186 83.7143 139.006 85.0311 138.784C85.0525 138.777 85.0759 138.779 85.0961 138.789C85.1163 138.799 85.1317 138.817 85.1388 138.838C85.146 138.86 85.1443 138.883 85.1342 138.903C85.1241 138.924 85.1064 138.939 85.085 138.946C84.6579 139.157 84.1889 139.27 83.7124 139.276C83.236 139.283 82.7642 139.182 82.3318 138.982C81.8658 138.791 81.4102 138.575 80.9671 138.336C80.5475 138.093 80.0991 137.904 79.6324 137.773C79.5471 137.761 79.4605 137.761 79.3751 137.773C79.2853 137.773 79.3092 137.773 79.2973 137.803C79.2135 137.959 79.3452 138.288 79.393 138.443C79.5038 138.848 79.6583 139.239 79.8539 139.61C80.2695 140.374 80.7959 141.072 81.416 141.681C81.7649 142.038 82.1346 142.374 82.5233 142.687C82.9183 143.004 83.3852 143.243 83.7622 143.579C83.7932 143.595 83.8162 143.624 83.8263 143.657C83.8364 143.691 83.8328 143.727 83.8161 143.758C83.7994 143.789 83.7711 143.812 83.7375 143.822C83.7038 143.832 83.6675 143.829 83.6365 143.812C83.181 143.671 82.7463 143.469 82.3437 143.214C81.9228 142.967 81.5225 142.687 81.1467 142.376C80.3872 141.75 79.7483 140.992 79.2614 140.137C79.0168 139.712 78.8163 139.262 78.6628 138.796C78.5413 138.565 78.4758 138.309 78.4716 138.048C78.4675 137.787 78.5248 137.529 78.6389 137.294Z" fill="#263238"/>
<path d="M80.6438 139.15C81.3581 139.477 82.0245 139.9 82.6249 140.406C82.8923 140.63 83.1676 140.839 83.4509 141.035C83.5885 141.131 83.7382 141.22 83.8818 141.304C84.0291 141.38 84.181 141.446 84.3367 141.502C84.3663 141.511 84.3923 141.529 84.4108 141.554C84.4293 141.578 84.4393 141.609 84.4393 141.639C84.4393 141.67 84.4293 141.7 84.4108 141.725C84.3923 141.75 84.3663 141.768 84.3367 141.777C83.6245 141.951 82.8763 141.484 82.3376 141.077C81.6581 140.584 81.0534 139.995 80.5421 139.329C80.4583 139.269 80.5301 139.15 80.6438 139.15Z" fill="#263238"/>
<path d="M33.8567 141.346C33.8538 141.36 33.8538 141.374 33.8567 141.388C33.8608 141.437 33.8804 141.483 33.9128 141.52C33.9451 141.556 33.9884 141.581 34.0362 141.592C34.2126 141.637 34.393 141.665 34.5749 141.675C35.2076 141.685 35.8384 141.605 36.4483 141.436C37.3021 141.233 38.1325 140.943 38.9261 140.568C40.4774 139.818 41.9126 138.848 43.1876 137.689C47.5268 133.895 50.5793 128.49 52.2611 121.613C52.3689 121.158 52.4826 120.697 52.5903 120.242C53.1888 117.759 53.7873 115.197 55.1639 113.06C55.8878 111.931 56.8732 110.992 58.0368 110.325C59.2489 109.717 60.5963 109.428 61.9511 109.487C62.0209 109.484 62.0877 109.458 62.1411 109.413C62.1945 109.368 62.2316 109.306 62.2466 109.238C62.2616 109.17 62.2537 109.099 62.2241 109.036C62.1945 108.972 62.1448 108.921 62.0828 108.888C60.5326 108.128 58.6054 108.847 57.8513 109.188C56.514 109.823 55.3422 110.759 54.4278 111.923C52.6322 114.143 51.9619 116.992 51.3155 119.746L51.1479 120.434C50.4573 123.545 49.3901 126.559 47.9697 129.412C46.5095 132.211 44.5525 134.722 42.194 136.821C41.0524 137.869 39.7811 138.766 38.4114 139.491C37.7079 139.844 36.9798 140.146 36.2328 140.394C35.9814 140.478 35.7241 140.544 35.4667 140.616C34.9608 140.734 34.4692 140.907 34.0003 141.131C33.9591 141.15 33.9239 141.181 33.8986 141.218C33.8733 141.256 33.8588 141.301 33.8567 141.346Z" fill="#263238"/>
<path d="M48.8743 137.952C48.8708 137.999 48.8801 138.045 48.9013 138.086C48.9224 138.127 48.9545 138.162 48.994 138.186C49.0289 138.211 49.0705 138.226 49.1137 138.228C49.1573 138.23 49.2006 138.22 49.2395 138.2C49.2783 138.18 49.3113 138.151 49.3351 138.114C49.8598 137.467 50.5509 136.974 51.3342 136.69C52.0404 136.36 52.7766 136.091 53.4888 135.798L53.812 135.666C55.7692 134.9 57.3613 134.218 58.8216 133.517C65.2976 130.411 69.1581 126.389 70.3132 121.547C70.9691 118.965 70.645 116.231 69.4035 113.874C68.8399 112.752 68.0484 111.76 67.0797 110.961C66.1109 110.163 64.9862 109.575 63.7774 109.236C63.7059 109.217 63.6302 109.225 63.5642 109.258C63.4981 109.291 63.4463 109.347 63.4183 109.415C63.3898 109.478 63.3857 109.548 63.4067 109.614C63.4278 109.679 63.4724 109.734 63.532 109.768C65.8516 111.112 67.6646 113.181 68.6912 115.658C70.002 119.129 69.3675 124.803 63.2507 129.394C60.9635 131.009 58.4997 132.358 55.9069 133.416C54.6141 133.984 53.1537 134.613 51.7531 135.373C51.1732 135.664 50.6203 136.007 50.1012 136.396C49.624 136.799 49.2191 137.281 48.9042 137.821C48.8804 137.86 48.8699 137.907 48.8743 137.952Z" fill="#263238"/>
<path d="M31.942 142.561C32.8217 143.09 33.8195 143.39 34.8448 143.435C36.7219 143.464 38.5755 143.015 40.2315 142.13C42.6949 140.828 44.9289 139.132 46.8451 137.109C47.0307 136.917 47.2042 136.72 47.3838 136.51L47.5454 136.337C47.5883 136.316 47.6269 136.288 47.6591 136.253C49.1733 134.745 51.2502 133.907 53.2433 133.093C53.9376 132.811 54.6618 132.494 55.3381 132.207C58.6838 130.651 60.9642 129.106 62.7238 127.191C64.5082 125.342 65.6335 122.957 65.9259 120.404C66.1354 118.189 65.6147 115.101 63.4779 113.665C61.3412 112.228 58.6359 113.252 57.0499 114.981C55.2064 116.998 54.2667 119.847 53.5066 122.164L53.2433 122.972C52.5519 125.286 51.667 127.539 50.5978 129.705C49.4157 131.943 47.9359 134.011 46.1987 135.852C44.4708 137.682 42.5015 139.269 40.3452 140.568C37.5082 142.262 34.7431 142.777 32.1395 142.118H32.0916C32.0374 142.116 31.9839 142.13 31.938 142.159C31.8921 142.188 31.8559 142.23 31.8343 142.28C31.8173 142.332 31.8187 142.388 31.8383 142.44C31.858 142.491 31.8945 142.534 31.942 142.561ZM50.0771 133.164C50.508 132.566 50.8851 131.967 51.2203 131.369C52.4699 129.149 53.4734 126.798 54.2129 124.36C54.3386 123.971 54.4583 123.582 54.5899 123.163C55.2782 120.985 55.9905 118.728 57.2534 116.825C57.8578 115.808 58.7635 115.005 59.8449 114.527C60.3378 114.333 60.866 114.245 61.3951 114.269C62.027 114.293 62.6297 114.541 63.0949 114.969C64.8904 116.645 65.0042 119.716 64.2919 122.014C63.4809 124.322 61.9991 126.335 60.0365 127.796C57.816 129.561 55.1885 130.74 52.8542 131.782L52.6328 131.878C51.8008 132.315 50.9091 132.716 50.0771 133.164Z" fill="#263238"/>
<path d="M53.9741 129.178C53.9598 129.231 53.9612 129.287 53.9782 129.339C53.9952 129.391 54.0271 129.437 54.0699 129.472C54.1139 129.508 54.1685 129.529 54.2255 129.531C54.2636 129.534 54.3016 129.527 54.3369 129.513C54.3722 129.498 54.4037 129.476 54.429 129.448C54.5607 129.316 55.5303 128.622 55.9971 128.304C56.1467 128.203 56.3024 128.107 56.452 127.999C56.7692 127.79 57.0984 127.574 57.4096 127.335C58.3429 126.628 59.2194 125.85 60.0311 125.007C61.5993 123.361 62.3354 121.715 62.2037 120.105C62.2015 119.707 62.0882 119.319 61.8767 118.982C61.6652 118.646 61.3638 118.376 61.0067 118.201C60.5721 118.056 60.1025 118.052 59.6657 118.191C59.2289 118.33 58.8475 118.604 58.5767 118.974C58.0323 119.699 57.6079 120.507 57.3198 121.368C57.0445 122.062 56.7991 122.786 56.5537 123.48L56.3562 124.043C55.683 125.718 54.8971 127.346 54.004 128.915C53.9756 128.952 53.9578 128.996 53.9526 129.042C53.9473 129.089 53.9547 129.136 53.9741 129.178ZM57.0325 125.037C57.5974 123.561 58.2613 122.125 59.0196 120.739L59.0555 120.679C59.259 120.32 59.7438 119.482 60.2107 119.387H60.3124C60.4109 119.395 60.5047 119.432 60.5818 119.494C60.9888 119.811 60.9289 120.691 60.7374 121.356C60.2945 122.948 58.9418 124.235 57.8884 125.27L57.0505 126.072C56.7632 126.341 56.4819 126.617 56.2006 126.892C56.5597 126.228 56.8171 125.575 57.0325 125.037Z" fill="#263238"/>
<path d="M57.7566 156.183C56.7227 158.237 55.7957 160.343 54.9794 162.492C54.9774 162.506 54.9799 162.52 54.9866 162.532C54.9932 162.545 55.0037 162.555 55.0164 162.561C55.0291 162.567 55.0434 162.569 55.0573 162.566C55.0711 162.563 55.0837 162.556 55.0932 162.546C56.2603 160.81 57.2299 158.955 58.3252 157.159C59.0434 156.004 60.3422 153.305 62.0958 153.741C62.832 153.921 63.3587 154.735 63.7657 155.316C64.2993 156.118 64.8788 156.89 65.5014 157.626C66.459 158.715 68.2546 160.14 69.8227 159.757C69.8945 159.757 69.9364 159.625 69.8646 159.589C69.4456 159.368 69.0027 159.23 68.5898 158.99C68.1345 158.734 67.7124 158.422 67.3329 158.063C66.6004 157.315 65.954 156.488 65.4056 155.597C64.5079 154.208 63.4604 152.377 61.5093 152.604C59.7017 152.814 58.4688 154.711 57.7566 156.183Z" fill="#263238"/>
<path d="M31.8578 144.111C33.7551 146.607 37.1487 146.164 39.6026 144.835C41.0168 144.014 42.3512 143.062 43.5888 141.992C44.8979 140.889 46.2996 139.899 47.7784 139.036C47.7967 139.03 47.812 139.018 47.8209 139.001C47.8299 138.984 47.8319 138.964 47.8263 138.946C47.8207 138.928 47.8082 138.912 47.7913 138.903C47.7745 138.895 47.7548 138.893 47.7365 138.898C44.702 139.383 42.5114 141.891 40.0396 143.471C37.7173 144.967 34.3477 145.865 31.9536 143.974C31.8937 143.902 31.798 144.033 31.8578 144.111Z" fill="#263238"/>
<path d="M81.2716 148.84C81.4631 148.84 81.5409 148.552 81.3434 148.504C78.279 147.744 75.861 145.446 74.3767 142.711C73.0341 140.218 72.2595 137.458 72.1083 134.631C71.9698 132.504 72.284 130.372 73.03 128.376C73.2271 127.71 73.5706 127.097 74.0355 126.581C74.1409 126.447 74.2735 126.337 74.4246 126.259C74.5757 126.181 74.7417 126.136 74.9116 126.127C75.0815 126.118 75.2514 126.145 75.41 126.207C75.5685 126.268 75.7121 126.363 75.8311 126.485C76.1585 126.94 76.4526 127.418 76.7109 127.915C77.4154 128.972 78.3533 129.852 79.4521 130.489C80.5455 131.125 81.7791 131.481 83.0432 131.524C84.3853 131.559 85.7102 131.217 86.8677 130.537C86.9455 130.489 86.9096 130.339 86.8139 130.369C85.2187 130.856 83.515 130.861 81.9174 130.381C80.3198 129.902 78.8997 128.961 77.8361 127.676C77.1059 126.736 76.7109 125.282 75.3163 125.174C73.9218 125.066 72.9522 126.18 72.4015 127.335C71.1757 130.103 70.7726 133.166 71.2404 136.157C71.9766 141.43 75.1487 148.558 81.2716 148.84Z" fill="#263238"/>
<path d="M59.1267 160.505C58.9346 161.05 58.8473 161.627 58.8693 162.205C58.8737 162.222 58.8829 162.238 58.8957 162.25C58.9086 162.262 58.9246 162.271 58.942 162.274C58.9594 162.278 58.9775 162.277 58.9943 162.271C59.011 162.265 59.0258 162.254 59.0369 162.241C59.3146 161.805 59.5264 161.331 59.6653 160.834C59.8509 160.319 60.0424 159.805 60.2638 159.302C60.4821 158.796 60.7382 158.308 61.03 157.841C61.1259 157.636 61.2554 157.448 61.413 157.285L61.4549 157.255L61.5507 157.351C61.6406 157.437 61.7246 157.529 61.802 157.626C62.4098 158.461 63.0652 159.26 63.7652 160.02C64.3637 160.577 65.3153 161.181 66.1593 160.99C66.1707 160.984 66.1804 160.976 66.1872 160.965C66.194 160.955 66.1977 160.942 66.1977 160.93C66.1977 160.917 66.194 160.905 66.1872 160.894C66.1804 160.884 66.1707 160.875 66.1593 160.87C65.6788 160.624 65.2339 160.314 64.8365 159.948C64.4661 159.565 64.1316 159.148 63.837 158.703C63.4958 158.236 63.1906 157.74 62.8195 157.291C62.4484 156.842 62.0355 156.261 61.4429 156.261C60.8504 156.261 60.5691 156.794 60.3357 157.219C60.0516 157.726 59.8113 158.257 59.6174 158.805C59.4558 159.368 59.2763 159.93 59.1267 160.505Z" fill="#263238"/>
<path d="M82.7016 145.613C82.7246 145.621 82.7494 145.619 82.7715 145.61C82.7937 145.6 82.8118 145.583 82.8226 145.562C82.8333 145.54 82.8361 145.516 82.8304 145.492C82.8247 145.469 82.8108 145.448 82.7913 145.434C82.0558 144.813 81.375 144.13 80.7564 143.393C80.1672 142.625 79.6198 141.826 79.1164 140.999C78.1143 139.575 77.2562 138.056 76.5548 136.462C76.1925 135.688 76.0045 134.845 76.0041 133.99C76.1179 132.793 77.3209 133.667 77.8416 134.116C78.4209 134.683 79.041 135.207 79.697 135.684C81.0002 136.523 82.5471 136.9 84.0901 136.755C84.8323 136.623 85.5466 136.366 86.2029 135.995C86.3525 135.929 86.2448 135.726 86.0952 135.774C85.5081 135.918 84.9031 135.974 84.2996 135.941C83.8032 135.951 83.3069 135.921 82.8153 135.852C81.7929 135.692 80.8205 135.301 79.9723 134.708C78.9548 133.984 77.0875 131.554 75.663 132.727C74.43 133.739 75.3817 136.091 75.8784 137.24C76.7005 138.984 77.7036 140.637 78.871 142.172C79.8287 143.489 81.0975 145.063 82.7016 145.613Z" fill="#263238"/>
<path d="M35.6771 150.192C36.9816 150.452 38.336 150.224 39.4837 149.552C39.7291 149.42 39.9565 149.271 40.196 149.121C40.0703 149.265 39.9506 149.402 39.8368 149.546C39.0147 150.55 38.4993 151.77 38.3525 153.059C38.3521 153.077 38.3572 153.094 38.3671 153.109C38.3771 153.123 38.3913 153.134 38.4079 153.14C38.4245 153.146 38.4425 153.147 38.4594 153.142C38.4763 153.137 38.4913 153.127 38.5021 153.113C39.1725 152.09 39.8608 151.06 40.6269 150.12C41.393 149.181 42.2848 148.253 43.021 147.266C43.0495 147.222 43.0647 147.171 43.0648 147.118C43.0648 147.066 43.0496 147.015 43.021 146.971C42.9925 146.927 42.9518 146.893 42.904 146.872C42.8561 146.851 42.8032 146.844 42.7516 146.853C41.4828 147.14 40.5311 148.05 39.4059 148.648C38.2154 149.272 36.9586 149.759 35.6592 150.103C35.6113 150.103 35.6113 150.18 35.6771 150.192Z" fill="#263238"/>
<path d="M49.5683 155.794C48.8876 157.062 48.2879 158.371 47.7727 159.715C47.7561 159.747 47.753 159.785 47.7642 159.82C47.7754 159.855 47.8 159.884 47.8326 159.9C47.8651 159.917 47.903 159.92 47.9377 159.909C47.9725 159.898 48.0015 159.873 48.0181 159.84C49.0356 158.47 49.8556 156.95 50.8012 155.525C51.7469 154.101 52.6866 152.808 53.716 151.509C55.3526 149.395 57.3359 147.573 59.5815 146.122C60.1571 145.755 60.757 145.427 61.3771 145.141C62.0163 144.779 62.7321 144.574 63.4659 144.542C64.7946 144.614 65.6565 145.889 66.249 146.877C67.6795 149.271 68.9004 151.796 71.115 153.622C72.0848 154.466 73.2555 155.048 74.5145 155.31C75.0508 155.465 75.6223 155.448 76.1485 155.262C76.3101 155.16 76.4118 155.01 76.2502 154.867C76.1964 154.825 76.1126 154.867 76.1485 154.951C76.1844 155.034 75.3764 154.873 75.3405 154.861L74.8258 154.717C74.4642 154.606 74.1136 154.461 73.7784 154.286C73.1388 153.953 72.5368 153.551 71.9828 153.089C70.801 152.033 69.8091 150.782 69.0501 149.39C68.3618 148.223 67.7513 146.996 66.9852 145.877C66.3888 144.867 65.4788 144.078 64.3936 143.633C63.029 143.19 61.6464 143.68 60.4134 144.231C59.2241 144.769 58.098 145.438 57.0558 146.224C54.9301 147.836 53.1064 149.812 51.6691 152.06C50.9041 153.267 50.2029 154.514 49.5683 155.794Z" fill="#263238"/>
<path d="M52.9972 158.464C52.5765 159.463 52.279 160.51 52.1114 161.582C52.1098 161.599 52.1142 161.617 52.1238 161.632C52.1334 161.646 52.1477 161.657 52.1643 161.663C52.1809 161.668 52.1989 161.668 52.2154 161.662C52.2318 161.656 52.2458 161.645 52.255 161.63C52.8536 160.588 53.2725 159.433 53.895 158.392C54.5174 157.35 55.092 156.321 55.6905 155.321C56.8103 153.526 58.1076 151.848 59.563 150.312C60.2512 149.612 61.0592 149.013 62.0648 149.115C63.0078 149.306 63.8546 149.82 64.4588 150.569C65.8115 152.083 66.4339 154.16 67.8285 155.645C68.4465 156.322 69.2178 156.842 70.0779 157.161C70.938 157.48 71.8619 157.588 72.7723 157.476C72.8321 157.476 72.8501 157.35 72.7723 157.332C71.6004 157.052 70.5023 156.523 69.5522 155.782C68.6262 154.987 67.8638 154.02 67.3078 152.933C66.2783 151.138 65.2788 149.187 63.3336 148.289C62.4806 147.879 61.5011 147.819 60.6044 148.121C59.6697 148.529 58.8481 149.157 58.2103 149.953C56.6898 151.601 55.3809 153.433 54.3139 155.405C53.803 156.392 53.3629 157.414 52.9972 158.464Z" fill="#263238"/>
<path d="M44.3375 157.452C44.3231 157.5 44.3268 157.551 44.3477 157.597C44.3687 157.642 44.4055 157.678 44.4512 157.698H44.5291C44.5631 157.698 44.5967 157.69 44.6269 157.674C44.6572 157.659 44.6832 157.636 44.7026 157.608C45.6081 156.192 46.5891 154.825 47.6413 153.514C48.747 152.169 49.9279 150.888 51.1786 149.678C53.2509 147.561 55.4646 145.587 57.8042 143.77C58.9587 142.891 60.2121 142.15 61.539 141.562C62.8018 141.011 64.5315 140.263 65.7286 141.328C66.4234 142.049 66.974 142.896 67.3506 143.824C67.5182 144.171 67.6857 144.506 67.8593 144.824C68.5868 146.175 69.4426 147.454 70.415 148.642C71.3591 149.801 72.4898 150.794 73.7607 151.581C74.9759 152.346 76.3619 152.799 77.7947 152.898C77.8437 152.903 77.8928 152.889 77.9318 152.859C77.9709 152.829 77.9968 152.785 78.0042 152.736C78.0172 152.689 78.0113 152.639 77.9878 152.597C77.9643 152.554 77.9251 152.522 77.8785 152.509C73.8984 151.114 71.3427 148.068 69.9062 145.757C69.5052 145.111 69.1401 144.411 68.799 143.74C68.4578 143.07 68.1047 142.394 67.6977 141.747C66.8299 140.341 65.7166 139.622 64.4118 139.581C62.8437 139.539 61.2158 140.221 59.9768 140.807C58.6155 141.465 57.3292 142.268 56.1403 143.202C53.7356 145.157 51.4919 147.303 49.4309 149.618C47.2942 151.922 45.1874 154.472 44.3375 157.452Z" fill="#263238"/>
<path d="M81.6963 147.583C81.8938 147.679 82.0135 147.385 81.8639 147.266C79.8595 145.741 78.1308 143.885 76.7525 141.777C75.6238 139.941 74.8445 137.912 74.4542 135.792C74.2474 134.707 74.1412 133.605 74.137 132.5C74.137 131.692 73.9275 129.651 75.1126 129.645C76.2976 129.639 76.95 131.064 77.6383 131.746C78.4246 132.544 79.352 133.189 80.3736 133.649C81.3866 134.124 82.5143 134.299 83.6236 134.154C84.7328 134.008 85.7774 133.549 86.6341 132.829C86.6477 132.818 86.6568 132.802 86.6595 132.785C86.6622 132.767 86.6584 132.749 86.6487 132.735C86.6391 132.72 86.6243 132.709 86.6073 132.704C86.5902 132.7 86.572 132.702 86.5563 132.71C83.9228 134.176 80.4693 133.033 78.4344 131.07C77.6084 130.28 76.9381 129.136 75.765 128.819C75.5277 128.727 75.2735 128.685 75.0191 128.699C74.7648 128.712 74.5161 128.779 74.2897 128.895C74.0633 129.012 73.8642 129.176 73.7058 129.375C73.5474 129.574 73.4332 129.805 73.3709 130.052C73.1324 131.154 73.0638 132.287 73.1674 133.41C73.2218 134.548 73.3943 135.677 73.6821 136.78C74.8612 141.161 77.5785 145.5 81.6963 147.583Z" fill="#263238"/>
<path d="M42.6497 153.197C42.171 154.023 41.8141 154.914 41.5903 155.842C41.5669 155.952 41.5821 156.067 41.6333 156.168C41.6845 156.268 41.7687 156.347 41.8716 156.393C41.9162 156.408 41.9624 156.418 42.0093 156.423C42.0831 156.426 42.1565 156.41 42.2218 156.375C42.2871 156.34 42.3418 156.289 42.3803 156.225C42.7335 155.681 43.0686 155.124 43.4038 154.573C44.1175 153.336 44.9175 152.15 45.7979 151.024C47.1092 149.439 48.5334 147.951 50.0593 146.571C53.1422 143.995 56.3695 141.597 59.7254 139.389C64.5135 136.205 67.7994 134.523 68.5536 134.87C69.0683 135.11 69.0922 135.966 69.1162 136.666C69.1162 136.866 69.1262 137.065 69.1461 137.264C69.2688 138.245 69.4447 139.218 69.6728 140.179C70.0743 142.021 70.7674 143.787 71.7257 145.41C72.6067 146.887 73.8021 148.152 75.227 149.115C76.0051 149.624 78.0221 150.767 79.8775 150.414C79.9259 150.395 79.9677 150.362 79.998 150.32C80.0283 150.278 80.0458 150.228 80.0483 150.176C80.0508 150.124 80.0383 150.073 80.0123 150.028C79.9862 149.983 79.9477 149.947 79.9015 149.923C79.5962 149.803 79.303 149.696 78.9977 149.588C78.356 149.37 77.73 149.108 77.1243 148.804C76.2498 148.332 75.4442 147.742 74.7303 147.05C73.279 145.589 72.1869 143.81 71.5402 141.855C70.9372 139.949 70.5359 137.985 70.3431 135.995C70.3379 135.571 70.2367 135.154 70.047 134.774C69.8573 134.395 69.5841 134.064 69.2478 133.805C68.5416 133.344 67.3266 133.661 66.7281 133.919C63.2926 135.391 52.2559 142.442 47.8568 146.523C46.4883 147.824 45.2551 149.26 44.1759 150.809C43.6234 151.576 43.1139 152.373 42.6497 153.197Z" fill="#263238"/>
<path d="M33.9112 147.565C36.2155 148.564 38.9447 147.565 41.0455 146.523C43.1463 145.482 44.876 144.075 46.8452 142.932C47.3539 142.645 47.8626 142.376 48.3893 142.13C48.6527 142.01 48.922 141.897 49.1914 141.795C49.329 141.741 49.4906 141.639 49.6343 141.687C49.7779 141.735 49.8078 141.687 49.6941 141.801C49.5804 141.915 49.6223 141.903 49.5804 141.951C48.8981 142.801 47.8267 143.411 47.0068 144.117C45.3296 145.535 43.8051 147.123 42.458 148.858C41.1892 150.503 39.8664 152.395 39.4654 154.472C39.4654 154.573 39.5851 154.609 39.639 154.537C40.447 153.436 41.1233 152.239 41.9253 151.132C42.7129 150.052 43.5834 149.036 44.5289 148.091C45.3728 147.242 46.2526 146.422 47.1444 145.626C48.0362 144.829 48.9759 144.147 49.7779 143.303C50.3345 142.705 51.3281 141.508 50.2388 140.909C49.3589 140.43 48.0542 141.25 47.2761 141.639C45.0735 142.741 43.0865 144.231 40.9438 145.416C39.8412 146.038 38.6703 146.53 37.4544 146.882C36.2949 147.179 35.1072 147.352 33.9112 147.397C33.8154 147.403 33.8154 147.529 33.9112 147.565Z" fill="#263238"/>
<path d="M61.3951 159.236C61.394 159.214 61.394 159.192 61.3951 159.17C61.4023 159.149 61.4142 159.13 61.4298 159.115C61.4455 159.1 61.4644 159.088 61.4852 159.081C61.506 159.074 61.5281 159.072 61.5498 159.075C61.5716 159.078 61.5923 159.086 61.6105 159.098L61.6584 159.128C61.8679 159.206 62.0056 159.511 62.0834 159.691C62.1612 159.87 62.2809 160.14 62.3826 160.355C62.5801 160.786 62.7537 161.229 62.9812 161.654C62.9934 161.672 62.9984 161.695 62.9951 161.717C62.9918 161.738 62.9806 161.758 62.9635 161.773C62.9464 161.787 62.9247 161.794 62.9025 161.793C62.8804 161.792 62.8593 161.783 62.8435 161.767C62.4193 161.479 62.0571 161.109 61.7781 160.678C61.653 160.469 61.543 160.251 61.4489 160.026C61.3902 159.884 61.3519 159.735 61.3352 159.583C61.3175 159.464 61.3385 159.342 61.3951 159.236Z" fill="#263238"/>
<path d="M14.5131 94.6676H12.7175V73.6835H33.7016V75.4791H14.5131V94.6676Z" fill="#92E3A9"/>
<path d="M104.973 165.933H83.9885V164.138H103.177V144.949H104.973V165.933Z" fill="#92E3A9"/>
<path d="M33.7016 165.933H12.7175V144.949H14.5131V164.138H33.7016V165.933Z" fill="#92E3A9"/>
<path d="M104.973 94.6676H103.177V75.4791H83.9885V73.6835H104.973V94.6676Z" fill="#92E3A9"/>
<path d="M109.593 170.56H108.175V170.111H109.144V169.141H109.593V170.56Z" fill="#92E3A9"/>
<path d="M105.769 170.56H103.375V170.111H105.769V170.56ZM100.981 170.56H98.5866V170.111H100.981V170.56ZM96.1925 170.56H93.7984V170.111H96.1925V170.56ZM91.4044 170.56H89.0103V170.111H91.4044V170.56ZM86.6162 170.56H84.2221V170.111H86.6162V170.56ZM81.8281 170.56H79.434V170.111H81.8281V170.56ZM77.0399 170.56H74.6458V170.111H77.0399V170.56ZM72.2518 170.56H69.8577V170.111H72.2518V170.56ZM67.4636 170.56H65.0695V170.111H67.4636V170.56ZM62.6755 170.56H60.2814V170.111H62.6755V170.56ZM57.8873 170.56H55.4932V170.111H57.8873V170.56ZM53.0992 170.56H50.7051V170.111H53.0992V170.56ZM48.311 170.56H45.9169V170.111H48.311V170.56ZM43.5229 170.56H41.1288V170.111H43.5229V170.56ZM38.7347 170.56H36.3406V170.111H38.7347V170.56ZM33.9466 170.56H31.5525V170.111H33.9466V170.56ZM29.1584 170.56H26.7644V170.111H29.1584V170.56ZM24.3703 170.56H21.9762V170.111H24.3703V170.56ZM19.5821 170.56H17.1881V170.111H19.5821V170.56ZM14.794 170.56H12.3999V170.111H14.794V170.56Z" fill="#92E3A9"/>
<path d="M9.51517 170.56H8.09668V169.141H8.54557V170.111H9.51517V170.56Z" fill="#92E3A9"/>
<path d="M8.54595 166.729H8.0791V164.335H8.52799L8.54595 166.729ZM8.54595 161.941H8.0791V159.547H8.52799L8.54595 161.941ZM8.54595 157.153H8.0791V154.759H8.52799L8.54595 157.153ZM8.54595 152.365H8.0791V149.971H8.52799L8.54595 152.365ZM8.54595 147.577H8.0791V145.183H8.52799L8.54595 147.577ZM8.54595 142.788H8.0791V140.394H8.52799L8.54595 142.788ZM8.54595 138H8.0791V135.606H8.52799L8.54595 138ZM8.54595 133.212H8.0791V130.818H8.52799L8.54595 133.212ZM8.54595 128.424H8.0791V126.03H8.52799L8.54595 128.424ZM8.54595 123.636H8.0791V121.242H8.52799L8.54595 123.636ZM8.54595 118.848H8.0791V116.454H8.52799L8.54595 118.848ZM8.54595 114.06H8.0791V111.666H8.52799L8.54595 114.06ZM8.54595 109.271H8.0791V106.877H8.52799L8.54595 109.271ZM8.54595 104.483H8.0791V102.089H8.52799L8.54595 104.483ZM8.54595 99.6951H8.0791V97.3011H8.52799L8.54595 99.6951ZM8.54595 94.8771H8.0791V92.483H8.52799L8.54595 94.8771ZM8.54595 90.0889H8.0791V87.6948H8.52799L8.54595 90.0889ZM8.54595 85.3008H8.0791V82.9067H8.52799L8.54595 85.3008ZM8.54595 80.5126H8.0791V78.1185H8.52799L8.54595 80.5126ZM8.54595 75.7245H8.0791V73.3304H8.52799L8.54595 75.7245Z" fill="#92E3A9"/>
<path d="M8.54557 70.4815H8.09668V69.063H9.51517V69.5119H8.54557V70.4815Z" fill="#92E3A9"/>
<path d="M105.769 69.5119H103.375V69.063H105.769V69.5119ZM100.981 69.5119H98.5866V69.063H100.981V69.5119ZM96.1925 69.5119H93.7984V69.063H96.1925V69.5119ZM91.4044 69.5119H89.0103V69.063H91.4044V69.5119ZM86.6162 69.5119H84.2221V69.063H86.6162V69.5119ZM81.8281 69.5119H79.434V69.063H81.8281V69.5119ZM77.0399 69.5119H74.6458V69.063H77.0399V69.5119ZM72.2518 69.5119H69.8577V69.063H72.2518V69.5119ZM67.4636 69.5119H65.0695V69.063H67.4636V69.5119ZM62.6755 69.5119H60.2814V69.063H62.6755V69.5119ZM57.8873 69.5119H55.4932V69.063H57.8873V69.5119ZM53.0992 69.5119H50.7051V69.063H53.0992V69.5119ZM48.311 69.5119H45.9169V69.063H48.311V69.5119ZM43.5229 69.5119H41.1288V69.063H43.5229V69.5119ZM38.7347 69.5119H36.3406V69.063H38.7347V69.5119ZM33.9466 69.5119H31.5525V69.063H33.9466V69.5119ZM29.1584 69.5119H26.7644V69.063H29.1584V69.5119ZM24.3703 69.5119H21.9762V69.063H24.3703V69.5119ZM19.5821 69.5119H17.1881V69.063H19.5821V69.5119ZM14.794 69.5119H12.3999V69.063H14.794V69.5119Z" fill="#92E3A9"/>
<path d="M109.593 70.4815H109.144V69.5119H108.175V69.063H109.593V70.4815Z" fill="#92E3A9"/>
<path d="M109.594 166.729H109.145V164.335H109.594V166.729ZM109.594 161.941H109.145V159.547H109.594V161.941ZM109.594 157.153H109.145V154.759H109.594V157.153ZM109.594 152.365H109.145V149.971H109.594V152.365ZM109.594 147.577H109.145V145.183H109.594V147.577ZM109.594 142.788H109.145V140.394H109.594V142.788ZM109.594 138H109.145V135.606H109.594V138ZM109.594 133.212H109.145V130.818H109.594V133.212ZM109.594 128.424H109.145V126.03H109.594V128.424ZM109.594 123.636H109.145V121.242H109.594V123.636ZM109.594 118.848H109.145V116.454H109.594V118.848ZM109.594 114.06H109.145V111.666H109.594V114.06ZM109.594 109.271H109.145V106.877H109.594V109.271ZM109.594 104.483H109.145V102.089H109.594V104.483ZM109.594 99.6951H109.145V97.3011H109.594V99.6951ZM109.594 94.8771H109.145V92.483H109.594V94.8771ZM109.594 90.0889H109.145V87.6948H109.594V90.0889ZM109.594 85.3008H109.145V82.9067H109.594V85.3008ZM109.594 80.5126H109.145V78.1185H109.594V80.5126ZM109.594 75.7245H109.145V73.3304H109.594V75.7245Z" fill="#92E3A9"/>
<path d="M138.78 239.701H194.047C194.502 237.905 194.939 236.17 195.382 234.446C195.885 232.451 196.377 230.518 196.86 228.646C196.962 228.227 197.076 227.808 197.183 227.395C197.549 225.953 197.902 224.546 198.255 223.206C198.464 222.368 198.674 221.548 198.853 220.74C199.033 219.932 199.272 219.1 199.452 218.31C199.506 218.1 199.56 217.885 199.613 217.711C199.667 217.538 199.727 217.25 199.781 217.029L199.991 216.209C200.068 215.922 200.14 215.64 200.206 215.359C200.35 214.826 200.481 214.306 200.607 213.791C200.805 213.037 200.99 212.295 201.176 211.57C201.253 211.259 201.337 210.942 201.415 210.637C201.547 210.128 201.672 209.637 201.792 209.158C201.876 208.835 201.954 208.518 202.031 208.213C202.361 206.944 202.66 205.753 202.941 204.622C203.019 204.328 203.085 204.023 203.163 203.76C203.282 203.275 203.402 202.814 203.516 202.365C203.594 202.084 203.659 201.815 203.725 201.545C203.971 200.594 204.192 199.75 204.384 198.966C204.438 198.762 204.485 198.565 204.539 198.367L204.88 197.014C204.922 196.859 204.958 196.703 205 196.56C205.042 196.416 205.078 196.254 205.108 196.123C205.138 195.991 205.162 195.925 205.18 195.841C205.198 195.758 205.252 195.572 205.281 195.464C205.29 195.407 205.304 195.351 205.323 195.297L205.449 194.794H151.726C151.726 194.794 149.93 200.905 147.117 210.75C146.519 212.755 145.92 214.94 145.256 217.214C143.347 223.72 141.15 231.381 138.78 239.701Z" fill="#37474F"/>
<path d="M184.998 239.701H186.374C188.421 231.234 190.404 222.753 192.324 214.258C192.787 212.191 193.243 210.122 193.694 208.051L193.82 207.453C193.823 207.432 193.819 207.411 193.808 207.393C193.796 207.376 193.779 207.363 193.758 207.358C193.738 207.352 193.717 207.355 193.698 207.365C193.68 207.375 193.665 207.391 193.658 207.411L193.605 207.602C192.982 209.821 192.364 212.045 191.749 214.276C189.433 222.715 187.182 231.19 184.998 239.701Z" fill="#263238"/>
<path d="M153.444 194.74L155.838 206.627L157.765 216.359L161.081 232.967L161.422 234.673L161.991 237.51L162.416 239.659H194.053C194.502 237.863 194.945 236.122 195.382 234.404C195.885 232.409 196.378 230.476 196.86 228.604C196.962 228.185 197.076 227.766 197.184 227.353C197.549 225.911 197.902 224.504 198.255 223.164C198.464 222.326 198.674 221.506 198.853 220.698C199.033 219.89 199.272 219.058 199.452 218.268C199.506 218.058 199.56 217.843 199.614 217.669C199.667 217.496 199.727 217.208 199.781 216.987L199.991 216.167C200.068 215.88 200.14 215.598 200.206 215.317C200.35 214.784 200.481 214.264 200.607 213.749C200.805 212.995 200.99 212.253 201.176 211.528C201.26 211.211 201.337 210.9 201.415 210.595C201.547 210.086 201.672 209.595 201.792 209.116C201.876 208.793 201.954 208.476 202.032 208.171C202.361 206.902 202.66 205.711 202.941 204.58C203.019 204.286 203.085 203.981 203.163 203.718C203.283 203.233 203.402 202.772 203.516 202.323C203.594 202.042 203.66 201.773 203.725 201.503C203.971 200.552 204.192 199.708 204.384 198.924C204.438 198.72 204.486 198.523 204.539 198.325L204.881 196.973C204.922 196.817 204.958 196.661 205 196.518C205.042 196.374 205.078 196.212 205.108 196.081C205.138 195.949 205.162 195.883 205.18 195.799C205.198 195.716 205.252 195.53 205.282 195.422C205.291 195.365 205.305 195.309 205.323 195.255L205.449 194.752L153.444 194.74Z" fill="#263238"/>
<path d="M153.438 194.722C153.438 195.021 153.665 198.229 154.18 203.101C154.33 204.532 154.503 206.094 154.707 207.782C155.024 210.439 155.413 213.366 155.904 216.46C156.73 221.847 157.807 227.748 159.208 233.506C159.704 235.577 160.255 237.63 160.836 239.641H230.264C229.444 229.059 228.696 219.489 228.103 211.947C227.265 201.33 226.739 194.68 226.739 194.68H163.75L153.438 194.722Z" fill="#37474F"/>
<path d="M153.588 201.102C153.666 203.586 153.767 206.07 153.929 208.542C154.097 211.223 154.342 213.899 154.695 216.574C154.702 216.672 154.714 216.77 154.731 216.867C155.062 219.373 155.437 221.873 155.856 224.367C156.257 226.689 156.551 229.197 157.58 231.351C157.97 232.182 158.521 232.927 159.202 233.542C159.829 234.112 160.595 234.508 161.423 234.691C161.558 234.725 161.696 234.747 161.835 234.757C161.871 234.757 161.913 234.757 161.955 234.757C161.929 234.77 161.908 234.791 161.894 234.817C161.88 234.842 161.874 234.872 161.877 234.901C161.907 235.733 161.877 236.582 161.979 237.408C161.979 237.444 161.979 237.48 161.979 237.516C162.063 238.234 162.195 238.947 162.326 239.665H163.523C163.523 239.665 163.523 239.665 163.523 239.623C163.314 238.839 163.14 238.049 162.925 237.229C162.709 236.409 162.446 235.637 162.26 234.835C162.251 234.802 162.23 234.774 162.201 234.757C162.958 234.795 163.708 234.6 164.35 234.197C164.993 233.794 165.496 233.204 165.792 232.506C166.093 231.443 166.113 230.319 165.852 229.245L165.205 224.977C164.798 222.368 164.277 219.782 163.811 217.196C163.745 216.801 163.673 216.406 163.601 215.999C162.673 210.714 161.698 205.424 160.531 200.186C160.489 199.971 160.435 199.756 160.387 199.534C160.339 199.313 160.124 199.432 160.136 199.57C160.172 199.923 160.208 200.276 160.249 200.629C160.453 202.64 160.692 204.639 160.968 206.615C161.303 208.961 161.536 211.319 161.865 213.665L162.207 216.059C162.745 219.92 163.308 223.78 163.966 227.623C164.277 229.418 165.391 232.608 162.817 233.165C162.228 233.295 161.613 233.217 161.075 232.943C159.941 232.269 159.09 231.205 158.681 229.951C157.951 227.904 157.694 225.653 157.317 223.523C156.89 221.173 156.515 218.816 156.191 216.454C155.772 213.51 155.342 210.565 154.875 207.626C154.647 206.124 154.408 204.633 154.168 203.125C154.061 202.437 153.947 201.743 153.833 201.048C153.815 200.911 153.588 200.953 153.588 201.102Z" fill="#263238"/>
<path d="M215.032 219.561C212.141 219.532 209.264 219.146 206.467 218.412C205.175 218.076 203.9 217.663 202.637 217.25C201.382 216.901 200.208 216.312 199.177 215.515C197.232 213.833 196.323 211.187 195.479 208.841C194.555 206.194 193.805 203.489 193.234 200.743C193.204 200.606 193.007 200.648 193.001 200.779C192.946 203.888 193.349 206.987 194.198 209.978C194.898 212.516 195.838 215.365 197.891 217.161C200.045 219.028 202.978 219.686 205.737 220.028C208.842 220.39 211.98 220.348 215.074 219.902C215.097 219.899 215.118 219.892 215.138 219.881C215.157 219.87 215.175 219.855 215.189 219.837C215.203 219.819 215.213 219.799 215.219 219.777C215.225 219.755 215.227 219.733 215.224 219.71C215.221 219.688 215.214 219.666 215.203 219.647C215.192 219.627 215.177 219.61 215.159 219.596C215.141 219.582 215.121 219.572 215.099 219.566C215.077 219.56 215.055 219.558 215.032 219.561Z" fill="#263238"/>
<path d="M219.844 200.797C219.999 204.688 220.163 208.578 220.334 212.468C220.733 221.53 221.17 230.591 221.645 239.653H222.95C222.351 230.567 221.723 221.492 221.065 212.426C220.777 208.54 220.482 204.662 220.179 200.791C220.178 200.747 220.159 200.704 220.128 200.674C220.096 200.643 220.053 200.626 220.008 200.627C219.964 200.627 219.921 200.646 219.891 200.678C219.86 200.71 219.843 200.753 219.844 200.797Z" fill="#263238"/>
<path d="M161.147 114.706C133.794 139.359 108.435 166.358 106.448 180.136C103.701 199.217 115.426 204.514 120.693 204.562C135.009 204.705 161.027 146.685 170.077 124.534C178.863 103.023 167.156 109.29 161.147 114.706Z" fill="#D3766A"/>
<path d="M119.861 154.16L150.278 170.691C150.278 170.691 169.185 135.762 173.542 119.572C177.9 103.382 171.394 103.837 157.113 116.442C142.832 129.047 119.861 154.16 119.861 154.16Z" fill="#C7C7C7"/>
<path d="M119.861 154.16L150.278 170.691C150.278 170.691 169.185 135.762 173.542 119.572C177.9 103.382 171.394 103.837 157.113 116.442C142.832 129.047 119.861 154.16 119.861 154.16Z" fill="#92E3A9"/>
<path opacity="0.1" d="M173.542 119.566C169.185 135.762 150.271 170.698 150.271 170.698L122.578 155.639L173.584 107.697C175.283 109.002 175.355 112.851 173.542 119.566Z" fill="black"/>
<path d="M126.121 149.498C137.846 157.434 149.212 162.588 151.492 163.898C151.6 163.964 151.69 163.785 151.576 163.725C149.272 162.558 136.793 154.789 126.211 149.307C126.091 149.241 125.989 149.42 126.121 149.498Z" fill="#263238"/>
<path d="M143.419 216.305L232.485 216.562C232.485 216.562 224.704 149.528 192.013 109.96C184.448 100.797 172.262 105.77 167.12 110.642C154.073 122.99 143.168 215.982 143.419 216.305Z" fill="#92E3A9"/>
<path d="M174.057 106.315C176.194 107.877 178.247 109.601 180.3 111.199L186.285 115.837C188.081 117.244 189.876 118.83 191.917 119.937C193.754 120.943 195.891 121.392 197.86 120.494C198.342 120.27 198.794 119.989 199.207 119.656L199.41 119.973C198.408 120.807 197.168 121.305 195.867 121.398C193.898 121.511 192.061 120.614 190.481 119.536C188.482 118.184 186.62 116.621 184.711 115.143C181.006 112.276 177.349 109.284 173.543 106.542C173.692 106.465 173.872 106.387 174.057 106.315ZM209.579 159.637C212.731 159.618 215.877 159.896 218.976 160.469C218.904 160.259 218.826 160.044 218.743 159.834C216.019 159.336 213.258 159.078 210.489 159.062C202.427 158.913 191.642 159.415 186.77 151.515C184.849 148.403 184.226 144.267 186.339 141.077C188.2 138.264 191.678 137.049 194.94 137.079C196.641 137.089 198.324 137.422 199.901 138.06C201.764 138.91 203.482 140.044 204.995 141.424C207.891 143.89 210.591 146.781 214.218 148.151L213.931 147.457C212.851 146.993 211.827 146.409 210.878 145.715C207.508 143.279 204.785 139.904 201.038 138C198.17 136.554 194.884 136.162 191.755 136.893C188.763 137.617 186.099 139.563 184.992 142.525C183.759 145.829 184.723 149.612 186.692 152.431C191.755 159.655 201.721 159.535 209.579 159.637ZM195.909 128.837C198.266 127.708 200.702 126.753 203.199 125.982C203.091 125.809 202.984 125.623 202.87 125.45C197.124 127.06 191.815 130.693 185.89 131.71C178.7 132.85 171.34 131.333 165.187 127.443C163.501 126.388 161.929 125.163 160.495 123.786C160.423 123.977 160.357 124.169 160.291 124.384C161.661 125.672 163.148 126.83 164.732 127.844C170.675 131.65 177.747 133.295 184.759 132.5C188.691 131.967 192.306 130.465 195.909 128.837ZM201.296 192.43C205.688 194.017 210.175 195.324 214.733 196.344C219.784 197.541 226.033 198.547 230.114 201.964C230.061 201.671 230.001 201.366 229.941 201.084C225.865 197.978 220.017 196.985 215.152 195.847C210.581 194.819 206.078 193.511 201.667 191.933C197.878 190.538 194.132 188.665 191.36 185.643C190.166 184.364 189.243 182.855 188.648 181.209C188.054 179.563 187.799 177.814 187.901 176.066C188.134 172.535 190.145 169.321 193.623 168.22C197.352 167.023 201.511 168.429 204.624 170.554C208.179 172.99 210.734 176.647 213.47 179.903C216.061 183.009 218.934 185.888 222.723 187.456C224.144 188.059 225.659 188.413 227.2 188.503C227.158 188.33 227.122 188.144 227.074 187.965C224.052 187.773 221.089 186.289 218.743 184.469C215.289 181.8 212.811 178.083 209.968 174.815C207.365 171.823 204.384 169.165 200.542 167.92C197.214 166.843 193.389 166.951 190.576 169.243C188.122 171.254 187.147 174.51 187.314 177.593C187.518 180.963 188.954 184.141 191.348 186.522C194.09 189.294 197.669 191.077 201.29 192.418L201.296 192.43ZM190.469 207.674C189.834 210.565 190.133 213.522 189.96 216.442H190.511C190.72 212.851 190.151 209.099 191.642 205.717C191.997 204.852 192.536 204.075 193.221 203.438C193.906 202.802 194.721 202.321 195.61 202.03C197.6 201.517 199.708 201.754 201.535 202.694C205.402 204.586 207.467 208.68 209.346 212.319C210.076 213.713 210.824 215.156 211.686 216.508H212.333C210.202 213.276 208.843 209.589 206.545 206.453C204.324 203.46 200.985 200.983 197.064 201.246C193.431 201.491 191.193 204.316 190.463 207.674H190.469ZM155.551 216.359H156.257C157.054 214.955 157.624 213.434 157.945 211.852C158.807 207.878 158.544 203.766 158.268 199.744C157.61 190.425 156 180.908 158.041 171.649C158.821 167.857 160.299 164.243 162.398 160.99C164.601 157.698 167.785 154.603 171.633 153.347C172.646 152.97 173.724 152.803 174.802 152.853C175.881 152.903 176.939 153.171 177.912 153.64C179.551 154.562 180.848 155.99 181.611 157.71C183.556 161.851 182.353 166.538 180.497 170.476C176.864 178.161 170.969 184.637 168.042 192.693C166.748 196.291 166.206 200.116 166.452 203.932C166.697 207.747 167.723 211.472 169.467 214.874C169.73 215.383 170.005 215.886 170.299 216.382H170.951C169.512 214.018 168.438 211.449 167.767 208.763C166.786 204.942 166.659 200.951 167.396 197.074C168.21 192.885 170.071 189.036 172.184 185.397C174.297 181.758 176.816 178.215 178.965 174.498C181.114 170.781 183.197 166.61 183.155 162.175C183.113 158.751 181.521 155.124 178.492 153.335C174.901 151.204 170.598 152.652 167.456 154.891C161.273 159.302 158.137 166.705 156.987 174.007C155.491 183.536 157.365 193.16 157.813 202.7C157.999 206.507 157.987 210.439 156.652 214.072C156.37 214.872 156.001 215.639 155.551 216.359ZM164.481 135.918C162.559 134.289 160.145 133.353 157.628 133.26C157.586 133.416 157.544 133.583 157.496 133.739C158.099 133.768 158.7 133.842 159.292 133.96C162.967 134.691 166.689 137.552 166.731 141.592C166.785 145.991 163.05 149.259 159.435 151.078C157.317 152.143 155.096 152.969 152.924 153.885C152.888 154.077 152.846 154.262 152.81 154.484C154.186 153.885 155.587 153.37 156.999 152.796C160.74 151.264 164.511 149.205 166.372 145.434C167.195 143.868 167.456 142.068 167.112 140.333C166.768 138.598 165.839 137.033 164.481 135.9V135.918Z" fill="white"/>
<path d="M198.267 112.952C224.206 132.865 251.253 166.681 251.678 186.181C252.079 205.453 241.252 203.538 239.433 202.94C220.16 196.955 196.938 143.477 188.331 121.709C179.784 100.12 191.827 108.027 198.267 112.952Z" fill="#D3766A"/>
<path d="M239.941 151.796L209.824 168.872C209.824 168.872 190.288 134.284 185.644 118.172C180.999 102.059 187.517 102.413 202.049 114.748C216.581 127.083 239.941 151.796 239.941 151.796Z" fill="#92E3A9"/>
<path d="M233.598 147.247C222.01 155.387 210.74 160.75 208.46 162.097C208.352 162.163 208.262 161.983 208.37 161.923C210.651 160.726 222.992 152.724 233.472 147.056C233.622 146.99 233.723 147.17 233.598 147.247Z" fill="#263238"/>
<path d="M211.757 167.693C211.145 167.929 210.545 168.199 209.962 168.501C207.071 162.749 207.598 164.066 204.647 158.326C203.206 155.533 201.762 152.726 200.314 149.905C198.817 146.984 197.477 143.92 195.825 141.107C195.816 141.089 195.801 141.076 195.782 141.07C195.764 141.064 195.743 141.065 195.726 141.074C195.709 141.083 195.695 141.098 195.689 141.116C195.683 141.135 195.684 141.155 195.693 141.173C196.651 143.938 197.949 146.619 199.176 149.289C198.907 148.876 198.65 148.451 198.35 148.05C197.686 147.158 197.034 146.254 196.447 145.32C196.351 145.177 196.112 145.29 196.202 145.44C196.8 146.338 197.267 147.266 197.764 148.211C198.261 149.157 198.805 150.049 199.362 150.958C199.919 151.868 200.499 152.658 201.098 153.49L201.313 153.801C202.103 155.471 202.869 157.147 203.707 158.799C206.604 164.587 209.585 169.141 209.692 169.112C210.454 168.748 211.184 168.324 211.877 167.843C211.925 167.795 211.841 167.687 211.757 167.693Z" fill="#263238"/>
<path d="M122.016 203.885C130.946 202.581 136.003 185.996 145.915 159.595C147.65 154.962 124.601 128.43 121.471 132.697C117.527 138.084 107.107 167.884 106.041 175.988C103.988 191.957 111.625 205.412 122.016 203.885Z" fill="#D3766A"/>
<path d="M135.752 186.307C136.554 184.063 137.404 181.836 138.26 179.61L140.851 172.948C141.749 170.739 142.611 168.519 143.479 166.304C143.922 165.195 144.349 164.084 144.76 162.971C145.185 161.857 145.598 160.738 145.915 159.589C145.418 161.926 144.748 164.223 143.91 166.46C143.126 168.716 142.258 170.943 141.408 173.169C140.558 175.396 139.612 177.593 138.679 179.783C137.745 181.974 136.763 184.158 135.752 186.307Z" fill="#263238"/>
<path d="M113.199 151.832C114.45 142.771 117.006 130.13 120.244 127.479C123.643 124.701 135.991 115.406 139.552 114.174C143.113 112.941 159.01 106.89 161.931 108.577C164.271 109.93 161.5 116.077 153.94 119.028C147.291 121.613 143.867 124.031 141.97 124.851C140.073 125.671 135.386 131.967 136.643 134.745C137.391 136.379 142.156 138.3 145.118 136.959C148.081 135.618 148.811 129.777 152.193 126.994C155.574 124.211 161.548 124.564 161.895 126.174C162.242 127.784 160.267 128.538 157.214 134.02C155.251 137.54 155.119 145.991 150.667 152.06C148.428 155.106 144.544 163.21 144.544 163.21L113.199 151.832Z" fill="#D3766A"/>
<path d="M155.353 124.492C156.446 124.334 157.471 123.869 158.31 123.151C158.648 122.827 158.883 122.411 158.986 121.954C159.025 121.704 159.025 121.45 158.986 121.2C158.978 120.933 158.876 120.676 158.699 120.476C158.639 120.434 158.729 120.362 158.759 120.422C158.84 120.548 158.93 120.668 159.028 120.781C159.098 120.888 159.156 121.003 159.202 121.122C159.291 121.359 159.334 121.611 159.328 121.864C159.304 122.418 159.093 122.948 158.729 123.367C158.292 123.814 157.758 124.154 157.169 124.362C156.579 124.57 155.95 124.639 155.329 124.564C155.317 124.582 155.317 124.504 155.353 124.492Z" fill="#263238"/>
<path d="M120.245 127.478C123.124 122.96 130.491 114.796 137.793 111.995C142.725 110.097 159.711 118.357 159.22 121.601C158.729 124.845 155.827 124.863 151.529 124.354C149.967 124.169 141.69 121.2 140.277 122.936C138.254 125.437 135.68 133.966 135.68 133.966L120.245 127.478Z" fill="#D3766A"/>
<path d="M158.795 120.332C156.694 116.861 152.086 115.011 147.495 113.551C147.423 113.551 147.381 113.635 147.453 113.659C148.62 114.03 156.102 117.465 158.747 120.392C158.777 120.422 158.819 120.368 158.795 120.332Z" fill="#263238"/>
<path d="M120.245 127.479C123.124 122.96 130.491 114.796 137.793 111.995C142.725 110.098 156.168 120.667 155.671 123.917C155.174 127.167 151.014 127.425 146.406 125.827C144.916 125.306 139.924 121.799 138.511 123.534C136.488 126.03 131.551 132.231 131.551 132.231L120.245 127.479Z" fill="#D3766A"/>
<path d="M134.369 128.376C134.836 127.664 134.968 127.413 135.464 126.706C135.961 126 136.422 125.306 136.949 124.642C137.358 124.022 137.872 123.479 138.469 123.037C139.086 122.686 139.799 122.543 140.504 122.631C142.102 122.78 143.544 123.792 144.903 124.57C146.417 125.438 149.553 126.844 151.959 126.587C152.621 126.548 153.267 126.373 153.857 126.072C154.304 125.867 154.692 125.555 154.988 125.162C156.029 123.367 154.725 121.38 153.396 119.949C150.912 117.286 147.572 115.359 144.334 113.772C143.538 113.383 142.736 113.018 141.94 112.647C141.039 112.166 140.045 111.882 139.025 111.815C137.356 111.815 134.62 113.503 133.776 114.018C133.711 114.054 133.663 113.952 133.723 113.91C134.752 113.27 137.314 111.187 139.983 111.319C140.967 111.467 141.917 111.787 142.79 112.264C143.73 112.665 144.658 113.102 145.573 113.557C147.36 114.435 149.077 115.45 150.709 116.591C152.241 117.687 153.875 118.986 154.898 120.56C155.375 121.256 155.655 122.069 155.708 122.912C155.761 123.755 155.584 124.597 155.197 125.348C154.461 126.545 152.887 126.868 152.169 126.964C151.464 127.057 150.749 127.057 150.044 126.964C148.474 126.625 146.93 126.175 145.424 125.617C143.963 125.019 142.647 124.049 141.144 123.594C140.789 123.473 140.414 123.423 140.04 123.449C139.666 123.475 139.3 123.575 138.966 123.744C138.352 124.154 137.803 124.655 137.338 125.228C136.333 126.216 135.423 127.296 134.62 128.454C134.423 128.789 134.201 128.688 134.369 128.376Z" fill="#263238"/>
<path d="M118.113 131.429C119.166 129.274 120.944 120.404 122.656 117.663C124.368 114.922 132.172 105.531 135.823 105.938C140.414 106.447 135.638 114.712 133.238 118.118C130.838 121.523 131.251 127.311 131.251 127.311L118.113 131.429Z" fill="#D3766A"/>
<path d="M136.583 112.498C135.727 113.575 134.973 114.772 134.23 115.927C133.466 117.001 132.782 118.129 132.183 119.303C131.681 120.504 131.38 121.78 131.292 123.079C131.232 123.72 131.214 124.354 131.208 124.995C131.202 125.635 131.268 126.401 131.256 127.096C131.253 127.104 131.252 127.114 131.254 127.123C131.255 127.133 131.259 127.142 131.264 127.149C131.27 127.157 131.277 127.163 131.285 127.168C131.294 127.172 131.303 127.174 131.313 127.174C131.322 127.174 131.331 127.172 131.34 127.168C131.348 127.163 131.356 127.157 131.361 127.149C131.367 127.142 131.37 127.133 131.372 127.123C131.373 127.114 131.372 127.104 131.369 127.096C131.451 125.819 131.617 124.549 131.866 123.295C132.089 121.99 132.473 120.717 133.009 119.506C134.081 117.112 135.649 114.958 136.738 112.569C136.762 112.48 136.642 112.42 136.583 112.498Z" fill="#263238"/>
<path d="M131.304 128.304C131.371 129.379 131.595 130.437 131.969 131.447C132.309 132.472 132.721 133.472 133.202 134.439C133.666 135.405 134.184 136.344 134.752 137.252C135.303 138.168 135.949 138.994 136.625 139.868C138.001 141.574 139.098 143.487 139.875 145.536C140.604 147.585 140.968 149.747 140.953 151.922C140.753 149.779 140.25 147.675 139.456 145.673C138.605 143.707 137.492 141.865 136.146 140.197C135.462 139.349 134.831 138.459 134.255 137.534C133.693 136.596 133.193 135.622 132.759 134.619C131.933 132.626 131.167 130.495 131.304 128.304Z" fill="#263238"/>
<path d="M164.05 115.64C164.179 117.046 164.379 118.444 164.649 119.829C164.861 121.091 165.188 122.331 165.624 123.534C166.48 125.695 168.114 127.724 170.634 128.281C171.806 128.505 173.011 128.492 174.178 128.243C175.345 127.993 176.45 127.511 177.427 126.826C179.516 125.45 181.144 123.498 182.634 121.601C183.564 120.428 184.436 119.219 185.25 117.974C185.657 117.34 186.076 116.717 186.447 116.065C186.818 115.412 187.171 114.754 187.59 114.132C187.626 114.078 187.734 114.132 187.704 114.173C186.89 115.646 184.448 120.314 183.634 121.469C182.144 123.576 180.522 125.725 178.361 127.281C176.291 128.856 173.69 129.564 171.107 129.256C169.869 129.062 168.701 128.555 167.715 127.783C166.728 127.011 165.955 126 165.469 124.845C164.897 123.466 164.532 122.01 164.385 120.524C164.182 118.896 164.074 117.256 164.002 115.622C164.014 115.622 164.05 115.622 164.05 115.64Z" fill="#263238"/>
<path d="M172.675 124.217C178.169 124.067 184.944 113.826 186.752 106.506C186.871 106.004 180.395 88.9639 179.462 85.4506C179.258 84.7323 158.831 96.6548 158.831 96.6548C158.831 96.6548 162.955 103.436 164.541 109.565C164.666 110.08 167.36 124.36 172.675 124.217Z" fill="#D3766A"/>
<path d="M158.831 96.6549C158.831 96.6549 162.955 103.436 164.541 109.571C164.541 109.691 164.744 110.582 165.061 111.875C175.278 108.122 180.24 99.9048 182.514 94.3805C181.12 90.5141 179.833 86.8811 179.462 85.4626C179.258 84.7324 158.831 96.6549 158.831 96.6549Z" fill="#263238"/>
<path d="M147.099 56.9432C145.789 57.1646 141.389 67.6148 142.03 72.1874C142.67 76.7601 145.657 85.6182 147.022 85.5763C148.386 85.5344 148.135 56.7696 147.099 56.9432Z" fill="#263238"/>
<path d="M178.534 60.9951C183.047 68.1354 185.088 91.7649 180.928 98.3007C174.877 107.775 161.895 112.067 153.067 104.112C144.502 96.3915 142.383 65.5498 147.333 59.2953C154.611 50.0841 171.867 50.4492 178.534 60.9951Z" fill="#D3766A"/>
<path d="M161.554 76.0836C162.25 76.1813 162.951 76.2433 163.654 76.2692C164.462 76.329 165.103 76.4667 165.839 76.0537C166.034 75.9128 166.177 75.7116 166.246 75.4812C166.316 75.2507 166.307 75.0039 166.222 74.7789C165.803 73.8392 164.833 73.516 163.864 73.4023C162.892 73.2497 161.898 73.463 161.075 74.0008C160.89 74.1346 160.749 74.3197 160.67 74.5331C160.59 74.7464 160.574 74.9786 160.625 75.2006C160.676 75.4226 160.792 75.6247 160.957 75.7817C161.122 75.9388 161.329 76.0438 161.554 76.0836Z" fill="#263238"/>
<path d="M162.499 81.243C162.499 81.1772 162.631 81.3029 162.637 81.3687C162.751 82.9668 163.152 84.7743 164.642 85.1573C164.69 85.1573 164.696 85.2471 164.642 85.2471C162.834 85.1813 162.326 82.7692 162.499 81.243Z" fill="#263238"/>
<path d="M163.727 79.4353C166.271 78.9745 166.995 84.0918 164.643 84.5108C162.291 84.9297 161.602 79.8184 163.727 79.4353Z" fill="#263238"/>
<path d="M153.33 82.2903C153.33 82.2305 153.217 82.3861 153.229 82.4459C153.504 84.026 153.552 85.8754 152.193 86.6056C152.151 86.6056 152.193 86.7074 152.193 86.6954C153.935 86.2226 153.839 83.7627 153.33 82.2903Z" fill="#263238"/>
<path d="M151.679 80.8598C149.105 81.0334 149.632 86.1687 152.014 86.0131C154.396 85.8575 153.839 80.7222 151.679 80.8598Z" fill="#263238"/>
<path d="M149.332 78.1367C149.997 77.8989 150.651 77.6273 151.289 77.3227C152.037 76.9995 152.665 76.82 153.126 76.1257C153.234 75.9098 153.267 75.6647 153.222 75.4279C153.176 75.1911 153.054 74.9758 152.875 74.8149C152.067 74.1745 151.049 74.3421 150.134 74.6892C149.199 75.0122 148.418 75.6715 147.943 76.5387C147.849 76.7417 147.816 76.9674 147.848 77.1887C147.88 77.41 147.974 77.6175 148.121 77.7863C148.268 77.955 148.46 78.0778 148.675 78.14C148.889 78.2022 149.118 78.201 149.332 78.1367Z" fill="#263238"/>
<path d="M165.768 94.195C165.445 94.6199 165.169 95.1825 164.571 95.3142C163.98 95.388 163.38 95.3349 162.811 95.1586C162.805 95.1546 162.799 95.1519 162.792 95.1505C162.785 95.1492 162.778 95.1492 162.771 95.1506C162.764 95.152 162.757 95.1547 162.751 95.1586C162.745 95.1626 162.74 95.1676 162.736 95.1735C162.732 95.1794 162.73 95.186 162.728 95.193C162.727 95.1999 162.727 95.2071 162.728 95.214C162.73 95.221 162.732 95.2276 162.736 95.2335C162.74 95.2394 162.745 95.2444 162.751 95.2483C163.02 95.5325 163.36 95.7384 163.737 95.8438C164.113 95.9492 164.511 95.9503 164.888 95.8469C165.198 95.717 165.463 95.4983 165.65 95.2182C165.836 94.9381 165.936 94.6092 165.935 94.2728C165.941 94.1531 165.816 94.1351 165.768 94.195Z" fill="#263238"/>
<path d="M163.434 89.6881C163.121 90.3726 162.669 90.9849 162.108 91.4865C161.546 91.9881 160.887 92.3682 160.172 92.6028C159.55 92.815 158.901 92.9379 158.245 92.9679C158.119 92.9798 157.993 92.9798 157.868 92.9679C157.75 92.9739 157.632 92.9739 157.515 92.9679C157.427 92.9636 157.344 92.9309 157.277 92.8747C157.21 92.8185 157.163 92.7419 157.143 92.6567C157.138 92.603 157.138 92.5488 157.143 92.4951V92.3575C156.934 91.1604 156.79 89.2691 156.79 89.2691C156.377 89.5564 154.247 90.8971 154.193 90.2566C153.762 84.9358 153.277 79.0225 153.965 73.6418C153.972 73.6079 153.991 73.5775 154.017 73.5557C154.044 73.5338 154.077 73.5219 154.112 73.5219C154.147 73.5219 154.18 73.5338 154.207 73.5557C154.233 73.5775 154.252 73.6079 154.259 73.6418C154.857 78.7411 154.6 83.9123 155.144 89.0357C155.899 88.5452 156.719 88.1643 157.58 87.9045C157.76 87.9045 157.796 91.4956 157.934 92.0642C157.929 92.0819 157.929 92.1003 157.934 92.118C160.016 92.118 161.477 91.2502 163.266 89.5923C163.368 89.4726 163.506 89.5504 163.434 89.6881Z" fill="#263238"/>
<path d="M181.304 81.2788C177.187 82.2065 174.517 77.8433 172.219 71.5529C170.872 67.872 170.866 60.181 170.866 60.181C170.866 60.181 160.883 66.5972 154.772 66.8725C148.661 67.1478 142.802 62.641 142.443 57.8947C142.137 53.7949 148.284 47.5942 157.25 46.0021C163.504 44.8949 174.804 48.5159 180.401 54.6507C180.401 54.6507 188.822 57.374 188.445 63.5088C188.068 69.6436 185.979 80.2254 181.304 81.2788Z" fill="#263238"/>
<path d="M180.947 80.8419C175.614 82.7392 171.604 74.8567 170.892 70.5773C170.149 66.1183 171.263 61.3601 171.454 56.8892H171.418C170.269 62.4374 169.156 69.4102 171.706 74.7071C173.31 78.0468 176.643 83.4754 181.054 81.1352C181.204 81.0514 181.114 80.782 180.947 80.8419Z" fill="#263238"/>
<path d="M189.433 61.5217C188.17 57.9306 183.484 54.8722 179.857 54.4832C179.821 54.4832 179.809 54.537 179.857 54.543C184.274 55.5126 189.804 59.7202 189.128 64.6221C188.583 68.5364 187.434 73.7495 185.261 77.0892C185.207 77.173 185.333 77.2508 185.393 77.173C187.152 74.8807 187.685 72.1215 188.385 69.3923C188.966 66.9802 190.283 64.0056 189.433 61.5217Z" fill="#263238"/>
<path d="M181.276 55.0817C175.362 48.6177 163.553 41.9622 154.695 45.3737C154.695 45.3737 154.695 45.4276 154.695 45.4156C164.212 42.6325 174.087 49.7249 180.976 55.4228C181.192 55.5904 181.443 55.2612 181.276 55.0817Z" fill="#263238"/>
<path d="M178.66 81.8833C178.66 81.8833 181.862 73.2467 185.657 74.1984C189.451 75.15 188.374 86.7673 184.861 89.2032C184.432 89.5503 183.938 89.8072 183.407 89.9585C182.877 90.1098 182.321 90.1523 181.774 90.0836C181.227 90.0148 180.699 89.8362 180.223 89.5584C179.746 89.2806 179.331 88.9094 179.001 88.4671L178.66 81.8833Z" fill="#D3766A"/>
<path d="M185.286 77.5022C185.352 77.5022 185.382 77.562 185.334 77.6039C182.898 79.3995 182.12 82.3263 181.803 85.2111C182.347 84.0141 183.311 83.1462 184.915 83.7567C184.999 83.7866 184.963 83.9183 184.879 83.9183C184.359 83.8918 183.844 84.0265 183.404 84.3039C182.963 84.5814 182.62 84.9881 182.419 85.4685C182.095 86.2753 181.856 87.1138 181.707 87.9703C181.641 88.2516 181.168 88.2336 181.186 87.9284C181.184 87.9065 181.184 87.8844 181.186 87.8626C180.211 84.4151 181.653 78.8429 185.286 77.5022Z" fill="#263238"/>
<path d="M167.714 120.206L180.282 157.68C180.773 158.769 180.282 159.721 179.181 159.804L159.454 161.295C158.852 161.298 158.261 161.131 157.75 160.814C157.238 160.496 156.827 160.04 156.563 159.499L143.994 122.026C143.503 120.931 143.994 119.979 145.096 119.895L164.811 118.381C165.418 118.379 166.013 118.55 166.527 118.873C167.04 119.196 167.452 119.659 167.714 120.206Z" fill="#37474F"/>
<path d="M165.366 120.362L177.935 157.835C178.426 158.925 177.935 159.882 176.834 159.966L157.113 161.48C156.508 161.48 155.915 161.308 155.404 160.985C154.892 160.662 154.483 160.201 154.222 159.655L141.653 122.182C141.156 121.092 141.653 120.141 142.754 120.057L162.499 118.543C163.1 118.546 163.687 118.718 164.195 119.04C164.702 119.362 165.108 119.82 165.366 120.362Z" fill="#455A64"/>
<path d="M160.104 122.523C160.137 122.854 160.267 123.168 160.478 123.425C160.689 123.683 160.971 123.872 161.289 123.968C161.608 124.065 161.948 124.065 162.266 123.968C162.585 123.872 162.867 123.683 163.078 123.426C163.289 123.169 163.419 122.855 163.452 122.524C163.485 122.193 163.418 121.859 163.261 121.566C163.105 121.273 162.864 121.032 162.571 120.875C162.277 120.719 161.944 120.653 161.613 120.685C161.169 120.729 160.761 120.947 160.478 121.292C160.195 121.636 160.061 122.079 160.104 122.523Z" fill="#263238"/>
<path d="M243.502 203.191C234.92 204.442 224.087 197.864 196.016 177.85C192.126 175.061 204.299 142.4 208.585 145.135C214.001 148.588 234.273 163.18 235.62 164.437C247.01 175.061 249.338 202.293 243.502 203.191Z" fill="#D3766A"/>
<path d="M218.659 154.873C218.659 154.873 210.603 143.836 204.576 139.341C196.502 133.356 187.057 131.465 183.029 130.92C174.65 129.783 153.702 132.817 153.492 139.018C153.325 144.632 174.632 140.442 174.632 140.442C174.632 140.442 152.205 141.125 153.247 147.918C154.288 154.711 178.756 148.451 178.756 148.451C178.756 148.451 155.725 149.648 157.909 156.507C159.561 161.672 182.036 157.243 182.036 157.243C182.036 157.243 162.249 158.44 163.715 163.826C165.343 169.776 186.339 166.993 186.339 166.993C192.426 180.04 200.626 183.793 206.79 185.762C208.281 186.235 218.659 154.873 218.659 154.873Z" fill="#D3766A"/>
<path d="M182.4 139.712C179.761 139.712 177.091 139.664 174.464 139.88C171.836 140.095 169.209 140.413 166.611 140.873C160.237 142.011 156.437 143.722 156.676 143.639C162.518 141.753 171.914 140.82 174.548 140.598C177.181 140.377 179.785 140.03 182.412 139.808C182.478 139.802 182.46 139.712 182.4 139.712Z" fill="#263238"/>
<path d="M183.364 149.193C179.994 149.318 176.648 149.319 173.285 149.594C169.921 149.869 166.785 150.426 163.463 150.929C163.206 150.964 163.313 151.09 163.571 151.06C166.905 150.689 170.023 150.605 173.363 150.276C176.702 149.947 180.036 149.48 183.376 149.271C183.448 149.271 183.448 149.193 183.364 149.193Z" fill="#263238"/>
<path d="M185.656 157.183C180.496 157.111 175.331 157.991 170.286 158.979C170.034 159.026 170.19 159.176 170.447 159.14C175.547 158.446 179.539 157.865 185.656 157.345C185.745 157.351 185.763 157.183 185.656 157.183Z" fill="#263238"/>
<path d="M227.887 158.679C230.114 160.146 232.256 161.732 234.333 163.414C235.375 164.246 236.374 165.131 237.326 166.065C238.312 166.993 239.178 168.041 239.905 169.183C241.288 171.482 242.448 173.907 243.371 176.425C244.329 178.922 245.007 181.518 245.394 184.164C245.107 182.866 244.747 181.585 244.317 180.328C243.904 179.065 243.449 177.82 242.94 176.593C241.967 174.132 240.781 171.761 239.397 169.506C238.714 168.388 237.889 167.362 236.943 166.454C236.015 165.514 235.016 164.658 234.022 163.761C233.028 162.863 231.999 162.037 230.97 161.193C229.94 160.349 228.935 159.499 227.887 158.679Z" fill="#263238"/>
<path d="M142.909 41.3696C142.909 41.3696 140.449 61.0609 136.403 65.4959C131.549 70.8108 128.024 70.0327 126.067 72.7739C124.103 70.0267 120.584 70.8108 115.724 65.4899C111.684 61.0609 109.23 41.3696 109.23 41.3696C119.884 36.1984 126.073 30.3988 126.073 30.3988C126.258 30.5843 132.417 36.2763 142.909 41.3696Z" fill="#92E3A9"/>
<path opacity="0.2" d="M126.067 30.4048V72.7739C124.103 70.0267 120.584 70.8108 115.724 65.4899C111.684 61.0609 109.23 41.3696 109.23 41.3696C119.884 36.1984 126.073 30.3988 126.073 30.3988L126.067 30.4048Z" fill="black"/>
<path opacity="0.1" d="M142.907 41.3696C142.907 41.3696 140.448 61.0609 136.402 65.4959C131.548 70.8108 128.022 70.0327 126.065 72.7739V30.4048C126.257 30.5843 132.415 36.2763 142.907 41.3696Z" fill="black"/>
<path d="M140.292 42.9558C140.292 42.9558 138.215 59.5946 134.798 63.3354C130.698 67.8362 127.717 67.1719 126.065 69.4881C124.408 67.1719 121.433 67.8362 117.327 63.3354C113.909 59.5946 111.839 42.9558 111.839 42.9558C120.816 38.5866 126.065 33.6907 126.065 33.6907C126.065 33.6907 131.29 38.5986 140.292 42.9558Z" fill="#92E3A9"/>
<path opacity="0.1" d="M126.067 33.6967V69.4881C124.415 67.1719 121.434 67.8302 117.334 63.3354C113.917 59.5886 111.846 42.9498 111.846 42.9498C120.823 38.5806 126.067 33.6848 126.067 33.6848V33.6967Z" fill="black"/>
<path d="M132.44 48.4203H119.691V59.9837H132.44V48.4203Z" fill="white"/>
<path d="M131.166 51.9934H129.867V46.8282C129.867 45.8202 129.466 44.8535 128.754 44.1407C128.041 43.428 127.074 43.0276 126.066 43.0276C125.058 43.0276 124.092 43.428 123.379 44.1407C122.666 44.8535 122.266 45.8202 122.266 46.8282V51.9934H120.967V46.8282C120.919 46.1307 121.015 45.4309 121.249 44.7721C121.483 44.1134 121.85 43.5098 122.327 42.9988C122.804 42.4878 123.381 42.0804 124.022 41.8019C124.664 41.5233 125.355 41.3796 126.054 41.3796C126.753 41.3796 127.445 41.5233 128.086 41.8019C128.727 42.0804 129.304 42.4878 129.781 42.9988C130.259 43.5098 130.625 44.1134 130.859 44.7721C131.093 45.4309 131.189 46.1307 131.142 46.8282L131.166 51.9934Z" fill="white"/>
<path d="M126.466 54.3995L126.879 56.3506H125.131L125.544 54.3995C125.383 54.2993 125.259 54.1492 125.19 53.972C125.122 53.7948 125.113 53.6001 125.165 53.4174C125.217 53.2347 125.327 53.074 125.479 52.9596C125.63 52.8451 125.815 52.7832 126.005 52.7832C126.195 52.7832 126.38 52.8451 126.532 52.9596C126.683 53.074 126.793 53.2347 126.846 53.4174C126.898 53.6001 126.889 53.7948 126.82 53.972C126.752 54.1492 126.627 54.2993 126.466 54.3995Z" fill="#37474F"/>
<path d="M126.288 119.255H123.739V118.8H126.067V118.956H126.288V119.255ZM121.345 119.255H118.951V118.8H121.345V119.255ZM116.556 119.255H114.162V118.8H116.556V119.255ZM111.768 119.255H109.374V118.8H111.768V119.255ZM126.288 116.568H125.84V114.173H126.288V116.568ZM126.288 111.779H125.84V109.385H126.288V111.779ZM126.288 106.991H125.84V104.597H126.288V106.991ZM126.288 102.203H125.84V99.809H126.288V102.203ZM126.288 97.415H125.84V95.0209H126.288V97.415ZM126.288 92.6268H125.84V90.2327H126.288V92.6268ZM126.288 87.8387H125.84V85.4446H126.288V87.8387ZM126.288 83.0505H125.84V80.6564H126.288V83.0505ZM126.288 78.2624H125.84V75.8683H126.288V78.2624Z" fill="#92E3A9"/>
<path d="M127.077 75.3776C127.077 75.1775 127.018 74.982 126.906 74.8156C126.795 74.6493 126.637 74.5196 126.453 74.4431C126.268 74.3665 126.064 74.3465 125.868 74.3855C125.672 74.4246 125.492 74.5209 125.35 74.6623C125.209 74.8038 125.112 74.984 125.073 75.1803C125.034 75.3765 125.054 75.5798 125.131 75.7647C125.208 75.9495 125.337 76.1075 125.503 76.2186C125.67 76.3298 125.865 76.3891 126.065 76.3891C126.334 76.3891 126.591 76.2825 126.781 76.0928C126.97 75.9031 127.077 75.6458 127.077 75.3776Z" fill="#92E3A9"/>
<path d="M38.9339 48.6716H8.22388V9.24719H31.0274L38.9339 16.7646V48.6716Z" fill="#EBEBEB"/>
<path d="M31.0261 9.24719L38.9326 16.7646H31.0261V9.24719Z" fill="#DBDBDB"/>
<path d="M11.2224 16.8723L28.2981 16.8723V15.8608L11.2224 15.8608V16.8723Z" fill="#DBDBDB"/>
<path d="M11.2224 19.428L28.2981 19.428V18.4165L11.2224 18.4165V19.428Z" fill="#DBDBDB"/>
<path d="M11.2224 21.9897L28.2981 21.9897V20.9783L11.2224 20.9783V21.9897Z" fill="#DBDBDB"/>
<path d="M11.2219 24.5453L36.24 24.5453V23.5338L11.2219 23.5338V24.5453Z" fill="#DBDBDB"/>
<path d="M11.2219 27.1011L36.24 27.1011V26.0896L11.2219 26.0896V27.1011Z" fill="#DBDBDB"/>
<path d="M11.2219 29.6567L36.24 29.6567V28.6452L11.2219 28.6452V29.6567Z" fill="#DBDBDB"/>
<path d="M11.2219 32.2123H36.24V31.2008L11.2219 31.2008V32.2123Z" fill="#DBDBDB"/>
<path d="M11.2219 34.762H36.24V33.7505H11.2219V34.762Z" fill="#DBDBDB"/>
<path d="M11.2219 37.3179H36.24V36.3064H11.2219V37.3179Z" fill="#DBDBDB"/>
<path d="M11.2219 39.8733H36.24V38.8618H11.2219V39.8733Z" fill="#DBDBDB"/>
<path d="M11.2219 42.4291H36.24V41.4176H11.2219V42.4291Z" fill="#DBDBDB"/>
<path d="M11.2219 44.9849H36.24V43.9734H11.2219V44.9849Z" fill="#DBDBDB"/>
<path d="M41.0084 52.26C43.7543 51.1153 45.0524 47.9613 43.9077 45.2154C42.763 42.4695 39.609 41.1714 36.8631 42.3161C34.1171 43.4608 32.8191 46.6148 33.9638 49.3607C35.1085 52.1067 38.2625 53.4047 41.0084 52.26Z" fill="#263238"/>
<path d="M41.6032 45.9304H36.2644V50.7784H41.6032V45.9304Z" fill="white"/>
<path d="M41.0698 47.4207H40.5252V45.26C40.5252 44.8378 40.3574 44.4328 40.0588 44.1343C39.7603 43.8357 39.3553 43.6679 38.9331 43.6679C38.5109 43.6679 38.1059 43.8357 37.8073 44.1343C37.5088 44.4328 37.341 44.8378 37.341 45.26V47.4207H36.8083V45.26C36.8083 44.6933 37.0335 44.1498 37.4342 43.7491C37.8349 43.3484 38.3784 43.1233 38.9451 43.1233C39.5118 43.1233 40.0552 43.3484 40.4559 43.7491C40.8567 44.1498 41.0818 44.6933 41.0818 45.26L41.0698 47.4207Z" fill="white"/>
<path d="M39.1602 48.4083L39.3817 49.4736H38.436L38.6575 48.4083C38.5706 48.3537 38.5038 48.2724 38.4672 48.1766C38.4306 48.0807 38.4261 47.9756 38.4545 47.877C38.4829 47.7784 38.5425 47.6917 38.6245 47.63C38.7065 47.5683 38.8063 47.535 38.9089 47.535C39.0115 47.535 39.1113 47.5683 39.1932 47.63C39.2752 47.6917 39.3349 47.7784 39.3632 47.877C39.3916 47.9756 39.3872 48.0807 39.3505 48.1766C39.3139 48.2724 39.2471 48.3537 39.1602 48.4083Z" fill="#263238"/>
<path d="M59.9776 69.2845H59.5526V66.8905H60.0015L59.9776 69.2845ZM59.9776 64.4964H59.5526V62.1023H60.0015L59.9776 64.4964ZM59.9776 59.7083H59.5526V57.3142H60.0015L59.9776 59.7083ZM59.9776 54.9201H59.5526V52.526H60.0015L59.9776 54.9201ZM59.9776 50.1319H59.5526V47.7379H60.0015L59.9776 50.1319ZM59.9776 45.3438H59.5526V42.9497H60.0015L59.9776 45.3438ZM59.9776 40.5557H59.5526V38.1616H60.0015L59.9776 40.5557ZM59.9776 35.7675H59.5526V33.3734H60.0015L59.9776 35.7675ZM57.7571 33.2118H55.363V32.7629H57.7571V33.2118ZM52.9689 33.2118H50.5748V32.7629H52.9689V33.2118ZM48.1808 33.2118H45.7867V32.7629H48.1808V33.2118ZM43.3926 33.2118H42.3572V32.7629H43.3926V33.2118Z" fill="#92E3A9"/>
<path d="M42.3818 32.0148C42.1793 32.0137 41.9811 32.073 41.8125 32.1852C41.6439 32.2974 41.5126 32.4573 41.4354 32.6445C41.3583 32.8317 41.3387 33.0377 41.3793 33.2361C41.4198 33.4345 41.5187 33.6163 41.6631 33.7582C41.8076 33.9001 41.9911 33.9957 42.1902 34.0327C42.3893 34.0697 42.5949 34.0464 42.7807 33.9659C42.9665 33.8854 43.1241 33.7512 43.2332 33.5807C43.3423 33.4101 43.3981 33.2108 43.3933 33.0084C43.3871 32.7437 43.278 32.4919 43.0891 32.3064C42.9003 32.1209 42.6465 32.0163 42.3818 32.0148Z" fill="#92E3A9"/>
<path d="M77.1856 202.419H75.7791V201.994H77.1856V202.419ZM73.385 202.419H70.9909V201.994H73.385V202.419ZM68.5968 202.419H66.2028V201.994H68.5968V202.419ZM63.8087 202.419H61.4146V201.994H63.8087V202.419ZM59.9782 201.462H59.5532V199.067H60.0021L59.9782 201.462ZM59.9782 196.673H59.5532V194.279H60.0021L59.9782 196.673ZM59.9782 191.885H59.5532V189.491H60.0021L59.9782 191.885ZM59.9782 187.097H59.5532V184.703H60.0021L59.9782 187.097ZM59.9782 182.309H59.5532V179.915H60.0021L59.9782 182.309ZM59.9782 177.521H59.5532V175.127H60.0021L59.9782 177.521ZM59.9782 172.733H59.5532V170.339H60.0021L59.9782 172.733Z" fill="#92E3A9"/>
<path d="M77.1314 203.209C77.69 203.209 78.1429 202.756 78.1429 202.198C78.1429 201.639 77.69 201.186 77.1314 201.186C76.5727 201.186 76.1199 201.639 76.1199 202.198C76.1199 202.756 76.5727 203.209 77.1314 203.209Z" fill="#92E3A9"/>
<path d="M118.915 195.632H80.6692V218.711H118.915V195.632Z" fill="#455A64"/>
<path d="M94.3622 198.535H83.6726V212.205H94.3622V198.535Z" fill="white"/>
<path d="M89.0181 206.537C90.4163 206.537 91.5498 205.403 91.5498 204.005C91.5498 202.607 90.4163 201.473 89.0181 201.473C87.6198 201.473 86.4863 202.607 86.4863 204.005C86.4863 205.403 87.6198 206.537 89.0181 206.537Z" fill="#455A64"/>
<path d="M94.3622 212.205H83.6726C83.6726 212.205 83.9659 209.655 84.4866 208.895C85.0073 208.135 86.3839 207.279 89.0174 207.279C91.6509 207.279 93.0275 208.135 93.5482 208.895C94.0689 209.655 94.3622 212.205 94.3622 212.205Z" fill="#455A64"/>
<path d="M114.723 198.535H97.127V199.199H114.723V198.535Z" fill="white"/>
<path d="M114.723 205.035H97.127V205.699H114.723V205.035Z" fill="white"/>
<path d="M114.723 206.95H97.127V207.614H114.723V206.95Z" fill="white"/>
<path d="M114.723 208.859H97.127V209.523H114.723V208.859Z" fill="white"/>
<path d="M114.723 210.774H97.127V211.439H114.723V210.774Z" fill="white"/>
<path d="M114.723 212.684H97.127V213.348H114.723V212.684Z" fill="white"/>
<path d="M111.378 200.45H97.127V201.114H111.378V200.45Z" fill="white"/>
<path d="M120.986 223.688C123.732 222.544 125.03 219.39 123.886 216.644C122.741 213.898 119.587 212.6 116.841 213.744C114.095 214.889 112.797 218.043 113.942 220.789C115.087 223.535 118.241 224.833 120.986 223.688Z" fill="#263238"/>
<path d="M121.583 217.352H116.244V222.2H121.583V217.352Z" fill="white"/>
<path d="M121.051 218.842H120.506V216.682C120.506 216.26 120.338 215.855 120.04 215.556C119.741 215.257 119.336 215.09 118.914 215.09C118.492 215.09 118.087 215.257 117.788 215.556C117.489 215.855 117.322 216.26 117.322 216.682V218.842H116.777V216.682C116.777 216.115 117.002 215.572 117.403 215.171C117.804 214.77 118.347 214.545 118.914 214.545C119.48 214.545 120.024 214.77 120.425 215.171C120.825 215.572 121.051 216.115 121.051 216.682V218.842Z" fill="white"/>
<path d="M119.142 219.83L119.364 220.895H118.412L118.639 219.83C118.57 219.786 118.513 219.725 118.474 219.653C118.435 219.58 118.416 219.499 118.418 219.417C118.42 219.334 118.444 219.254 118.487 219.184C118.529 219.114 118.59 219.056 118.662 219.016C118.734 218.976 118.815 218.956 118.897 218.957C118.979 218.958 119.06 218.98 119.131 219.022C119.201 219.064 119.26 219.123 119.301 219.195C119.342 219.266 119.363 219.347 119.364 219.429C119.364 219.509 119.343 219.588 119.305 219.658C119.266 219.728 119.21 219.787 119.142 219.83Z" fill="#263238"/>
<path d="M251.665 239.701L220.249 239.844L188.826 239.898L125.988 240L63.1495 239.898L31.7333 239.844L0.311035 239.701L31.7333 239.551L63.1495 239.503L125.988 239.401L188.826 239.503L220.249 239.557L251.665 239.701Z" fill="#263238"/>
</svg>
