<svg width="100" height="100" viewBox="0 0 100 100" fill="none" xmlns="http://www.w3.org/2000/svg">
<mask id="mask0_1147_922" style="mask-type:alpha" maskUnits="userSpaceOnUse" x="0" y="0" width="100" height="100">
<rect width="100" height="100" fill="#D9D9D9"/>
</mask>
<g mask="url(#mask0_1147_922)">
<path d="M44.1644 57.4999L35.2061 48.5416C34.4422 47.7777 33.4699 47.3958 32.2894 47.3958C31.1088 47.3958 30.1366 47.7777 29.3727 48.5416C28.6088 49.3055 28.2269 50.2777 28.2269 51.4583C28.2269 52.6388 28.6088 53.611 29.3727 54.3749L41.2477 66.2499C42.0811 67.0833 43.0533 67.4999 44.1644 67.4999C45.2755 67.4999 46.2477 67.0833 47.0811 66.2499L70.6227 42.7083C71.3866 41.9444 71.7686 40.9721 71.7686 39.7916C71.7686 38.611 71.3866 37.6388 70.6227 36.8749C69.8588 36.111 68.8866 35.7291 67.7061 35.7291C66.5255 35.7291 65.5533 36.111 64.7894 36.8749L44.1644 57.4999ZM49.9977 91.6666C44.2338 91.6666 38.8172 90.5728 33.7477 88.3853C28.6783 86.1978 24.2686 83.2291 20.5186 79.4791C16.7686 75.7291 13.7998 71.3194 11.6123 66.2499C9.4248 61.1805 8.33105 55.7638 8.33105 49.9999C8.33105 44.236 9.4248 38.8194 11.6123 33.7499C13.7998 28.6805 16.7686 24.2708 20.5186 20.5208C24.2686 16.7708 28.6783 13.802 33.7477 11.6145C38.8172 9.427 44.2338 8.33325 49.9977 8.33325C55.7616 8.33325 61.1783 9.427 66.2477 11.6145C71.3172 13.802 75.7269 16.7708 79.4769 20.5208C83.2269 24.2708 86.1956 28.6805 88.3831 33.7499C90.5706 38.8194 91.6644 44.236 91.6644 49.9999C91.6644 55.7638 90.5706 61.1805 88.3831 66.2499C86.1956 71.3194 83.2269 75.7291 79.4769 79.4791C75.7269 83.2291 71.3172 86.1978 66.2477 88.3853C61.1783 90.5728 55.7616 91.6666 49.9977 91.6666Z" fill="#059669"/>
</g>
</svg>
