<svg width="320" height="248" viewBox="0 0 320 248" fill="none" xmlns="http://www.w3.org/2000/svg">
<path d="M284.109 176.446H168.454C167.46 176.444 166.507 176.048 165.804 175.345C165.101 174.642 164.706 173.689 164.704 172.695V4.1959C164.707 3.20287 165.104 2.25156 165.807 1.54997C166.509 0.848383 167.461 0.45359 168.454 0.451904H284.109C285.102 0.45359 286.054 0.848383 286.757 1.54997C287.459 2.25156 287.856 3.20287 287.859 4.1959V172.695C287.858 173.689 287.462 174.642 286.759 175.345C286.056 176.048 285.103 176.444 284.109 176.446ZM168.454 0.611904C167.981 0.60853 167.512 0.698694 167.074 0.877217C166.636 1.05574 166.237 1.3191 165.901 1.65216C165.565 1.98522 165.298 2.3814 165.116 2.81794C164.934 3.25449 164.839 3.72278 164.838 4.1959V172.695C164.838 173.647 165.217 174.561 165.89 175.234C166.563 175.907 167.477 176.286 168.429 176.286H284.109C285.061 176.286 285.974 175.907 286.648 175.234C287.321 174.561 287.699 173.647 287.699 172.695V4.1959C287.699 3.24367 287.321 2.33044 286.648 1.65711C285.974 0.983779 285.061 0.605503 284.109 0.605503L168.454 0.611904Z" fill="#F0F0F0"/>
<path d="M150.714 176.446H35.0336C34.0395 176.444 33.0865 176.048 32.3835 175.345C31.6806 174.642 31.2849 173.689 31.2832 172.695V4.19596C31.2849 3.20181 31.6806 2.24886 32.3835 1.54589C33.0865 0.842924 34.0395 0.447249 35.0336 0.445557H150.714C151.708 0.447249 152.661 0.842924 153.364 1.54589C154.067 2.24886 154.462 3.20181 154.464 4.19596V172.695C154.462 173.689 154.067 174.642 153.364 175.345C152.661 176.048 151.708 176.444 150.714 176.446ZM35.0336 0.611958C34.0825 0.611956 33.1702 0.989352 32.4971 1.6613C31.8239 2.33325 31.4449 3.24483 31.4432 4.19596V172.695C31.4432 173.647 31.8215 174.561 32.4948 175.234C33.1681 175.907 34.0814 176.286 35.0336 176.286H150.714C151.666 176.286 152.579 175.907 153.252 175.234C153.926 174.561 154.304 173.647 154.304 172.695V4.19596C154.304 3.24372 153.926 2.33049 153.252 1.65716C152.579 0.983832 151.666 0.605557 150.714 0.605557L35.0336 0.611958Z" fill="#F0F0F0"/>
<path d="M320 215.53H0V215.69H320V215.53Z" fill="#E0E0E0"/>
<path d="M115.475 16.708L135.68 16.708C136.21 16.708 136.64 16.2782 136.64 15.748V11.1848C136.64 10.6546 136.21 10.2248 135.68 10.2248L115.475 10.2248C114.945 10.2248 114.515 10.6546 114.515 11.1848V15.748C114.515 16.2782 114.945 16.708 115.475 16.708Z" fill="#F0F0F0"/>
<path d="M103.405 24.9705L123.61 24.9705C124.14 24.9705 124.57 24.5407 124.57 24.0105V19.4473C124.57 18.9171 124.14 18.4873 123.61 18.4873L103.405 18.4873C102.875 18.4873 102.445 18.9171 102.445 19.4473V24.0105C102.445 24.5407 102.875 24.9705 103.405 24.9705Z" fill="#F0F0F0"/>
<path d="M61.8689 130.359H41.6641C41.1339 130.359 40.7041 130.789 40.7041 131.319V135.882C40.7041 136.413 41.1339 136.842 41.6641 136.842H61.8689C62.3991 136.842 62.8289 136.413 62.8289 135.882V131.319C62.8289 130.789 62.3991 130.359 61.8689 130.359Z" fill="#F0F0F0"/>
<path d="M73.9392 138.622H53.7344C53.2042 138.622 52.7744 139.051 52.7744 139.582V144.145C52.7744 144.675 53.2042 145.105 53.7344 145.105H73.9392C74.4694 145.105 74.8992 144.675 74.8992 144.145V139.582C74.8992 139.051 74.4694 138.622 73.9392 138.622Z" fill="#F0F0F0"/>
<path d="M199.507 9.33521H179.302C178.772 9.33521 178.342 9.76501 178.342 10.2952V14.8584C178.342 15.3886 178.772 15.8184 179.302 15.8184H199.507C200.037 15.8184 200.467 15.3886 200.467 14.8584V10.2952C200.467 9.76501 200.037 9.33521 199.507 9.33521Z" fill="#F0F0F0"/>
<path d="M223.641 9.33521H203.437C202.906 9.33521 202.477 9.76501 202.477 10.2952V14.8584C202.477 15.3886 202.906 15.8184 203.437 15.8184H223.641C224.172 15.8184 224.601 15.3886 224.601 14.8584V10.2952C224.601 9.76501 224.172 9.33521 223.641 9.33521Z" fill="#F0F0F0"/>
<path d="M211.571 17.5977H191.366C190.836 17.5977 190.406 18.0275 190.406 18.5577V23.1209C190.406 23.651 190.836 24.0809 191.366 24.0809H211.571C212.101 24.0809 212.531 23.651 212.531 23.1209V18.5577C212.531 18.0275 212.101 17.5977 211.571 17.5977Z" fill="#F0F0F0"/>
<path d="M280.435 11.5432H235.43V120.887H280.435V11.5432Z" fill="#F0F0F0"/>
<path d="M277.689 14.2888H238.176V118.142H277.689V14.2888Z" fill="#FAFAFA"/>
<path d="M277.689 18.7368V26.5768L238.176 66.0968V58.2504L277.689 18.7368Z" fill="white"/>
<path d="M277.689 45.8535V56.9127L238.176 96.4263V85.3607L277.689 45.8535Z" fill="white"/>
<path d="M259.296 11.5432H256.576V120.887H259.296V11.5432Z" fill="#F0F0F0"/>
<path d="M280.435 64.8167H235.43V67.6071H280.435V64.8167Z" fill="#F0F0F0"/>
<path d="M85.7089 11.5432H40.7041V120.887H85.7089V11.5432Z" fill="#F0F0F0"/>
<path d="M82.9633 14.2888H43.4497V118.142H82.9633V14.2888Z" fill="#FAFAFA"/>
<path d="M82.9633 18.7368V26.5768L43.4497 66.0968V58.2504L82.9633 18.7368Z" fill="white"/>
<path d="M82.9633 45.8535V56.9127L43.4497 96.4263V85.3607L82.9633 45.8535Z" fill="white"/>
<path d="M64.5633 11.5432H61.8433V120.887H64.5633V11.5432Z" fill="#F0F0F0"/>
<path d="M85.7089 64.8167H40.7041V67.6071H85.7089V64.8167Z" fill="#F0F0F0"/>
<path d="M288.167 172.049L284.57 184.036L284.09 185.642L282.208 191.889C281.954 192.733 281.435 193.474 280.727 194.001C280.019 194.527 279.161 194.812 278.279 194.813H177.075C176.194 194.813 175.336 194.528 174.629 194.001C173.922 193.474 173.404 192.733 173.152 191.889L171.271 185.642L170.784 184.036L167.175 172.049C167.106 171.827 167.091 171.592 167.131 171.363C167.17 171.134 167.262 170.917 167.401 170.73C167.539 170.543 167.719 170.392 167.926 170.287C168.134 170.183 168.363 170.128 168.595 170.129H286.746C286.978 170.128 287.207 170.183 287.415 170.287C287.622 170.392 287.802 170.543 287.941 170.73C288.079 170.917 288.171 171.134 288.21 171.363C288.25 171.592 288.235 171.827 288.167 172.049Z" fill="#F0F0F0"/>
<path d="M284.57 184.004L284.09 185.61H171.271L170.784 184.004H284.57Z" fill="#E0E0E0"/>
<path d="M271.712 202.007H182.131V204.049H271.712V202.007Z" fill="#E0E0E0"/>
<path d="M186.457 194.781L174.042 215.53H179.449L194.867 194.781H186.457Z" fill="#E0E0E0"/>
<path d="M267.769 194.781L280.179 215.53H274.777L259.36 194.781H267.769Z" fill="#E0E0E0"/>
<path d="M265.338 158.103V144.445C265.338 144.404 265.33 144.363 265.314 144.325C265.298 144.287 265.275 144.253 265.246 144.224C265.217 144.195 265.182 144.171 265.144 144.156C265.106 144.14 265.065 144.132 265.024 144.132C264.94 144.132 264.86 144.165 264.8 144.223C264.74 144.282 264.706 144.362 264.704 144.445V158.103H265.338Z" fill="#E0E0E0"/>
<path d="M256.582 159.582L256.89 160.702L256.954 160.945L259.43 170.142H270.618L273.094 160.945L273.158 160.702L273.459 159.582L273.53 159.345L273.862 158.103H256.186L256.518 159.345L256.582 159.582Z" fill="#E0E0E0"/>
<path d="M263.891 148.97C264.069 149.013 264.255 149.002 264.426 148.938C264.597 148.874 264.745 148.761 264.851 148.612C264.923 148.509 264.975 148.394 265.005 148.273C265.011 148.207 265.011 148.14 265.005 148.074C265.003 147.862 264.928 147.656 264.793 147.492C263.584 146.026 257.453 138.935 254.553 141.898C251.123 145.482 260.537 148.151 263.891 148.97Z" fill="#F0F0F0"/>
<path d="M258.47 144.836L264.87 148.612C264.942 148.509 264.994 148.394 265.024 148.273L258.675 144.516C258.633 144.492 258.584 144.486 258.537 144.498C258.491 144.509 258.451 144.539 258.425 144.58C258.411 144.599 258.401 144.622 258.395 144.645C258.389 144.669 258.389 144.694 258.393 144.718C258.397 144.741 258.406 144.764 258.419 144.785C258.433 144.805 258.45 144.822 258.47 144.836Z" fill="#E0E0E0"/>
<path d="M265.024 151.588C265.018 151.652 265.018 151.716 265.024 151.78C265.05 151.903 265.103 152.019 265.178 152.119C265.284 152.268 265.432 152.381 265.603 152.445C265.774 152.509 265.96 152.52 266.138 152.478C269.485 151.658 278.906 148.99 275.431 145.438C272.557 142.468 266.426 149.559 265.191 151.025C265.073 151.188 265.015 151.387 265.024 151.588Z" fill="#F0F0F0"/>
<path d="M265.043 151.78C265.069 151.903 265.121 152.019 265.197 152.119L271.597 148.343C271.617 148.331 271.636 148.315 271.65 148.296C271.665 148.277 271.676 148.255 271.682 148.232C271.687 148.209 271.689 148.184 271.685 148.161C271.682 148.137 271.673 148.114 271.661 148.093C271.636 148.051 271.597 148.021 271.55 148.007C271.503 147.994 271.454 148 271.411 148.023L265.043 151.78Z" fill="#E0E0E0"/>
<path d="M264.326 144.394C264.351 144.606 264.448 144.803 264.601 144.951C264.649 144.996 264.701 145.036 264.755 145.073C264.862 145.138 264.982 145.179 265.107 145.194C265.288 145.221 265.473 145.193 265.637 145.113C265.801 145.033 265.938 144.905 266.029 144.746C267.75 141.758 272.313 133.098 267.309 133.143C263.174 133.175 264.096 142.506 264.326 144.394Z" fill="#F0F0F0"/>
<path d="M264.755 145.073C264.863 145.138 264.983 145.179 265.107 145.194L266.778 137.956C266.788 137.908 266.778 137.857 266.752 137.816C266.726 137.774 266.685 137.744 266.637 137.732C266.59 137.722 266.54 137.732 266.5 137.758C266.459 137.784 266.43 137.826 266.419 137.873L264.755 145.073Z" fill="#E0E0E0"/>
<path d="M263.891 156.516C264.068 156.562 264.256 156.552 264.427 156.488C264.599 156.424 264.747 156.308 264.851 156.158C264.967 156.005 265.028 155.818 265.024 155.626C265.023 155.414 264.949 155.208 264.813 155.044C263.603 153.578 257.472 146.487 254.573 149.45C251.123 153.015 260.537 155.684 263.891 156.516Z" fill="#F0F0F0"/>
<path d="M258.47 152.369L264.87 156.138C264.942 156.038 264.994 155.925 265.024 155.806L258.656 152.036C258.635 152.023 258.613 152.015 258.589 152.012C258.565 152.008 258.541 152.009 258.518 152.015C258.494 152.021 258.472 152.032 258.453 152.046C258.434 152.061 258.418 152.079 258.406 152.1C258.39 152.121 258.379 152.145 258.374 152.171C258.369 152.197 258.369 152.224 258.375 152.25C258.381 152.275 258.393 152.299 258.409 152.32C258.426 152.34 258.447 152.357 258.47 152.369Z" fill="#E0E0E0"/>
<path d="M299.322 243.556C299.322 245.796 237.504 247.614 161.248 247.614C84.9919 247.614 23.1743 245.809 23.1743 243.556C23.1743 241.303 84.9919 239.505 161.248 239.505C237.504 239.505 299.322 241.329 299.322 243.556Z" fill="#F5F5F5"/>
<path d="M197.92 93.5081H107.251C92.3987 93.5081 80.3584 105.547 80.3584 120.398C80.3584 135.248 92.3987 147.287 107.251 147.287H197.92C212.772 147.287 224.813 135.248 224.813 120.398C224.813 105.547 212.772 93.5081 197.92 93.5081Z" fill="#DC2626"/>
<path opacity="0.7" d="M197.92 93.5081H107.251C92.3987 93.5081 80.3584 105.547 80.3584 120.398C80.3584 135.248 92.3987 147.287 107.251 147.287H197.92C212.772 147.287 224.813 135.248 224.813 120.398C224.813 105.547 212.772 93.5081 197.92 93.5081Z" fill="white"/>
<path opacity="0.3" d="M107.245 145.367C100.625 145.367 94.2762 142.738 89.5953 138.057C84.9144 133.376 82.2847 127.027 82.2847 120.407C82.2847 113.787 84.9144 107.439 89.5953 102.758C94.2762 98.077 100.625 95.4473 107.245 95.4473H197.894C201.172 95.4473 204.418 96.0929 207.446 97.3472C210.474 98.6016 213.226 100.44 215.544 102.758C217.861 105.076 219.7 107.827 220.954 110.855C222.209 113.884 222.854 117.129 222.854 120.407C222.854 123.685 222.209 126.931 220.954 129.959C219.7 132.987 217.861 135.739 215.544 138.057C213.226 140.374 210.474 142.213 207.446 143.467C204.418 144.722 201.172 145.367 197.894 145.367H107.245Z" fill="white"/>
<path d="M197.894 144.567C211.245 144.567 222.067 133.745 222.067 120.394C222.067 107.044 211.245 96.2217 197.894 96.2217C184.544 96.2217 173.722 107.044 173.722 120.394C173.722 133.745 184.544 144.567 197.894 144.567Z" fill="#DC2626"/>
<path d="M208.589 127.338C208.835 127.585 209.03 127.877 209.164 128.199C209.297 128.521 209.366 128.865 209.366 129.214C209.366 129.562 209.297 129.907 209.164 130.228C209.03 130.55 208.835 130.843 208.589 131.089C208.343 131.335 208.05 131.53 207.728 131.664C207.407 131.797 207.062 131.866 206.714 131.866C206.365 131.866 206.021 131.797 205.699 131.664C205.377 131.53 205.085 131.335 204.838 131.089L197.894 124.145L190.957 131.089C190.711 131.335 190.418 131.53 190.096 131.664C189.775 131.797 189.43 131.866 189.082 131.866C188.733 131.866 188.389 131.797 188.067 131.664C187.745 131.53 187.453 131.335 187.206 131.089C186.96 130.843 186.765 130.55 186.632 130.228C186.498 129.907 186.43 129.562 186.43 129.214C186.43 128.865 186.498 128.521 186.632 128.199C186.765 127.877 186.96 127.585 187.206 127.338L194.144 120.401L187.206 113.457C186.709 112.959 186.43 112.285 186.43 111.582C186.43 110.878 186.709 110.204 187.206 109.706C187.704 109.209 188.378 108.93 189.082 108.93C189.785 108.93 190.459 109.209 190.957 109.706L197.894 116.65L204.838 109.706C205.336 109.209 206.01 108.93 206.714 108.93C207.417 108.93 208.091 109.209 208.589 109.706C209.086 110.204 209.366 110.878 209.366 111.582C209.366 112.285 209.086 112.959 208.589 113.457L201.651 120.401L208.589 127.338Z" fill="white"/>
<path d="M197.92 33.5591H107.251C92.3987 33.5591 80.3584 45.598 80.3584 60.4487C80.3584 75.2994 92.3987 87.3383 107.251 87.3383H197.92C212.772 87.3383 224.813 75.2994 224.813 60.4487C224.813 45.598 212.772 33.5591 197.92 33.5591Z" fill="#DC2626"/>
<path opacity="0.2" d="M107.245 85.4183C100.625 85.4183 94.2762 82.7886 89.5953 78.1077C84.9144 73.4268 82.2847 67.0781 82.2847 60.4583C82.2847 53.8385 84.9144 47.4898 89.5953 42.8089C94.2762 38.128 100.625 35.4983 107.245 35.4983H197.894C204.514 35.4983 210.863 38.128 215.544 42.8089C220.225 47.4898 222.854 53.8385 222.854 60.4583C222.854 67.0781 220.225 73.4268 215.544 78.1077C210.863 82.7886 204.514 85.4183 197.894 85.4183H107.245Z" fill="black"/>
<path d="M133.453 84.6246C146.803 84.6246 157.625 73.8021 157.625 60.4518C157.625 47.1016 146.803 36.2791 133.453 36.2791C120.102 36.2791 109.28 47.1016 109.28 60.4518C109.28 73.8021 120.102 84.6246 133.453 84.6246Z" fill="#DC2626"/>
<path opacity="0.7" d="M133.453 84.6246C146.803 84.6246 157.625 73.8021 157.625 60.4518C157.625 47.1016 146.803 36.2791 133.453 36.2791C120.102 36.2791 109.28 47.1016 109.28 60.4518C109.28 73.8021 120.102 84.6246 133.453 84.6246Z" fill="white"/>
<path d="M129.229 68.8998C128.645 68.8989 128.084 68.6692 127.667 68.2598L121.677 62.2694C121.472 62.0648 121.31 61.8218 121.199 61.5544C121.088 61.2871 121.031 61.0005 121.031 60.711C121.031 60.4216 121.088 60.135 121.199 59.8676C121.31 59.6002 121.472 59.3573 121.677 59.1526C121.881 58.948 122.124 58.7857 122.392 58.6749C122.659 58.5641 122.946 58.5071 123.235 58.5071C123.525 58.5071 123.811 58.5641 124.079 58.6749C124.346 58.7857 124.589 58.948 124.794 59.1526L129.229 63.5878L142.118 50.6982C142.532 50.2849 143.092 50.0527 143.677 50.0527C144.261 50.0527 144.822 50.2849 145.235 50.6982C145.648 51.1116 145.881 51.6721 145.881 52.2566C145.881 52.8412 145.648 53.4017 145.235 53.815L130.784 68.2598C130.37 68.67 129.811 68.9 129.229 68.8998Z" fill="white"/>
<path d="M96.0132 239.895H87.1108V243.889H96.0132V239.895Z" fill="#263238"/>
<path d="M108.934 218.25L107.654 221.604L107.405 222.282L107.27 222.654L107.059 223.223L106.272 225.374L106.221 225.514L106.093 225.879L105.683 226.993L105.222 228.273L105.069 228.702V228.746L104.845 229.342L103.77 232.286L103.539 232.926L101.376 238.852L101.21 239.3L100.781 240.471C100.626 240.887 100.363 241.254 100.019 241.534C99.8852 241.639 99.7417 241.731 99.5904 241.809C99.297 241.963 98.974 242.052 98.6432 242.071H84.5248C84.3085 242.069 84.0934 242.039 83.8848 241.982C83.7149 241.928 83.55 241.859 83.392 241.777C82.8676 241.503 82.4604 241.048 82.2464 240.497L80.4928 235.697L80.2752 235.102L79.04 231.71L78.8992 231.338L78.8352 231.159L78.624 230.57L77.408 227.236L77.3248 227.031L77.2608 226.865L76.736 225.412L76.4992 224.772L76.3008 224.241L76.1216 223.754L75.9872 223.377L75.9488 223.274L75.3728 221.694V221.655L75.2256 221.265L74.144 218.302L108.934 218.25Z" fill="#263238"/>
<path opacity="0.2" d="M107.68 221.604L107.43 222.282L107.296 222.654L107.091 223.223H75.9296L75.3536 221.642L75.3408 221.604H107.68Z" fill="white"/>
<path opacity="0.2" d="M106.298 225.374L106.246 225.514L106.118 225.879L105.709 226.993H77.3056L77.2416 226.826L76.7168 225.374H106.298Z" fill="white"/>
<path d="M80.5889 203.626C80.5889 203.626 85.4913 201.841 86.7585 207.031C88.0257 212.222 91.6609 210.871 92.3457 209.745C93.7025 207.498 93.8881 199.396 91.5585 198.903C88.7745 198.321 81.5681 201.265 80.5889 203.626Z" fill="#DC2626"/>
<g opacity="0.5">
<path d="M80.5889 203.626C80.5889 203.626 85.4913 201.841 86.7585 207.031C88.0257 212.222 91.6609 210.871 92.3457 209.745C93.7025 207.498 93.8881 199.396 91.5585 198.903C88.7745 198.321 81.5681 201.265 80.5889 203.626Z" fill="black"/>
</g>
<path d="M83.5076 197.214C83.5076 197.214 78.554 195.62 76.7108 200.804C74.8676 205.988 76.7108 218.724 76.7108 218.724C76.7108 218.724 80.9796 217.386 82.362 213.009C83.7444 208.631 83.6036 198.993 91.5588 198.878L83.5076 197.214Z" fill="#DC2626"/>
<path opacity="0.2" d="M84.5186 197.521C80.2178 200.03 79.5202 205.342 79.085 209.841C79.085 210.071 79.4306 210.071 79.4498 209.841C79.8722 205.482 80.5186 200.273 84.7042 197.841C84.7424 197.814 84.7692 197.774 84.7793 197.729C84.7894 197.683 84.782 197.636 84.7586 197.595C84.7353 197.555 84.6976 197.525 84.6531 197.511C84.6087 197.497 84.5606 197.501 84.5186 197.521Z" fill="black"/>
<path d="M100.749 169.636C100.749 169.636 95.9233 167.652 94.4449 172.791C92.9665 177.93 89.4913 177.508 88.8705 175.351C88.1473 172.836 87.6289 164.862 89.9777 164.471C92.7809 164.004 99.8657 167.236 100.749 169.636Z" fill="#DC2626"/>
<g opacity="0.5">
<path d="M100.749 169.636C100.749 169.636 95.9233 167.652 94.4449 172.791C92.9665 177.93 89.4913 177.508 88.8705 175.351C88.1473 172.836 87.6289 164.862 89.9777 164.471C92.7809 164.004 99.8657 167.236 100.749 169.636Z" fill="black"/>
</g>
<path d="M98.0868 163.114C98.0868 163.114 103.104 161.719 104.736 166.954C106.368 172.19 104.007 184.874 104.007 184.874C102.718 184.352 101.562 183.548 100.625 182.52C99.6878 181.492 98.9933 180.267 98.5924 178.935C97.3892 174.5 97.9204 164.855 89.978 164.446L98.0868 163.114Z" fill="#DC2626"/>
<g opacity="0.2">
<path d="M96.6593 163.607C101.235 167.166 101.99 173.246 102.554 178.615C102.554 178.846 102.944 178.852 102.918 178.615C102.349 173.156 101.568 166.967 96.9153 163.345C96.7361 163.204 96.4737 163.46 96.6593 163.607Z" fill="black"/>
</g>
<path d="M105.876 193.457C105.876 193.457 102.868 192.548 99.7059 196.855C96.6659 201.009 95.4499 201.495 93.3891 199.882C91.3283 198.27 92.5763 189.22 94.9059 188.734C97.6899 188.145 104.896 191.076 105.876 193.457Z" fill="#DC2626"/>
<g opacity="0.5">
<path d="M105.876 193.457C105.876 193.457 102.868 192.548 99.7059 196.855C96.6659 201.009 95.4499 201.495 93.3891 199.882C91.3283 198.27 92.5763 189.22 94.9059 188.734C97.6899 188.145 104.896 191.076 105.876 193.457Z" fill="black"/>
</g>
<path d="M105.863 186.289C105.863 186.289 112.903 184.01 115.565 191.409C118.228 198.807 115.565 217.009 115.565 217.009C115.565 217.009 109.472 215.089 107.501 208.842C105.53 202.596 106.036 188.951 94.7012 188.791C96.9604 188.113 101.396 187.236 105.863 186.289Z" fill="#DC2626"/>
<g opacity="0.2">
<path d="M103.911 187.076C106.74 188.576 109.109 190.816 110.764 193.557C112.418 196.299 113.297 199.439 113.306 202.641C113.314 202.683 113.336 202.722 113.37 202.749C113.403 202.777 113.445 202.792 113.488 202.792C113.532 202.792 113.573 202.777 113.607 202.749C113.64 202.722 113.663 202.683 113.671 202.641C113.659 199.373 112.759 196.169 111.068 193.373C109.378 190.576 106.959 188.291 104.071 186.762C103.859 186.654 103.674 186.967 103.885 187.076H103.911Z" fill="black"/>
</g>
<path d="M77.146 181.425C77.146 181.425 82.0484 179.639 83.3156 184.83C84.5828 190.02 90.9956 191.998 91.6356 189.463C92.3332 186.756 90.7908 177.118 88.4356 176.625C85.6644 176.042 78.1252 179.063 77.146 181.425Z" fill="#DC2626"/>
<g opacity="0.5">
<path d="M77.146 181.425C77.146 181.425 82.0484 179.639 83.3156 184.83C84.5828 190.02 90.9956 191.998 91.6356 189.463C92.3332 186.756 90.7908 177.118 88.4356 176.625C85.6644 176.042 78.1252 179.063 77.146 181.425Z" fill="black"/>
</g>
<path d="M77.1586 174.257C77.1586 174.257 70.1186 171.978 67.4562 179.377C64.7938 186.775 67.4562 204.977 67.4562 204.977C67.4562 204.977 73.549 203.057 75.5266 196.817C77.5042 190.577 77.293 176.817 88.653 176.65L77.1586 174.257Z" fill="#DC2626"/>
<path opacity="0.2" d="M80.0001 174.89C76.9409 175.044 74.3233 176.958 72.6145 179.409C70.5281 182.398 69.8177 186.09 69.1265 189.598C69.0817 189.828 69.4337 189.93 69.4785 189.7C70.1185 186.385 70.7905 182.942 72.6273 180.049C74.2465 177.489 76.8897 175.409 80.0001 175.255C80.2305 175.255 80.2305 174.878 80.0001 174.89Z" fill="black"/>
<path d="M91.1619 218.25H92.4035C95.5331 204.996 93.4275 190.801 91.0595 181.13C89.5404 174.8 87.4806 168.612 84.9027 162.634C84.8743 162.555 84.8298 162.482 84.7718 162.421C84.7139 162.36 84.6438 162.311 84.5661 162.279C84.4884 162.246 84.4047 162.23 84.3204 162.231C84.2361 162.232 84.153 162.251 84.0764 162.286C83.9998 162.322 83.9313 162.372 83.8754 162.435C83.8194 162.499 83.7772 162.573 83.7514 162.653C83.7255 162.733 83.7167 162.818 83.7254 162.902C83.7341 162.986 83.7602 163.067 83.8019 163.14C86.3527 169.056 88.3911 175.18 89.8947 181.444C92.2371 191.076 94.3299 205.156 91.1619 218.25Z" fill="#DC2626"/>
<path d="M226.797 227.441V238.558L222.304 238.916L220.103 228.503L226.797 227.441Z" fill="#FF8B7B"/>
<path d="M223.61 237.866C223.61 237.866 222.195 235.159 221.363 235.447C220.531 235.735 220.192 239.025 220.192 239.025C220.192 239.025 215.667 240.535 214.432 240.618C213.197 240.702 212.147 241.412 211.981 243.882H227.437C227.437 243.882 227.335 238.308 227.303 237.354C227.271 236.401 225.914 237.591 225.914 237.591L223.61 237.866Z" fill="#263238"/>
<path d="M227.232 239.473C226.957 239.626 226.715 239.833 226.523 240.082C226.33 240.331 226.191 240.617 226.112 240.922C226.034 241.226 226.018 241.544 226.067 241.855C226.115 242.166 226.226 242.464 226.394 242.731C226.405 242.743 226.413 242.758 226.418 242.774C226.423 242.79 226.424 242.807 226.422 242.823C226.419 242.84 226.414 242.856 226.405 242.87C226.395 242.884 226.383 242.896 226.369 242.905C226.355 242.914 226.339 242.919 226.323 242.922C226.306 242.924 226.289 242.922 226.273 242.917C226.257 242.912 226.243 242.904 226.23 242.893C226.218 242.881 226.208 242.868 226.202 242.852C226.016 242.561 225.892 242.234 225.836 241.894C225.781 241.553 225.794 241.204 225.877 240.868C225.959 240.533 226.109 240.218 226.317 239.942C226.524 239.666 226.785 239.434 227.085 239.262C227.213 239.179 227.36 239.396 227.232 239.473Z" fill="white"/>
<path d="M227.258 242.999L215.136 243.121L212.314 243.153C212.16 243.153 212.128 242.91 212.314 242.91L224.442 242.782L227.258 242.75C227.418 242.75 227.45 242.993 227.29 242.999H227.258Z" fill="white"/>
<path d="M220.858 239.998C220.218 239.243 219.303 239.025 218.605 239.601C218.49 239.691 218.343 239.479 218.458 239.383C219.251 238.743 220.339 239.012 221.056 239.876C221.165 240.004 220.967 240.126 220.858 239.998Z" fill="white"/>
<path d="M219.578 240.401C219.461 240.221 219.308 240.067 219.13 239.948C218.951 239.83 218.75 239.749 218.539 239.711C218.327 239.673 218.111 239.679 217.902 239.729C217.693 239.778 217.497 239.87 217.325 239.998C217.21 240.094 217.062 239.883 217.178 239.787C217.971 239.147 219.059 239.415 219.776 240.273C219.885 240.401 219.686 240.529 219.578 240.401Z" fill="white"/>
<path d="M218.259 240.798C218.141 240.618 217.988 240.464 217.808 240.346C217.629 240.228 217.427 240.148 217.215 240.111C217.004 240.074 216.787 240.08 216.578 240.13C216.369 240.18 216.172 240.272 216 240.401C215.885 240.497 215.738 240.286 215.853 240.19C216.646 239.55 217.734 239.818 218.451 240.676C218.56 240.804 218.362 240.926 218.259 240.798Z" fill="white"/>
<path d="M229.491 117.246C229.363 119.23 229.639 125.323 229.37 128.593C228.864 134.827 228.186 142.91 227.648 150.993C227.008 160.369 226.573 169.758 226.797 176.273C227.373 193.003 227.245 230.916 227.245 230.916H219.987C219.987 230.916 211.463 193.233 209.869 176.273C208.538 162.193 209.229 125.988 209.466 117.233L229.491 117.246Z" fill="#DC2626"/>
<path opacity="0.3" d="M229.491 117.246C229.363 119.23 229.639 125.323 229.37 128.593C228.864 134.827 228.186 142.91 227.648 150.993C227.008 160.369 226.573 169.758 226.797 176.273C227.373 193.003 227.245 230.916 227.245 230.916H219.987C219.987 230.916 211.463 193.233 209.869 176.273C208.538 162.193 209.229 125.988 209.466 117.233L229.491 117.246Z" fill="white"/>
<path opacity="0.2" d="M229.37 128.593C228.864 134.827 228.186 142.91 227.648 150.993C224.077 140.42 227.392 124.446 227.392 124.446L229.37 128.593Z" fill="black"/>
<path d="M227.872 231.185H219.354L218.733 228.471L228.096 228.356L227.872 231.185Z" fill="#DC2626"/>
<path d="M266.867 225.367L268.563 236.356L264.179 237.393L260.416 227.441L266.867 225.367Z" fill="#FF8B7B"/>
<path d="M265.306 236.158C265.306 236.158 263.501 233.694 262.746 234.11C261.99 234.526 262.106 237.822 262.106 237.822C262.106 237.822 257.862 240.011 256.627 240.279C255.392 240.548 254.49 241.419 254.707 243.883L269.978 241.527C269.978 241.527 269.024 236.03 268.851 235.089C268.678 234.148 267.514 235.537 267.514 235.537L265.306 236.158Z" fill="#263238"/>
<path d="M269.139 237.188C268.89 237.38 268.682 237.621 268.529 237.897C268.376 238.172 268.281 238.476 268.25 238.79C268.219 239.103 268.252 239.42 268.348 239.72C268.444 240.02 268.6 240.298 268.806 240.535C268.909 240.67 268.736 240.823 268.627 240.689C268.399 240.429 268.226 240.125 268.119 239.796C268.012 239.467 267.972 239.12 268.003 238.776C268.033 238.431 268.133 238.097 268.297 237.792C268.46 237.487 268.684 237.218 268.954 237.002C269.069 236.906 269.248 237.092 269.139 237.188Z" fill="white"/>
<path d="M269.696 240.67L257.734 242.647L254.957 243.108C254.797 243.108 254.733 242.89 254.886 242.865L266.848 240.894L269.626 240.433C269.786 240.433 269.85 240.644 269.696 240.67Z" fill="white"/>
<path d="M262.918 238.679C262.774 238.52 262.599 238.392 262.404 238.303C262.208 238.215 261.997 238.166 261.782 238.162C261.568 238.158 261.355 238.198 261.156 238.279C260.957 238.36 260.777 238.481 260.627 238.634C260.531 238.743 260.345 238.558 260.448 238.449C261.133 237.681 262.246 237.809 263.091 238.532C263.219 238.641 263.04 238.794 262.918 238.679Z" fill="white"/>
<path d="M261.715 239.275C261.572 239.115 261.397 238.987 261.202 238.897C261.007 238.808 260.795 238.759 260.581 238.754C260.366 238.75 260.153 238.789 259.954 238.869C259.755 238.95 259.575 239.07 259.424 239.223C259.328 239.339 259.142 239.147 259.245 239.038C259.93 238.27 261.043 238.398 261.888 239.121C262.016 239.236 261.837 239.383 261.715 239.275Z" fill="white"/>
<path d="M260.467 239.876C260.324 239.716 260.149 239.587 259.954 239.497C259.759 239.407 259.547 239.358 259.333 239.353C259.118 239.348 258.904 239.388 258.705 239.469C258.506 239.55 258.326 239.671 258.176 239.825C258.08 239.934 257.894 239.748 257.997 239.639C258.682 238.871 259.802 238.999 260.64 239.722C260.768 239.831 260.589 239.985 260.467 239.876Z" fill="white"/>
<path d="M241.306 177.751C245.786 194.18 260.871 229.719 260.871 229.719L268.019 228.471C268.019 228.471 260.57 191.499 257.139 175.121C254.042 160.337 250.637 126.385 249.536 116.273L225.536 118.436C226.816 127.095 237.581 164.119 241.306 177.751Z" fill="#DC2626"/>
<path opacity="0.3" d="M241.306 177.751C245.786 194.18 260.871 229.719 260.871 229.719L268.019 228.471C268.019 228.471 260.57 191.499 257.139 175.121C254.042 160.337 250.637 126.385 249.536 116.273L225.536 118.436C226.816 127.095 237.581 164.119 241.306 177.751Z" fill="white"/>
<path d="M268.685 228.625L260.294 230.084L259.213 227.518L268.563 225.809L268.685 228.625Z" fill="#DC2626"/>
<path d="M250.938 116.273C250.926 116.848 250.71 117.4 250.329 117.832C249.948 118.263 249.427 118.545 248.858 118.628L210.567 120.395C209.447 120.446 208.135 119.678 208.167 118.558C208.551 105.348 211.629 59.9017 212.647 57.0345C213.927 53.5145 221.011 52.2473 224.109 51.9657C228.997 51.6384 233.902 51.6384 238.791 51.9657C241.178 52.0809 243.354 52.2921 245.159 52.5161C245.81 52.5957 246.438 52.8056 247.006 53.1335C247.574 53.4614 248.07 53.9005 248.464 54.4245C248.858 54.9485 249.143 55.5466 249.301 56.1831C249.459 56.8196 249.486 57.4814 249.383 58.1289C248.581 63.1758 248.058 68.263 247.815 73.3673L247.776 74.1033C247.693 75.8249 247.616 77.5273 247.61 79.2233C247.61 79.5561 247.61 79.8953 247.61 80.2281C247.815 97.3161 249.997 105.694 250.938 116.273Z" fill="#263238"/>
<path opacity="0.2" d="M247.814 73.3672L247.776 74.1032C247.693 75.8248 247.616 77.5272 247.61 79.2232L240.243 64.7656L247.814 73.3672Z" fill="black"/>
<path d="M226.694 26.0905C226.694 26.0905 220.058 22.9609 217.312 24.5097C215.155 25.7257 216.595 28.2281 216.595 28.2281C216.595 28.2281 212.544 28.3561 212.544 30.9161C212.54 31.507 212.765 32.0763 213.172 32.5047C213.579 32.9331 214.136 33.1872 214.726 33.2137C214.726 33.2137 213.286 35.6841 214.867 36.2537C216.448 36.8233 218.298 33.5593 218.298 33.5593L226.694 26.0905Z" fill="#263238"/>
<path d="M233.735 38.929C233.735 38.929 235.482 41.457 235.13 42.129C234.605 43.1786 233.21 41.9882 233.21 41.9882C233.21 41.9882 234.49 43.7098 233.21 44.5482C231.93 45.3866 231.13 41.1754 231.13 41.1754L233.735 38.929Z" fill="#263238"/>
<path d="M223.706 26.3913C225.06 26.043 226.471 25.9769 227.851 26.1971C229.232 26.4173 230.553 26.9191 231.731 27.6713C233.274 28.6825 234.554 30.1161 234.323 32.0617C233.779 36.5929 231.763 44.0489 231.763 44.0489L217.165 35.1465C217.165 35.1465 216.525 31.3065 218.381 28.9385C219.334 27.7033 221.683 26.8905 223.706 26.3913Z" fill="#263238"/>
<path d="M224.486 49.028V49.0856L225.197 51.6904C225.258 52.2151 225.269 52.7445 225.229 53.2712C225.2 53.7016 225.14 54.1294 225.05 54.5512C224.48 55.3384 224.218 57.1112 226.259 57.1112C228.819 57.1112 233.536 53.3097 233.696 52.1705C232.48 48.6568 231.456 44.548 231.622 41.1816L228.704 44.3816L224.486 49.028Z" fill="#FF8B7B"/>
<g opacity="0.2">
<path d="M224.506 49.092L225.216 51.6968C226.823 50.948 228.499 49.3544 228.871 47.6328C229.133 46.3912 228.57 45.2392 228.064 45.1816L224.506 49.092Z" fill="black"/>
</g>
<path d="M217.946 43.665C218.099 44.2346 218.272 44.7914 218.464 45.3418C220.122 50.2058 226.144 50.6026 229.85 46.9802C230.189 46.6515 230.501 46.2962 230.784 45.9178C233.133 42.7754 232.518 40.3754 232.122 34.9226C232.045 33.6524 231.645 32.423 230.959 31.3514C230.273 30.2798 229.324 29.4019 228.202 28.8012C227.08 28.2005 225.823 27.8972 224.551 27.9202C223.279 27.9431 222.034 28.2915 220.934 28.9322C216.41 31.537 216.371 37.9946 217.946 43.665Z" fill="#FF8B7B"/>
<path d="M221.53 44.5609H221.383C221.34 44.556 221.3 44.5346 221.273 44.5011C221.245 44.4677 221.232 44.4248 221.235 44.3817C221.237 44.36 221.243 44.3389 221.253 44.3197C221.263 44.3004 221.277 44.2834 221.293 44.2696C221.31 44.2559 221.33 44.2456 221.35 44.2396C221.371 44.2336 221.393 44.2318 221.415 44.2345C221.732 44.2634 222.052 44.2274 222.355 44.1288C222.658 44.0302 222.937 43.871 223.177 43.6608C223.416 43.4507 223.611 43.194 223.748 42.9065C223.885 42.6189 223.962 42.3064 223.975 41.9881C223.981 41.945 224.004 41.9061 224.039 41.8798C224.073 41.8535 224.117 41.8418 224.16 41.8473C224.203 41.8551 224.241 41.8784 224.267 41.9128C224.293 41.9471 224.305 41.9899 224.301 42.0329C224.263 42.7335 223.951 43.3911 223.433 43.8639C222.914 44.3368 222.231 44.5871 221.53 44.5609Z" fill="#263238"/>
<path d="M232.199 35.4218C232.199 35.4218 230.554 35.5114 230.49 36.9194C230.426 38.3274 230.573 38.513 230.573 38.513L228.653 38.929C228.653 38.929 229.165 33.553 227.751 33.6298C226.336 33.7066 227.859 31.281 227.008 30.9354C224.992 30.1226 219.52 30.097 217.408 33.3994C217.408 33.3994 217.952 30.1482 220.538 28.3818C223.123 26.6154 228.352 26.225 230.477 28.7786C232.602 31.3322 232.199 35.4218 232.199 35.4218Z" fill="#263238"/>
<path d="M234.944 38.2058C234.841 38.8784 234.607 39.5242 234.254 40.1062C233.902 40.6883 233.438 41.1951 232.889 41.5978C231.417 42.673 230.048 41.5018 229.933 39.7802C229.824 38.2314 230.464 35.8122 232.198 35.4218C233.933 35.0314 235.181 36.5354 234.944 38.2058Z" fill="#FF8B7B"/>
<path d="M224.077 38.6153C224.134 39.0441 223.955 39.4217 223.68 39.4601C223.405 39.4985 223.129 39.1785 223.04 38.7561C222.95 38.3337 223.161 37.9497 223.443 37.9113C223.725 37.8729 223.993 38.1929 224.083 38.6153" fill="#263238"/>
<path d="M219.399 39.1913C219.456 39.6201 219.277 39.9977 218.995 40.0361C218.714 40.0745 218.445 39.7545 218.355 39.3321C218.266 38.9097 218.477 38.5257 218.759 38.4937C219.04 38.4617 219.309 38.7689 219.399 39.1913Z" fill="#263238"/>
<path d="M217.587 37.5656C217.625 37.5605 217.662 37.5453 217.692 37.5217C217.722 37.4981 217.746 37.4669 217.76 37.4312C217.807 37.2846 217.883 37.1492 217.984 37.0336C218.086 36.9179 218.21 36.8245 218.349 36.7592C218.636 36.6529 218.952 36.6529 219.239 36.7592C219.265 36.7706 219.293 36.7766 219.322 36.7769C219.351 36.7773 219.38 36.772 219.406 36.7613C219.433 36.7506 219.458 36.7347 219.478 36.7146C219.499 36.6945 219.515 36.6705 219.527 36.644C219.538 36.6176 219.544 36.5891 219.544 36.5603C219.545 36.5315 219.539 36.5029 219.529 36.4762C219.518 36.4494 219.502 36.4251 219.482 36.4044C219.462 36.3838 219.438 36.3674 219.411 36.356C219.015 36.2078 218.579 36.2078 218.183 36.356C217.989 36.4416 217.816 36.5667 217.674 36.7232C217.531 36.8797 217.424 37.0642 217.357 37.2648C217.346 37.2912 217.34 37.3196 217.34 37.3483C217.34 37.377 217.346 37.4054 217.357 37.4318C217.369 37.4581 217.385 37.4819 217.406 37.5016C217.427 37.5213 217.452 37.5366 217.479 37.5464C217.512 37.5627 217.55 37.5693 217.587 37.5656Z" fill="#263238"/>
<path d="M225.107 36.7018C225.14 36.6957 225.17 36.6826 225.197 36.6634C225.244 36.631 225.277 36.5812 225.288 36.5249C225.298 36.4685 225.286 36.4102 225.255 36.3626C225.009 36.0189 224.648 35.7756 224.237 35.6778C224.028 35.6459 223.814 35.6573 223.609 35.7113C223.404 35.7652 223.213 35.8605 223.047 35.9914C223.019 36.0059 222.995 36.026 222.976 36.0505C222.957 36.075 222.944 36.1032 222.937 36.1334C222.929 36.1635 222.929 36.1948 222.935 36.2252C222.941 36.2556 222.953 36.2844 222.971 36.3096C222.989 36.3349 223.012 36.356 223.039 36.3716C223.065 36.3873 223.095 36.397 223.126 36.4002C223.157 36.4034 223.188 36.4 223.217 36.3902C223.246 36.3804 223.273 36.3644 223.296 36.3434C223.416 36.2481 223.553 36.178 223.701 36.1373C223.848 36.0966 224.002 36.0862 224.154 36.1066C224.453 36.1783 224.717 36.3555 224.896 36.6058C224.919 36.6396 224.951 36.6664 224.988 36.6833C225.026 36.7002 225.067 36.7066 225.107 36.7018Z" fill="#263238"/>
<path d="M221.197 38.3784C220.678 39.5615 220.234 40.7755 219.866 42.0136C219.802 42.5128 221.395 42.5 221.395 42.5L221.197 38.3784Z" fill="#FF5652"/>
<path d="M249.133 54.7562C252.166 58.801 255.066 62.9482 257.914 67.1274C259.347 69.2074 260.736 71.3194 262.15 73.4058L264.23 76.5418L265.261 78.0714L265.773 78.8138L266.016 79.1594L266.182 79.4346L266.323 79.6842L266.432 79.889L266.618 80.2666L266.765 80.5994C267.117 81.4442 267.341 82.1162 267.558 82.7946C267.776 83.473 267.962 84.1194 268.147 84.7658C268.512 86.0458 268.838 87.3258 269.139 88.6058C269.741 91.1274 270.304 93.6298 270.803 96.145C271.814 101.163 272.723 106.18 273.395 111.262C273.489 111.959 273.323 112.667 272.929 113.25C272.535 113.834 271.941 114.252 271.259 114.427C270.577 114.601 269.855 114.519 269.23 114.197C268.604 113.874 268.119 113.333 267.866 112.676C266.048 107.953 264.346 103.172 262.643 98.4426C261.779 96.081 260.941 93.713 260.083 91.4026C259.642 90.2442 259.206 89.0922 258.765 87.985C258.541 87.4282 258.317 86.8842 258.125 86.3722C257.936 85.9214 257.722 85.4813 257.485 85.0538C257.468 85.0206 257.448 84.9886 257.427 84.9578C257.427 84.9578 257.395 84.913 257.395 84.9194V84.9706L257.434 85.041C257.434 85.0922 257.498 85.1434 257.536 85.1946V85.1626L257.446 85.0602L257.267 84.849L256.922 84.4266L255.699 82.9034L253.312 79.8954C251.757 77.8794 250.202 75.8762 248.678 73.8474C245.632 69.7898 242.65 65.6938 239.808 61.489C239.029 60.25 238.75 58.7609 239.03 57.3241C239.309 55.8874 240.124 54.6107 241.31 53.7535C242.497 52.8964 243.965 52.523 245.417 52.7092C246.868 52.8954 248.195 53.6273 249.126 54.7562H249.133Z" fill="#263238"/>
<path d="M268.505 113.598C268.505 113.598 266.758 119.358 267.181 120.554C267.603 121.751 268.953 119.274 268.953 119.274L268.505 113.598Z" fill="#FF8B7B"/>
<path d="M273.574 112.107L275.974 117.476C276.55 119.025 271.705 121.956 269.574 120.849C267.872 119.959 268.435 113.335 268.435 113.335C269.139 112.749 269.97 112.333 270.861 112.12C271.752 111.907 272.681 111.902 273.574 112.107Z" fill="#FF8B7B"/>
<path d="M275.975 117.476C276.615 119.204 276.787 122.711 273.997 123.415C273.391 123.596 272.761 123.689 272.128 123.69C272.128 123.69 272.275 125.233 271.456 125.495C270.637 125.758 268.986 120.119 268.986 120.119L275.975 117.476Z" fill="#FF8B7B"/>
<path d="M219.853 65.1177C217.075 66.8073 214.266 68.3817 211.405 69.8921C210.471 70.3827 209.53 70.867 208.583 71.3449C207.757 71.7673 206.931 72.1833 206.099 72.6249C203.738 73.7769 201.363 74.8969 198.893 75.9657C197.651 76.4905 196.403 77.0089 194.995 77.5273C194.656 77.6553 194.253 77.7833 193.85 77.9177L193.165 78.1289L192.685 78.2441L192.448 78.3017H192.32L192.026 78.3529C191.827 78.3529 191.603 78.4105 191.431 78.4233H191.027C190.814 78.4238 190.6 78.4131 190.387 78.3913C190.176 78.3913 190.048 78.3593 189.888 78.3401L189.459 78.2697C189.004 78.1866 188.553 78.0798 188.109 77.9497C186.714 77.5366 185.34 77.0539 183.994 76.5033C182.714 76.0041 181.491 75.4601 180.282 74.9097C177.856 73.8153 175.495 72.6761 173.159 71.4793C168.487 69.0985 163.917 66.6025 159.443 63.8505L161.319 59.6265C166.304 61.0345 171.245 62.5833 176.154 64.1065C178.611 64.8489 181.056 65.6105 183.475 66.3145L187.072 67.3129C188.186 67.6073 189.331 67.8825 190.272 68.0297H190.317C190.522 67.9337 190.727 67.8441 190.957 67.7161C191.936 67.2425 193.031 66.6537 194.112 66.0585C196.295 64.8745 198.515 63.6265 200.736 62.3849C205.184 59.8953 209.696 57.3929 214.247 55.0889L219.853 65.1177Z" fill="#263238"/>
<path opacity="0.2" d="M212.013 62.5322L211.443 69.7194L211.405 69.8922C210.471 70.3829 209.53 70.8672 208.583 71.345L212.013 62.5322Z" fill="black"/>
<path d="M159.302 63.8888C161.146 64.2216 163.629 63.1976 162.304 59.876C161.458 57.8034 160.497 55.78 159.424 53.8152C158.534 52.1 154.803 51.3832 154.803 51.3832C154.803 51.3832 152.883 49.732 152.602 50.628C152.32 51.524 155.162 53.7256 155.494 54.3656C156.602 56.3624 157.741 58.372 157.69 58.7304C157.638 59.0888 156.314 56.2216 155.13 55.9784C153.946 55.7352 156.275 59.0248 156.506 60.388C156.736 61.7512 158.445 63.716 159.302 63.8888Z" fill="#FF8B7B"/>
<path opacity="0.2" d="M155.194 51.5561C156.498 52.4004 157.54 53.5932 158.202 54.9993C158.253 55.1081 158.087 55.2105 158.035 55.1017C157.388 53.7267 156.371 52.5589 155.098 51.7289C154.995 51.6585 155.098 51.4857 155.194 51.5561Z" fill="black"/>
<path opacity="0.2" d="M158.214 54.0585C157.848 53.365 157.327 52.765 156.691 52.3049C156.595 52.2281 156.73 52.0873 156.832 52.1641C157.477 52.6364 158.007 53.2492 158.381 53.9561C158.445 54.0713 158.272 54.1737 158.214 54.0585Z" fill="black"/>
</svg>
