<svg width="100" height="100" viewBox="0 0 100 100" fill="none" xmlns="http://www.w3.org/2000/svg">
<mask id="mask0_1210_46548" style="mask-type:alpha" maskUnits="userSpaceOnUse" x="0" y="0" width="100" height="100">
<rect width="100" height="100" fill="#D9D9D9"/>
</mask>
<g mask="url(#mask0_1210_46548)">
<path d="M49.9998 66.6673C51.1804 66.6673 52.17 66.268 52.9686 65.4694C53.7672 64.6708 54.1665 63.6812 54.1665 62.5007C54.1665 61.3201 53.7672 60.3305 52.9686 59.5319C52.17 58.7333 51.1804 58.334 49.9998 58.334C48.8193 58.334 47.8297 58.7333 47.0311 59.5319C46.2325 60.3305 45.8332 61.3201 45.8332 62.5007C45.8332 63.6812 46.2325 64.6708 47.0311 65.4694C47.8297 66.268 48.8193 66.6673 49.9998 66.6673ZM49.9998 50.0007C51.1804 50.0007 52.17 49.6013 52.9686 48.8027C53.7672 48.0041 54.1665 47.0145 54.1665 45.834V33.334C54.1665 32.1534 53.7672 31.1638 52.9686 30.3652C52.17 29.5666 51.1804 29.1673 49.9998 29.1673C48.8193 29.1673 47.8297 29.5666 47.0311 30.3652C46.2325 31.1638 45.8332 32.1534 45.8332 33.334V45.834C45.8332 47.0145 46.2325 48.0041 47.0311 48.8027C47.8297 49.6013 48.8193 50.0007 49.9998 50.0007ZM49.9998 91.2506C49.5137 91.2506 49.0623 91.2159 48.6457 91.1465C48.229 91.077 47.8123 90.9729 47.3957 90.834C38.0207 87.709 30.5554 81.9277 24.9998 73.4902C19.4443 65.0527 16.6665 55.9729 16.6665 46.2506V26.5632C16.6665 24.827 17.17 23.2645 18.1769 21.8757C19.1839 20.4868 20.4859 19.4798 22.0832 18.8548L47.0832 9.47982C48.0554 9.1326 49.0276 8.95898 49.9998 8.95898C50.9721 8.95898 51.9443 9.1326 52.9165 9.47982L77.9165 18.8548C79.5137 19.4798 80.8158 20.4868 81.8228 21.8757C82.8297 23.2645 83.3332 24.827 83.3332 26.5632V46.2506C83.3332 55.9729 80.5554 65.0527 74.9998 73.4902C69.4443 81.9277 61.979 87.709 52.604 90.834C52.1873 90.9729 51.7707 91.077 51.354 91.1465C50.9373 91.2159 50.4859 91.2506 49.9998 91.2506Z" fill="#DC2626"/>
</g>
</svg>
