<svg width="320" height="284" viewBox="0 0 320 284" fill="none" xmlns="http://www.w3.org/2000/svg">
<path d="M308.795 59.8273V59.718C304.271 44.1045 290.617 33.9645 277.139 26.2292C249.939 10.6157 224.716 20.5454 185.493 30.4332C146.27 40.3209 122.433 30.1641 86.8338 19.2086C33.6452 2.85514 -6.41861 53.3028 0.854253 103.397C4.2931 126.998 14.9375 148.741 19.2508 172.149C25.5652 206.462 0.694501 222.311 20.4195 251.251C40.1445 280.191 93.3416 286.8 128.831 281.208C150.331 277.845 168.946 265.813 189.268 258.801C208.328 252.226 229.046 253.655 248.123 259.381C265.822 264.687 286.8 269.908 301.8 255.581C318.859 239.295 324.56 220.024 316.194 197.911C308.946 178.766 295.342 162.488 289.162 142.915C283.949 126.443 293.871 117.262 301.539 103.935C308.955 91.046 312.982 74.4235 308.795 59.8273Z" fill="#F1F5F9"/>
<path opacity="0.7" d="M308.795 59.8273V59.718C304.271 44.1045 290.617 33.9645 277.139 26.2292C249.939 10.6157 224.716 20.5454 185.493 30.4332C146.27 40.3209 122.433 30.1641 86.8338 19.2086C33.6452 2.85514 -6.41861 53.3028 0.854253 103.397C4.2931 126.998 14.9375 148.741 19.2508 172.149C25.5652 206.462 0.694501 222.311 20.4195 251.251C40.1445 280.191 93.3416 286.8 128.831 281.208C150.331 277.845 168.946 265.813 189.268 258.801C208.328 252.226 229.046 253.655 248.123 259.381C265.822 264.687 286.8 269.908 301.8 255.581C318.859 239.295 324.56 220.024 316.194 197.911C308.946 178.766 295.342 162.488 289.162 142.915C283.949 126.443 293.871 117.262 301.539 103.935C308.955 91.046 312.982 74.4235 308.795 59.8273Z" fill="#F1F5F9"/>
<path d="M172.158 172.62H148.615V141.082H165.145L172.158 147.505V172.62Z" fill="black"/>
<path d="M173.536 171.552H149.994V140.022H166.524L173.536 146.446V171.552Z" fill="white" stroke="#263238" stroke-linecap="round" stroke-linejoin="round"/>
<path d="M166.524 140.022L164.801 147.564L173.536 146.446L166.524 140.022Z" fill="black" stroke="#263238" stroke-linecap="round" stroke-linejoin="round"/>
<path d="M166.524 140.022V146.446H173.536L166.524 140.022Z" fill="white" stroke="#263238" stroke-linecap="round" stroke-linejoin="round"/>
<path d="M154.492 151.079H167.912" stroke="#263238" stroke-linecap="round" stroke-linejoin="round"/>
<path d="M154.492 154.366H167.912" stroke="#263238" stroke-linecap="round" stroke-linejoin="round"/>
<path d="M154.492 157.654H167.912" stroke="#263238" stroke-linecap="round" stroke-linejoin="round"/>
<path d="M154.492 160.95H167.912" stroke="#263238" stroke-linecap="round" stroke-linejoin="round"/>
<path d="M154.492 164.237H167.912" stroke="#263238" stroke-linecap="round" stroke-linejoin="round"/>
<path d="M285.387 172.62H261.845V141.082H278.375L285.387 147.505V172.62Z" fill="black"/>
<path d="M286.758 171.552H263.216V140.022H279.746L286.758 146.446V171.552Z" fill="white" stroke="#263238" stroke-linecap="round" stroke-linejoin="round"/>
<path d="M279.745 140.022L278.03 147.564L286.758 146.446L279.745 140.022Z" fill="black" stroke="#263238" stroke-linecap="round" stroke-linejoin="round"/>
<path d="M279.746 140.022V146.446H286.758L279.746 140.022Z" fill="white" stroke="#263238" stroke-linecap="round" stroke-linejoin="round"/>
<path d="M267.722 151.079H281.141" stroke="#263238" stroke-linecap="round" stroke-linejoin="round"/>
<path d="M267.722 154.366H281.141" stroke="#263238" stroke-linecap="round" stroke-linejoin="round"/>
<path d="M267.722 157.654H281.141" stroke="#263238" stroke-linecap="round" stroke-linejoin="round"/>
<path d="M267.722 160.95H281.141" stroke="#263238" stroke-linecap="round" stroke-linejoin="round"/>
<path d="M267.722 164.237H281.141" stroke="#263238" stroke-linecap="round" stroke-linejoin="round"/>
<path d="M56.9604 172.62H33.4182V141.082H49.9482L56.9604 147.505V172.62Z" fill="black"/>
<path d="M58.3393 171.552H34.7971V140.022H51.3271L58.3393 146.446V171.552Z" fill="white" stroke="#263238" stroke-linecap="round" stroke-linejoin="round"/>
<path d="M51.3271 140.022L49.6035 147.564L58.3394 146.446L51.3271 140.022Z" fill="black" stroke="#263238" stroke-linecap="round" stroke-linejoin="round"/>
<path d="M51.3271 140.022V146.446H58.3394L51.3271 140.022Z" fill="white" stroke="#263238" stroke-linecap="round" stroke-linejoin="round"/>
<path d="M39.3037 151.079H52.7228" stroke="#263238" stroke-linecap="round" stroke-linejoin="round"/>
<path d="M39.3037 154.366H52.7228" stroke="#263238" stroke-linecap="round" stroke-linejoin="round"/>
<path d="M39.3037 157.654H52.7228" stroke="#263238" stroke-linecap="round" stroke-linejoin="round"/>
<path d="M39.3037 160.95H52.7228" stroke="#263238" stroke-linecap="round" stroke-linejoin="round"/>
<path d="M39.3037 164.237H52.7228" stroke="#263238" stroke-linecap="round" stroke-linejoin="round"/>
<path d="M172.158 251.419H148.615V219.881H165.145L172.158 226.304V251.419Z" fill="black"/>
<path d="M173.536 250.351H149.994V218.821H166.524L173.536 225.245V250.351Z" fill="white" stroke="#263238" stroke-linecap="round" stroke-linejoin="round"/>
<path d="M166.524 218.821L164.801 226.363L173.536 225.245L166.524 218.821Z" fill="black" stroke="#263238" stroke-linecap="round" stroke-linejoin="round"/>
<path d="M166.524 218.821V225.245H173.536L166.524 218.821Z" fill="white" stroke="#263238" stroke-linecap="round" stroke-linejoin="round"/>
<path d="M154.492 229.878H167.912" stroke="#263238" stroke-linecap="round" stroke-linejoin="round"/>
<path d="M154.492 233.165H167.912" stroke="#263238" stroke-linecap="round" stroke-linejoin="round"/>
<path d="M154.492 236.461H167.912" stroke="#263238" stroke-linecap="round" stroke-linejoin="round"/>
<path d="M154.492 239.749H167.912" stroke="#263238" stroke-linecap="round" stroke-linejoin="round"/>
<path d="M154.492 243.036H167.912" stroke="#263238" stroke-linecap="round" stroke-linejoin="round"/>
<path d="M285.387 251.419H261.845V219.881H278.375L285.387 226.304V251.419Z" fill="black"/>
<path d="M286.758 250.351H263.216V218.821H279.746L286.758 225.245V250.351Z" fill="white" stroke="#263238" stroke-linecap="round" stroke-linejoin="round"/>
<path d="M279.745 218.821L278.03 226.363L286.758 225.245L279.745 218.821Z" fill="black" stroke="#263238" stroke-linecap="round" stroke-linejoin="round"/>
<path d="M279.746 218.821V225.245H286.758L279.746 218.821Z" fill="white" stroke="#263238" stroke-linecap="round" stroke-linejoin="round"/>
<path d="M267.722 229.878H281.141" stroke="#263238" stroke-linecap="round" stroke-linejoin="round"/>
<path d="M267.722 233.165H281.141" stroke="#263238" stroke-linecap="round" stroke-linejoin="round"/>
<path d="M267.722 236.461H281.141" stroke="#263238" stroke-linecap="round" stroke-linejoin="round"/>
<path d="M267.722 239.749H281.141" stroke="#263238" stroke-linecap="round" stroke-linejoin="round"/>
<path d="M267.722 243.036H281.141" stroke="#263238" stroke-linecap="round" stroke-linejoin="round"/>
<path d="M56.9604 251.419H33.4182V219.881H49.9482L56.9604 226.304V251.419Z" fill="black"/>
<path d="M58.3393 250.351H34.7971V218.821H51.3271L58.3393 225.245V250.351Z" fill="white" stroke="#263238" stroke-linecap="round" stroke-linejoin="round"/>
<path d="M51.3271 218.821L49.6035 226.363L58.3394 225.245L51.3271 218.821Z" fill="black" stroke="#263238" stroke-linecap="round" stroke-linejoin="round"/>
<path d="M51.3271 218.821V225.245H58.3394L51.3271 218.821Z" fill="white" stroke="#263238" stroke-linecap="round" stroke-linejoin="round"/>
<path d="M39.3037 229.878H52.7228" stroke="#263238" stroke-linecap="round" stroke-linejoin="round"/>
<path d="M39.3037 233.165H52.7228" stroke="#263238" stroke-linecap="round" stroke-linejoin="round"/>
<path d="M39.3037 236.461H52.7228" stroke="#263238" stroke-linecap="round" stroke-linejoin="round"/>
<path d="M39.3037 239.749H52.7228" stroke="#263238" stroke-linecap="round" stroke-linejoin="round"/>
<path d="M39.3037 243.036H52.7228" stroke="#263238" stroke-linecap="round" stroke-linejoin="round"/>
<path d="M113.571 210.498H90.0288V178.968H106.567L113.571 185.391V210.498Z" fill="black"/>
<path d="M114.95 209.438H91.4077V177.9H107.938L114.95 184.324V209.438Z" fill="#DC2626" stroke="#263238" stroke-linecap="round" stroke-linejoin="round"/>
<path d="M107.938 177.9L106.223 185.442L114.95 184.324L107.938 177.9Z" fill="black" stroke="#263238" stroke-linecap="round" stroke-linejoin="round"/>
<path d="M107.938 177.9V184.324H114.95L107.938 177.9Z" fill="white" stroke="#263238" stroke-linecap="round" stroke-linejoin="round"/>
<path d="M95.9143 188.965H109.333" stroke="#263238" stroke-linecap="round" stroke-linejoin="round"/>
<path d="M95.9143 192.252H109.333" stroke="#263238" stroke-linecap="round" stroke-linejoin="round"/>
<path d="M95.9143 195.54H109.333" stroke="#263238" stroke-linecap="round" stroke-linejoin="round"/>
<path d="M95.9143 198.827H109.333" stroke="#263238" stroke-linecap="round" stroke-linejoin="round"/>
<path d="M95.9143 202.115H109.333" stroke="#263238" stroke-linecap="round" stroke-linejoin="round"/>
<path d="M172.158 93.8206H148.615V62.2825H165.145L172.158 68.7061V93.8206Z" fill="black"/>
<path d="M173.536 92.7528H149.994V61.2231H166.524L173.536 67.6467V92.7528Z" fill="white" stroke="#263238" stroke-linecap="round" stroke-linejoin="round"/>
<path d="M166.524 61.2231L164.801 68.765L173.536 67.6467L166.524 61.2231Z" fill="black" stroke="#263238" stroke-linecap="round" stroke-linejoin="round"/>
<path d="M166.524 61.2231V67.6467H173.536L166.524 61.2231Z" fill="white" stroke="#263238" stroke-linecap="round" stroke-linejoin="round"/>
<path d="M154.492 72.2795H167.912" stroke="#263238" stroke-linecap="round" stroke-linejoin="round"/>
<path d="M154.492 75.567H167.912" stroke="#263238" stroke-linecap="round" stroke-linejoin="round"/>
<path d="M154.492 78.8545H167.912" stroke="#263238" stroke-linecap="round" stroke-linejoin="round"/>
<path d="M154.492 82.142H167.912" stroke="#263238" stroke-linecap="round" stroke-linejoin="round"/>
<path d="M154.492 85.4379H167.912" stroke="#263238" stroke-linecap="round" stroke-linejoin="round"/>
<path d="M228.768 52.8992H205.226V21.3694H221.764L228.768 27.7847V52.8992Z" fill="black"/>
<path d="M230.147 51.8398H206.605V20.3016H223.135L230.147 26.7253V51.8398Z" fill="white" stroke="#263238" stroke-linecap="round" stroke-linejoin="round"/>
<path d="M223.135 20.3016L221.42 27.8436L230.147 26.7253L223.135 20.3016Z" fill="black" stroke="#263238" stroke-linecap="round" stroke-linejoin="round"/>
<path d="M223.135 20.3016V26.7253H230.147L223.135 20.3016Z" fill="white" stroke="#263238" stroke-linecap="round" stroke-linejoin="round"/>
<path d="M211.112 31.3581H224.531" stroke="#263238" stroke-linecap="round" stroke-linejoin="round"/>
<path d="M211.112 34.654H224.531" stroke="#263238" stroke-linecap="round" stroke-linejoin="round"/>
<path d="M211.112 37.9415H224.531" stroke="#263238" stroke-linecap="round" stroke-linejoin="round"/>
<path d="M211.112 41.229H224.531" stroke="#263238" stroke-linecap="round" stroke-linejoin="round"/>
<path d="M211.112 44.5165H224.531" stroke="#263238" stroke-linecap="round" stroke-linejoin="round"/>
<path d="M285.387 93.8206H261.845V62.2825H278.375L285.387 68.7061V93.8206Z" fill="black"/>
<path d="M286.758 92.7528H263.216V61.2231H279.746L286.758 67.6467V92.7528Z" fill="#DC2626" stroke="#263238" stroke-linecap="round" stroke-linejoin="round"/>
<path d="M279.745 61.2231L278.03 68.765L286.758 67.6467L279.745 61.2231Z" fill="black" stroke="#263238" stroke-linecap="round" stroke-linejoin="round"/>
<path d="M279.746 61.2231V67.6467H286.758L279.746 61.2231Z" fill="white" stroke="#263238" stroke-linecap="round" stroke-linejoin="round"/>
<path d="M267.722 72.2795H281.141" stroke="#263238" stroke-linecap="round" stroke-linejoin="round"/>
<path d="M267.722 75.567H281.141" stroke="#263238" stroke-linecap="round" stroke-linejoin="round"/>
<path d="M267.722 78.8545H281.141" stroke="#263238" stroke-linecap="round" stroke-linejoin="round"/>
<path d="M267.722 82.142H281.141" stroke="#263238" stroke-linecap="round" stroke-linejoin="round"/>
<path d="M267.722 85.4379H281.141" stroke="#263238" stroke-linecap="round" stroke-linejoin="round"/>
<path d="M56.9604 93.8206H33.4182V62.2825H49.9482L56.9604 68.7061V93.8206Z" fill="black"/>
<path d="M58.3393 92.7528H34.7971V61.2231H51.3271L58.3393 67.6467V92.7528Z" fill="white" stroke="#263238" stroke-linecap="round" stroke-linejoin="round"/>
<path d="M51.3271 61.2231L49.6035 68.765L58.3394 67.6467L51.3271 61.2231Z" fill="black" stroke="#263238" stroke-linecap="round" stroke-linejoin="round"/>
<path d="M51.3271 61.2231V67.6467H58.3394L51.3271 61.2231Z" fill="white" stroke="#263238" stroke-linecap="round" stroke-linejoin="round"/>
<path d="M39.3037 72.2795H52.7228" stroke="#263238" stroke-linecap="round" stroke-linejoin="round"/>
<path d="M39.3037 75.567H52.7228" stroke="#263238" stroke-linecap="round" stroke-linejoin="round"/>
<path d="M39.3037 78.8545H52.7228" stroke="#263238" stroke-linecap="round" stroke-linejoin="round"/>
<path d="M39.3037 82.142H52.7228" stroke="#263238" stroke-linecap="round" stroke-linejoin="round"/>
<path d="M39.3037 85.4379H52.7228" stroke="#263238" stroke-linecap="round" stroke-linejoin="round"/>
<path d="M217.476 250.351C240.574 250.351 259.297 246.752 259.297 242.313C259.297 237.874 240.574 234.275 217.476 234.275C194.379 234.275 175.655 237.874 175.655 242.313C175.655 246.752 194.379 250.351 217.476 250.351Z" fill="#DC2626"/>
<path opacity="0.5" d="M217.476 250.351C240.574 250.351 259.297 246.752 259.297 242.313C259.297 237.874 240.574 234.275 217.476 234.275C194.379 234.275 175.655 237.874 175.655 242.313C175.655 246.752 194.379 250.351 217.476 250.351Z" fill="white"/>
<path d="M185.753 132.102C185.7 132.155 185.637 132.198 185.568 132.228C185.397 132.308 185.2 132.317 185.022 132.252C184.844 132.188 184.699 132.055 184.618 131.883L182.937 128.344C182.874 128.174 182.878 127.987 182.946 127.82C183.015 127.653 183.144 127.517 183.307 127.44C183.471 127.363 183.657 127.35 183.83 127.404C184.002 127.457 184.149 127.574 184.24 127.73L185.921 131.27C185.986 131.408 186.005 131.564 185.974 131.713C185.944 131.863 185.867 131.999 185.753 132.102Z" fill="white" stroke="#263238" stroke-miterlimit="10"/>
<path d="M187.267 140.838C189.07 141.08 190.77 141.82 192.177 142.973C194.531 144.899 199.66 147.463 206.294 148.96C212.928 150.456 214.626 150.641 214.626 150.641L212.944 141.452C212.944 141.452 203.536 141.662 199.492 141.023C195.448 140.384 190.722 136.752 188.561 134.826C186.401 132.901 187.267 140.838 187.267 140.838Z" fill="#DC2626" stroke="#263238" stroke-miterlimit="10"/>
<path d="M190.218 141.241C190.136 141.314 190.046 141.377 189.949 141.426C189.69 141.548 189.394 141.562 189.124 141.466C188.855 141.37 188.635 141.171 188.511 140.913L184.307 132.043C184.246 131.915 184.211 131.776 184.204 131.635C184.197 131.493 184.218 131.351 184.266 131.218C184.313 131.084 184.387 130.962 184.482 130.857C184.577 130.751 184.692 130.666 184.82 130.605C184.948 130.545 185.087 130.51 185.228 130.503C185.37 130.496 185.511 130.516 185.645 130.564C185.778 130.612 185.901 130.685 186.006 130.78C186.112 130.875 186.197 130.99 186.258 131.118L190.462 139.989C190.557 140.197 190.585 140.429 190.542 140.654C190.498 140.879 190.385 141.084 190.218 141.241Z" fill="white" stroke="#263238" stroke-miterlimit="10"/>
<path d="M187.141 126.2C185.515 127.712 183.478 128.708 181.286 129.062C179.095 129.416 176.848 129.112 174.829 128.189C172.81 127.266 171.11 125.765 169.944 123.876C168.778 121.987 168.198 119.795 168.278 117.577C168.358 115.358 169.094 113.213 170.393 111.413C171.692 109.613 173.496 108.238 175.576 107.463C177.656 106.688 179.919 106.547 182.079 107.058C184.24 107.569 186.2 108.709 187.712 110.334C189.737 112.515 190.813 115.411 190.706 118.385C190.599 121.359 189.317 124.169 187.141 126.2ZM173.318 111.334C172.003 112.556 171.08 114.14 170.666 115.887C170.252 117.633 170.365 119.463 170.991 121.145C171.617 122.827 172.728 124.286 174.183 125.336C175.638 126.387 177.372 126.982 179.166 127.047C180.96 127.111 182.732 126.643 184.259 125.7C185.786 124.757 187 123.382 187.745 121.75C188.491 120.117 188.736 118.3 188.448 116.528C188.161 114.757 187.355 113.11 186.132 111.797C184.492 110.04 182.222 109.004 179.82 108.918C177.418 108.831 175.08 109.7 173.318 111.334Z" fill="black"/>
<path d="M188.738 132.295C188.738 132.295 189.907 131.673 190.42 132.632C190.932 133.59 192.202 135.583 191.958 136.306C191.714 137.029 190.352 137.147 189.688 136.398C189.034 135.437 188.503 134.397 188.107 133.304L188.738 132.295Z" fill="white" stroke="#263238" stroke-miterlimit="10"/>
<path d="M184.248 133.725L188.738 132.295C188.9 132.399 189.037 132.537 189.138 132.7C189.24 132.863 189.305 133.046 189.327 133.237C189.419 133.91 191.311 137.651 191.101 138.593C190.891 139.535 186.787 141.258 186.375 140.745C185.963 140.232 183.542 134.389 183.542 134.389C183.542 134.389 183.475 133.943 184.248 133.725Z" fill="white" stroke="#263238" stroke-miterlimit="10"/>
<path d="M189.419 133.91L185.366 135.171" stroke="#263238" stroke-miterlimit="10" stroke-linecap="round"/>
<path d="M190.008 135.659L186.316 137.088" stroke="#263238" stroke-miterlimit="10" stroke-linecap="round"/>
<path d="M190.689 137.281L187.191 139.257" stroke="#263238" stroke-miterlimit="10" stroke-linecap="round"/>
<path d="M207.362 116.253C207.362 116.253 203.721 123.089 203.301 129.933C202.88 136.777 209.068 137.626 209.926 138.265C210.784 138.904 213.987 165.843 213.987 165.843C213.987 165.843 191.538 194.707 191.538 197.911C191.538 201.114 188.351 232.568 188.351 232.568L193.051 232.787C193.051 232.787 200.122 212.877 201.804 208.185C203.486 203.494 204.15 196.212 204.15 196.212L224.892 176.756C224.892 176.756 227.238 195.784 229.382 199.845C231.526 203.906 246.265 233.199 246.265 233.199C247.528 233.522 248.816 233.736 250.116 233.838C251.005 233.798 251.877 233.581 252.68 233.199L240.069 197.045C240.069 197.045 240.708 164.119 237.933 158.772C235.158 153.424 228.096 145.731 228.096 145.731C228.096 145.731 222.109 120.936 221.252 117.085C220.394 113.235 215.484 110.031 213.13 110.031C210.775 110.031 207.362 116.253 207.362 116.253Z" fill="#DC2626" stroke="#263238" stroke-miterlimit="10"/>
<path d="M203.486 111.973L206.479 116.673C206.479 116.673 204.797 123.946 206.269 122.239C207.74 120.533 210.111 114.328 211.397 113.041C212.19 112.193 212.767 111.166 213.079 110.048L206.714 106.449L203.486 111.973Z" fill="white" stroke="#263238" stroke-miterlimit="10"/>
<path d="M190.209 96.2925C190.209 96.2925 189.831 100.219 191.109 102.178C192.387 104.137 192.791 104.743 192.395 106.021C192 107.299 190.041 107.307 190.47 108.375C190.899 109.443 193.253 109.871 193.253 109.871C193.253 109.871 195.817 115.858 198.163 115.858C200.509 115.858 206.521 109.972 207.37 107.828C208.219 105.684 199.45 100.034 197.953 98.7561C196.456 97.4781 191.916 93.9383 190.209 96.2925Z" fill="white" stroke="#263238" stroke-miterlimit="10"/>
<path d="M195.439 103.742C195.675 104.457 195.599 105.129 195.263 105.239C194.926 105.348 194.422 104.86 194.228 104.146C194.035 103.431 194.06 102.758 194.397 102.641C194.733 102.523 195.195 103.019 195.439 103.742Z" fill="black"/>
<path d="M194.783 110.418C194.783 110.418 196.852 110.418 197.541 107.433" stroke="#263238" stroke-miterlimit="10" stroke-linecap="round"/>
<path d="M191.269 86.3207H186.846C184.004 86.3207 183.693 91.9961 189.688 98.3104C195.683 104.625 207.673 112.192 214.618 112.192C221.563 112.192 227.558 114.084 230.08 121.029C232.602 127.974 236.705 134.28 249.015 131.757C261.324 129.235 264.477 112.511 255.64 98.3104C246.803 84.1094 235.125 86.6318 229.13 89.4737C223.135 92.3156 213.037 93.2573 211.145 89.4737C209.253 85.6901 204.78 83.1425 200.047 83.1425C195.313 83.1425 191.269 86.3207 191.269 86.3207Z" fill="black"/>
<path d="M252.68 233.191L240.069 197.036C240.069 197.036 240.708 164.111 237.933 158.763C235.545 154.181 230.029 147.884 228.508 146.152L212.104 151.011C213.079 158.242 213.987 165.851 213.987 165.851C213.987 165.851 191.538 194.716 191.538 197.919C191.538 201.123 188.351 232.568 188.351 232.568L193.051 232.787C193.051 232.787 200.122 212.877 201.804 208.185C203.486 203.494 204.15 196.212 204.15 196.212L224.892 176.756C224.892 176.756 227.238 195.784 229.382 199.845C231.526 203.906 246.265 233.199 246.265 233.199C247.528 233.522 248.816 233.736 250.116 233.838C251.005 233.795 251.877 233.575 252.68 233.191Z" fill="black" stroke="#263238" stroke-miterlimit="10"/>
<path d="M216.341 116.463C215.378 116.23 214.363 116.364 213.493 116.838C212.623 117.312 211.96 118.092 211.633 119.028C210.355 122.45 215.694 125.443 219.755 129.958C223.816 134.473 235.579 143.638 235.579 143.638L242.423 165.448L245.626 164.8C245.626 164.8 241.321 139.98 241.321 139.341C241.321 138.702 223.37 120.953 222.723 120.314C222.076 119.675 219.52 116.892 219.52 116.892" fill="#DC2626"/>
<path d="M216.341 116.463C215.378 116.23 214.363 116.364 213.493 116.838C212.623 117.312 211.96 118.092 211.633 119.028C210.355 122.45 215.694 125.443 219.755 129.958C223.816 134.473 235.579 143.638 235.579 143.638L242.423 165.448L245.626 164.8C245.626 164.8 241.321 139.98 241.321 139.341C241.321 138.702 223.37 120.953 222.723 120.314C222.076 119.675 219.52 116.892 219.52 116.892" stroke="#263238" stroke-miterlimit="10"/>
<path d="M242.423 165.423L241.136 170.98L243.272 175.041C243.272 175.041 244.953 175.68 245.416 174.823L245.836 173.982C245.836 173.982 247.98 173.763 248.191 171.838C248.401 169.912 245.626 164.784 245.626 164.784L242.423 165.423Z" fill="white" stroke="#263238" stroke-miterlimit="10"/>
<path d="M188.351 232.568C188.351 232.568 177.875 240.27 177.421 241.548C176.967 242.826 191.53 239.412 192.816 239.194C194.102 238.975 193.026 232.787 193.026 232.787L188.351 232.568Z" fill="#DC2626" stroke="#263238" stroke-miterlimit="10"/>
<path d="M178.497 240.312C178.073 240.65 177.712 241.06 177.429 241.523C177.001 242.809 191.538 239.387 192.824 239.169C193.262 239.101 193.421 238.328 193.447 237.327L178.497 240.312Z" fill="white" stroke="#263238" stroke-miterlimit="10"/>
<path d="M246.265 233.191C246.265 233.191 237.504 234.687 238.572 235.965C240.189 237.514 242.32 238.412 244.558 238.488C246.694 238.488 247.552 239.127 249.477 240.169C251.402 241.212 252.68 241.237 253.319 239.522C253.958 237.806 252.68 233.115 252.68 233.115C252.68 233.115 247.552 234.25 246.265 233.191Z" fill="#DC2626" stroke="#263238" stroke-miterlimit="10"/>
<path d="M249.477 240.245C251.394 241.313 252.68 241.313 253.319 239.597C253.39 239.402 253.436 239.199 253.454 238.992C250.267 240.598 247.333 236.781 244.659 236.781C242.978 236.781 240.632 235.847 239.076 235.099C238.572 235.385 238.337 235.671 238.572 235.94C240.189 237.489 242.32 238.387 244.558 238.462C246.694 238.53 247.552 239.169 249.477 240.245Z" fill="white" stroke="#263238" stroke-miterlimit="10"/>
<path d="M197.255 96.7297C198.937 100.093 201.367 104.103 204.175 105.743" stroke="white" stroke-width="0.75" stroke-miterlimit="10"/>
<path d="M194.859 91.1049C194.859 91.1049 195.237 92.2063 195.927 93.829" stroke="white" stroke-width="0.75" stroke-miterlimit="10"/>
<path d="M255.875 103.658C256.624 104.259 257.286 104.961 257.843 105.743" stroke="white" stroke-width="0.75" stroke-miterlimit="10" stroke-linecap="round"/>
<path d="M189.385 90.0707C189.385 90.0707 192.345 100.16 202.25 104.852C212.154 109.543 216.148 108.551 228.709 103.086C238.328 98.8822 247.779 99.1344 253.605 102.187" stroke="white" stroke-width="0.75" stroke-miterlimit="10" stroke-linecap="round"/>
<path d="M238.32 123.475C238.16 120.222 241.489 120.692 241.876 120.818" stroke="white" stroke-width="0.75" stroke-miterlimit="10" stroke-linecap="round"/>
<path d="M221.621 106.037C221.621 106.037 227.389 105.003 238.622 105.146C249.855 105.289 256.809 116.833 254.597 123.778C252.563 130.151 242.069 130.185 239.211 126.3" stroke="white" stroke-width="0.75" stroke-miterlimit="10" stroke-linecap="round"/>
<path d="M101.741 152.197C124.838 152.197 143.562 148.598 143.562 144.159C143.562 139.72 124.838 136.121 101.741 136.121C78.6439 136.121 59.9199 139.72 59.9199 144.159C59.9199 148.598 78.6439 152.197 101.741 152.197Z" fill="#DC2626"/>
<path opacity="0.5" d="M101.741 152.197C124.838 152.197 143.562 148.598 143.562 144.159C143.562 139.72 124.838 136.121 101.741 136.121C78.6439 136.121 59.9199 139.72 59.9199 144.159C59.9199 148.598 78.6439 152.197 101.741 152.197Z" fill="white"/>
<path d="M122.492 15.4502C122.492 15.4502 122.492 11.2463 122.492 8.57253C122.492 5.89881 126.301 1.24081 132.06 1.00539C137.819 0.769968 147.194 8.30348 145.698 12.3393C144.201 16.3751 142.049 14.0209 142.049 14.0209C142.049 14.0209 143.587 15.7529 141.477 16.7114C139.367 17.6699 137.904 13.7266 137.904 13.7266C137.904 13.7266 135.02 11.0361 132.329 11.0361C129.639 11.0361 130.412 11.2294 128.487 13.9116C126.561 16.5937 124.838 15.837 124.838 16.7955C124.838 17.754 126.183 19.3179 124.072 19.3179C121.962 19.3179 122.492 15.4502 122.492 15.4502Z" fill="black" stroke="#263238" stroke-miterlimit="10"/>
<path d="M40.1109 109.35C40.1109 109.35 33.8301 107.559 32.9305 108.097C32.0308 108.635 30.9546 122.466 31.3162 123.719C31.6777 124.972 37.2017 114.378 37.2017 114.378L39.8923 114.025L40.1109 109.35Z" fill="#DC2626" stroke="#263238" stroke-miterlimit="10"/>
<path d="M33.8722 108.005C33.5555 107.955 33.2314 107.987 32.9305 108.097C32.0308 108.635 30.9546 122.466 31.3162 123.719C31.4003 124.014 31.7702 123.652 32.2915 122.929L33.8722 108.005Z" fill="white" stroke="#263238" stroke-miterlimit="10"/>
<path d="M92.0215 63.737C90.3513 66.1196 88.9073 68.653 87.7082 71.3041C86.0939 75.0709 84.2946 79.0226 84.2946 79.0226L73.7006 102.371C73.7006 102.371 53.9419 107.046 51.428 107.761C48.914 108.476 40.1109 109.375 40.1109 109.375L39.9343 114.05C39.9343 114.05 64.5359 114.765 70.287 114.765C76.038 114.765 77.1142 115.841 79.2667 114.227C81.4191 112.612 97.4026 85.4295 97.4026 85.4295L103.692 85.0763C103.692 85.0763 121.474 105.55 122.912 107.702C124.35 109.855 129.193 124.224 131.707 128.899C133.222 131.711 135.029 134.358 137.096 136.794L141.048 132.304C141.048 132.304 132.64 105.188 131.53 99.4371C130.421 93.6861 116.085 75.197 116.085 75.197L117.523 65.6792C117.523 65.6792 94.3505 66.4275 92.0215 63.737Z" fill="black" stroke="#263238" stroke-miterlimit="10"/>
<path d="M123.248 27.6922C123.248 27.6922 110.225 26.9439 108.35 27.07C106.475 27.1961 104.717 27.4399 104.474 28.5666C104.23 29.6933 91.2058 63.3586 91.2058 65.612C91.2058 67.8653 98.4619 70.8753 105.222 70.8753C109.571 70.8458 113.791 69.3929 117.237 66.7386C117.859 66.2426 134.759 34.5783 135.137 33.8216C135.516 33.0648 135.381 31.9466 134.137 30.8199C132.892 29.6933 123.248 27.6922 123.248 27.6922Z" fill="#DC2626" stroke="#263238" stroke-miterlimit="10"/>
<path d="M123.997 25.7331C123.997 25.7331 120.634 26.4814 119.742 27.6081C118.851 28.7348 116.236 38.8747 116.236 38.8747L122.963 37.4958L126.839 43.3814C126.839 43.3814 129.47 34.8726 129.597 31.2403C129.723 27.6081 125.872 25.3127 123.997 25.7331Z" fill="#DC2626" stroke="#263238" stroke-miterlimit="10"/>
<path d="M104.591 27.6333C100.887 28.762 97.3305 30.3285 93.9973 32.2997C89.4991 35.1752 76.3911 43.0787 76.3911 43.0787L84.7991 45.2311L100.244 39.1269C100.244 39.1269 103.515 32.2997 104.591 27.6333Z" fill="#DC2626" stroke="#263238" stroke-miterlimit="10"/>
<path d="M101.001 44.878C101.001 44.878 92.7362 43.9784 88.961 42.9022C85.1859 41.8259 81.6041 39.6651 77.8289 42.0025C74.0538 44.3399 74.4153 47.0473 76.7527 48.8298C79.0901 50.6122 92.5596 49.0063 95.2502 48.8298C96.8425 48.7283 98.3849 48.2344 99.74 47.392L101.001 44.878Z" fill="#DC2626" stroke="#263238" stroke-miterlimit="10"/>
<path d="M99.0253 45.0714C99.0253 45.0714 107.282 42.0193 107.82 42.0193C108.358 42.0193 109.443 42.0193 109.619 43.2721C109.796 44.5249 110.519 47.5853 109.796 47.7619C109.073 47.9385 105.306 49.3846 104.406 49.3846C103.794 49.3641 103.188 49.2419 102.615 49.0231C101.924 49.2711 101.181 49.3357 100.457 49.2104C99.7335 49.0851 99.0548 48.7744 98.4872 48.3084C96.5113 46.6689 97.9407 45.5927 99.0253 45.0714Z" fill="white" stroke="#263238" stroke-miterlimit="10"/>
<path d="M102.615 49.0063L101.892 46.8539" stroke="#263238" stroke-miterlimit="10"/>
<path d="M104.953 44.3399L106.206 49.0063" stroke="#263238" stroke-miterlimit="10" stroke-linecap="round"/>
<path d="M107.105 42.9022L108.358 47.7451" stroke="#263238" stroke-miterlimit="10" stroke-linecap="round"/>
<path d="M103.154 45.2311L104.406 49.3678" stroke="#263238" stroke-miterlimit="10" stroke-linecap="round"/>
<path d="M134.541 31.358C136.222 32.8774 137.572 34.7262 138.509 36.7896C140.434 40.6404 146.076 52.9832 146.076 52.9832C146.076 52.9832 147.884 57.1872 144.151 58.5325C140.418 59.8777 139.947 56.2707 138.375 54.2276C136.802 52.1845 131.018 41.6578 131.018 41.6578L134.541 31.358Z" fill="#DC2626" stroke="#263238" stroke-miterlimit="10"/>
<path d="M138.644 52.0752C139.277 51.5338 140.019 51.1332 140.819 50.8998C141.619 50.6664 142.459 50.6057 143.285 50.7215C146.227 51.0578 147.253 55.5897 146.118 57.9691C144.983 60.3486 141.914 61.2482 140.905 60.7942C139.896 60.3402 136.609 58.5241 138.644 52.0752Z" fill="#DC2626" stroke="#263238" stroke-miterlimit="10"/>
<path d="M140.048 51.4867C139.978 51.4988 139.907 51.4988 139.837 51.4867C139.747 51.4589 139.663 51.4135 139.591 51.3532C139.518 51.2928 139.458 51.2187 139.414 51.135C139.371 51.0514 139.344 50.9599 139.336 50.8658C139.328 50.7717 139.338 50.677 139.367 50.587L140.544 46.8455C140.571 46.7554 140.617 46.6717 140.677 46.5994C140.738 46.5271 140.812 46.4676 140.896 46.4246C140.98 46.3815 141.072 46.3556 141.166 46.3485C141.26 46.3413 141.354 46.3531 141.443 46.383C141.534 46.4108 141.617 46.4562 141.69 46.5166C141.763 46.5769 141.823 46.6511 141.866 46.7347C141.91 46.8184 141.937 46.9099 141.945 47.0039C141.953 47.098 141.943 47.1927 141.914 47.2827L140.737 51.0242C140.683 51.1621 140.587 51.2801 140.464 51.3627C140.341 51.4453 140.196 51.4885 140.048 51.4867Z" fill="white" stroke="#263238" stroke-miterlimit="10"/>
<path d="M137.063 61.2231C136.954 61.2234 136.846 61.2063 136.743 61.1726C136.471 61.0856 136.244 60.8946 136.112 60.6411C135.979 60.3876 135.952 60.0921 136.037 59.8189L138.988 50.4441C139.081 50.1806 139.272 49.9636 139.522 49.8388C139.772 49.714 140.061 49.6912 140.327 49.7752C140.593 49.8593 140.817 50.0436 140.95 50.2892C141.083 50.5348 141.115 50.8225 141.04 51.0915L138.088 60.4663C138.022 60.686 137.886 60.8782 137.701 61.0145C137.516 61.1508 137.292 61.224 137.063 61.2231Z" fill="white" stroke="#263238" stroke-miterlimit="10"/>
<path d="M145.092 48.1067C142.872 48.1067 140.702 47.4484 138.856 46.215C137.01 44.9816 135.572 43.2286 134.722 41.1775C133.873 39.1265 133.65 36.8696 134.083 34.6923C134.516 32.5149 135.586 30.5149 137.155 28.9451C138.725 27.3753 140.725 26.3063 142.902 25.8732C145.08 25.4401 147.337 25.6623 149.388 26.5119C151.439 27.3615 153.192 28.8001 154.425 30.646C155.659 32.4919 156.317 34.6621 156.317 36.8821C156.312 39.8577 155.128 42.7101 153.024 44.8141C150.92 46.9182 148.068 48.1022 145.092 48.1067ZM145.092 27.8099C143.298 27.8082 141.543 28.3389 140.05 29.3348C138.557 30.3306 137.393 31.7469 136.705 33.4045C136.017 35.062 135.836 36.8864 136.185 38.6468C136.534 40.4072 137.397 42.0245 138.666 43.2941C139.934 44.5637 141.551 45.4286 143.311 45.7793C145.071 46.13 146.895 45.9509 148.554 45.2645C150.212 44.5781 151.629 43.4153 152.627 41.9232C153.624 40.4311 154.156 38.6767 154.156 36.8821C154.154 34.4781 153.198 32.1731 151.499 30.4725C149.8 28.7719 147.496 27.8144 145.092 27.8099Z" fill="black"/>
<path d="M137.29 51.1756C137.29 51.1756 136.037 50.7215 135.701 51.7389C135.364 52.7563 134.339 54.9087 134.683 55.5897C135.028 56.2708 136.365 56.1531 136.945 55.3627C137.457 54.3177 137.838 53.2136 138.08 52.0752L137.29 51.1756Z" fill="white" stroke="#263238" stroke-miterlimit="10"/>
<path d="M141.931 51.9659L137.29 51.1755C137.144 51.301 137.027 51.4573 136.949 51.6333C136.87 51.8092 136.832 52.0003 136.836 52.1929C136.836 52.8739 135.474 56.8341 135.81 57.7421C136.146 58.6502 140.46 59.7769 140.796 59.2135C141.132 58.6502 142.721 52.5292 142.721 52.5292C142.721 52.5292 142.721 52.0752 141.931 51.9659Z" fill="white" stroke="#263238" stroke-miterlimit="10"/>
<path d="M136.836 52.874L141.023 53.5466" stroke="#263238" stroke-miterlimit="10" stroke-linecap="round"/>
<path d="M136.491 54.6816L140.342 55.5897" stroke="#263238" stroke-miterlimit="10" stroke-linecap="round"/>
<path d="M136.037 56.3801L139.779 57.8515" stroke="#263238" stroke-miterlimit="10" stroke-linecap="round"/>
<path d="M123.61 23.0594C123.61 23.0594 121.987 29.5672 121.987 32.4511C121.987 35.335 121.987 37.706 122.988 37.4958C123.988 37.2856 127.368 30.7695 127.991 28.2471C128.613 25.7247 126.376 20.8061 123.61 23.0594Z" fill="white" stroke="#263238" stroke-miterlimit="10"/>
<path d="M123.257 15.837C123.257 15.837 121.912 13.5332 121.147 15.0634C120.382 16.5937 119.608 20.2511 120.76 21.403C121.912 22.5549 122.299 20.8313 122.299 20.8313C122.299 20.8313 122.492 26.019 124.409 27.936C126.326 29.853 128.445 30.8199 131.522 29.4747C134.599 28.1294 138.433 22.5549 139.585 18.7209C140.196 16.8398 140.646 14.9103 140.931 12.9531C140.931 12.9531 140.165 9.88416 135.743 8.91725C131.32 7.95034 126.721 9.69078 126.721 11.6078C126.721 13.5248 127.68 13.7266 126.528 14.2983C125.935 14.6269 125.278 14.8247 124.602 14.8785C124.602 14.8785 123.837 18.9059 123.257 15.837Z" fill="white" stroke="#263238" stroke-miterlimit="10"/>
<path d="M135.474 19.8476C135.28 20.5202 134.894 20.991 134.633 20.907C134.372 20.8229 134.271 20.2175 134.465 19.5533C134.658 18.8891 135.045 18.4098 135.306 18.4939C135.566 18.578 135.667 19.1749 135.474 19.8476Z" fill="black"/>
<path d="M128.503 17.3L131.253 18.9732" stroke="#263238" stroke-miterlimit="10" stroke-linecap="round"/>
<path d="M134.717 16.5853C134.717 16.5853 136.626 14.7944 137.239 16.9468" stroke="#263238" stroke-miterlimit="10" stroke-linecap="round"/>
<path d="M132.085 16.3499C132.085 16.3499 131.724 13.7182 129.454 14.4329" stroke="#263238" stroke-miterlimit="10" stroke-linecap="round"/>
<path d="M134.002 18.4939C133.627 18.7785 133.315 19.1389 133.088 19.5517C132.86 19.9645 132.722 20.4205 132.682 20.8902C132.682 22.3195 133.876 23.6396 132.8 23.875C131.724 24.1104 130.051 22.9249 130.051 22.9249" stroke="#263238" stroke-miterlimit="10" stroke-linecap="round"/>
<path d="M131.009 25.9097C131.009 25.9097 127.898 26.389 127.545 24.1188" stroke="#263238" stroke-miterlimit="10" stroke-linecap="round"/>
<path d="M137.063 136.827C137.063 136.827 138.862 141.872 140.115 141.872C141.368 141.872 151.432 131.993 151.793 130.942C152.155 129.891 142.452 133.464 142.452 133.464L141.014 132.379L137.063 136.827Z" fill="#DC2626" stroke="#263238" stroke-miterlimit="10"/>
<path d="M149.809 131.009L139.299 141.267C139.594 141.62 139.879 141.864 140.14 141.864C141.401 141.864 151.457 131.984 151.819 130.933C151.936 130.563 151.062 130.689 149.809 131.009Z" fill="white" stroke="#263238" stroke-miterlimit="10"/>
</svg>
