<svg width="320" height="239" viewBox="0 0 320 239" fill="none" xmlns="http://www.w3.org/2000/svg">
<path d="M320 209.536H0V209.696H320V209.536Z" fill="#FAFAFA"/>
<path d="M270.86 216.499H254.969V216.659H270.86V216.499Z" fill="#E0E0E0"/>
<path d="M280.928 216.416H275.559V216.576H280.928V216.416Z" fill="#E0E0E0"/>
<path d="M212.5 217.491H179.227V217.651H212.5V217.491Z" fill="#E0E0E0"/>
<path d="M171.372 219.226H166.412V219.386H171.372V219.226Z" fill="#E0E0E0"/>
<path d="M71.6481 214.163H63.0977V214.323H71.6481V214.163Z" fill="#E0E0E0"/>
<path d="M118.566 214.163H75.1992V214.323H118.566V214.163Z" fill="#E0E0E0"/>
<path d="M81.5993 218.029H51.4297V218.189H81.5993V218.029Z" fill="#E0E0E0"/>
<path d="M151.681 180.992H28.1031C27.135 180.99 26.2071 180.605 25.5232 179.919C24.8392 179.234 24.4551 178.306 24.4551 177.338V3.6224C24.4635 2.65986 24.8514 1.73951 25.5344 1.06126C26.2174 0.383013 27.1405 0.00164889 28.1031 0H151.681C152.65 0 153.579 0.385016 154.265 1.07035C154.95 1.75568 155.335 2.68519 155.335 3.6544V177.338C155.335 178.307 154.95 179.236 154.265 179.922C153.579 180.607 152.65 180.992 151.681 180.992ZM28.1031 0.128C27.1774 0.129696 26.2902 0.498602 25.6363 1.15375C24.9824 1.80889 24.6151 2.69674 24.6151 3.6224V177.338C24.6151 178.263 24.9824 179.151 25.6363 179.806C26.2902 180.461 27.1774 180.83 28.1031 180.832H151.681C152.607 180.83 153.495 180.462 154.15 179.807C154.805 179.152 155.173 178.264 155.175 177.338V3.6224C155.173 2.69615 154.805 1.80832 154.15 1.15335C153.495 0.498394 152.607 0.129692 151.681 0.128H28.1031Z" fill="#E0E0E0"/>
<path d="M290.119 180.992H166.535C165.567 180.99 164.638 180.605 163.953 179.92C163.268 179.235 162.883 178.306 162.881 177.338V3.6224C162.891 2.65927 163.28 1.73893 163.964 1.06086C164.648 0.38279 165.572 0.00163091 166.535 0H290.119C291.081 0.00333088 292.002 0.385439 292.684 1.06351C293.365 1.74157 293.752 2.66096 293.761 3.6224V177.338C293.761 178.305 293.378 179.232 292.695 179.917C292.012 180.602 291.086 180.989 290.119 180.992ZM166.535 0.128C165.609 0.129692 164.721 0.498394 164.066 1.15335C163.411 1.80832 163.043 2.69615 163.041 3.6224V177.338C163.043 178.264 163.411 179.152 164.066 179.807C164.721 180.462 165.609 180.83 166.535 180.832H290.119C291.046 180.83 291.933 180.462 292.588 179.807C293.243 179.152 293.612 178.264 293.614 177.338V3.6224C293.612 2.69615 293.243 1.80832 292.588 1.15335C291.933 0.498394 291.046 0.129692 290.119 0.128H166.535Z" fill="#E0E0E0"/>
<path d="M218.721 209.536H241.332V168.499H218.721V209.536Z" fill="#E0E0E0"/>
<path d="M268.308 168.499H241.332V209.536H268.308V168.499Z" fill="#EBEBEB"/>
<g style="mix-blend-mode:multiply" opacity="0.7">
<path d="M218.721 173.83H268.545V171.974H218.721V173.83Z" fill="#E0E0E0"/>
</g>
<path d="M217.473 172.749H241.332V164.198H217.473V172.749Z" fill="#E0E0E0"/>
<path d="M269.556 164.205H241.332V172.755H269.556V164.205Z" fill="#EBEBEB"/>
<path d="M124.199 12.1536H48.084V102.97H124.199V12.1536Z" fill="#E0E0E0"/>
<path d="M127.686 12.1536H49.7148V102.97H127.686V12.1536Z" fill="#EBEBEB"/>
<path d="M124.199 102.97H48.084V109.44H124.199V102.97Z" fill="#E0E0E0"/>
<path d="M133.485 102.97H55.5137V109.44H133.485V102.97Z" fill="#EBEBEB"/>
<path d="M122.811 98.0928V17.0304L54.5929 17.0304V98.0928H122.811Z" fill="#F5F5F5"/>
<path d="M62.9629 98.0928L91.5773 17.0304H105.081L76.4733 98.0928H62.9629Z" fill="#FAFAFA"/>
<path d="M56.8456 70.592C56.7534 70.5903 56.6655 70.5525 56.6008 70.4866C56.5362 70.4208 56.5 70.3322 56.5 70.24V20.1984C56.5 20.1067 56.5364 20.0188 56.6012 19.954C56.666 19.8892 56.7539 19.8528 56.8456 19.8528C56.9379 19.8528 57.0264 19.889 57.0923 19.9536C57.1581 20.0182 57.1959 20.1061 57.1976 20.1984V70.24C57.1976 70.3333 57.1605 70.4229 57.0945 70.4889C57.0285 70.5549 56.939 70.592 56.8456 70.592Z" fill="#EBEBEB"/>
<path d="M79.373 98.0928L107.987 17.0304H113.255L84.6402 98.0928H79.373Z" fill="#FAFAFA"/>
<path d="M122.803 98.0928V17.0304H122.182V98.0928H122.803Z" fill="#E0E0E0"/>
<path d="M128.832 23.264H52.7234L52.2754 18.9248H128.384L128.832 23.264Z" fill="#E0E0E0"/>
<path d="M128.832 26.4448H52.7234L52.2754 22.0992H128.384L128.832 26.4448Z" fill="#E0E0E0"/>
<path d="M128.832 30.2592H52.7234L52.2754 25.9136H128.384L128.832 30.2592Z" fill="#E0E0E0"/>
<path d="M128.832 34.5024H52.7234L52.2754 30.1632H128.384L128.832 34.5024Z" fill="#E0E0E0"/>
<path d="M128.832 39.5904H52.7234L52.2754 35.2448H128.384L128.832 39.5904Z" fill="#E0E0E0"/>
<path d="M128.832 45.3056H52.7234L52.2754 40.9664H128.384L128.832 45.3056Z" fill="#E0E0E0"/>
<path d="M262.631 12.1536H186.516V102.97H262.631V12.1536Z" fill="#E0E0E0"/>
<path d="M266.112 12.1536H188.141V102.97H266.112V12.1536Z" fill="#EBEBEB"/>
<path d="M262.631 102.97H186.516V109.44H262.631V102.97Z" fill="#E0E0E0"/>
<path d="M271.917 102.97H193.945V109.44H271.917V102.97Z" fill="#EBEBEB"/>
<path d="M261.242 98.0928V17.0304L193.025 17.0304V98.0928H261.242Z" fill="#F5F5F5"/>
<path d="M201.395 98.0928L230.009 17.0304H243.513L214.899 98.0928H201.395Z" fill="#FAFAFA"/>
<path d="M195.277 70.592C195.185 70.5903 195.097 70.5525 195.032 70.4866C194.968 70.4208 194.932 70.3322 194.932 70.24V20.1984C194.932 20.1067 194.968 20.0188 195.033 19.954C195.098 19.8892 195.186 19.8528 195.277 19.8528C195.369 19.8528 195.457 19.8892 195.522 19.954C195.586 20.0188 195.623 20.1067 195.623 20.1984V70.24C195.623 70.3322 195.587 70.4208 195.522 70.4866C195.457 70.5525 195.369 70.5903 195.277 70.592Z" fill="#EBEBEB"/>
<path d="M217.805 98.0928L246.419 17.0304H251.68L223.072 98.0928H217.805Z" fill="#FAFAFA"/>
<path d="M261.234 98.0928V17.0304H260.614V98.0928H261.234Z" fill="#E0E0E0"/>
<path d="M267.264 23.264H191.156L190.701 18.9248H266.816L267.264 23.264Z" fill="#E0E0E0"/>
<path d="M267.264 26.4448H191.156L190.701 22.0992H266.816L267.264 26.4448Z" fill="#E0E0E0"/>
<path d="M267.264 30.2592H191.156L190.701 25.9136H266.816L267.264 30.2592Z" fill="#E0E0E0"/>
<path d="M267.264 34.5024H191.156L190.701 30.1632H266.816L267.264 34.5024Z" fill="#E0E0E0"/>
<path d="M267.264 39.5904H191.156L190.701 35.2448H266.816L267.264 39.5904Z" fill="#E0E0E0"/>
<path d="M267.264 45.3056H191.156L190.701 40.9664H266.816L267.264 45.3056Z" fill="#E0E0E0"/>
<path d="M203.546 151.974H188.346V209.536H203.546V151.974Z" fill="#E0E0E0"/>
<path d="M200.652 209.536H203.539V202.483H197.625L200.652 209.536Z" fill="#F5F5F5"/>
<path d="M56.0379 151.974H40.8379V209.536H56.0379V151.974Z" fill="#E0E0E0"/>
<path d="M203.546 151.974H53.5176V205.658H203.546V151.974Z" fill="#F5F5F5"/>
<path d="M129.498 154.662V192.998H201.306V154.662H129.498Z" fill="#E0E0E0"/>
<path d="M55.7559 154.662V192.998H127.564V154.662H55.7559Z" fill="#E0E0E0"/>
<path d="M201.299 201.101V196.832H129.491V201.101H201.299Z" fill="#E0E0E0"/>
<path d="M127.559 201.107V196.838H55.7506V201.107H127.559Z" fill="#E0E0E0"/>
<path d="M116.947 156.954H66.3866C65.264 156.954 64.1528 156.728 63.12 156.288C62.0872 155.848 61.1541 155.204 60.377 154.394H122.982C122.202 155.207 121.264 155.853 120.227 156.293C119.189 156.733 118.073 156.958 116.947 156.954Z" fill="#F5F5F5"/>
<path d="M190.956 156.954H140.396C139.274 156.954 138.163 156.728 137.13 156.288C136.097 155.848 135.164 155.204 134.387 154.394H196.992C196.213 155.209 195.276 155.856 194.238 156.296C193.2 156.736 192.084 156.96 190.956 156.954Z" fill="#F5F5F5"/>
<path d="M56.4026 209.536H53.5098V202.483H59.4234L56.4026 209.536Z" fill="#F5F5F5"/>
<g style="mix-blend-mode:multiply" opacity="0.4">
<path d="M163.558 116.634H146.637V151.974H163.558V116.634Z" fill="#E0E0E0"/>
</g>
<path d="M177.772 151.974H149.132L146.438 113.811H175.071L177.772 151.974Z" fill="#E0E0E0"/>
<path d="M181.031 151.974H149.946L147.252 113.811H178.33L181.031 151.974Z" fill="#F5F5F5"/>
<path d="M151.386 150.515L148.896 115.27H176.896L179.392 150.515H151.386Z" fill="#FAFAFA"/>
<path d="M158.163 142.624L156.787 123.162H170.118L171.494 142.624H158.163Z" fill="#F5F5F5"/>
<path d="M101.984 145.709C106.091 145.709 109.42 142.379 109.42 138.272C109.42 134.165 106.091 130.835 101.984 130.835C97.8765 130.835 94.5469 134.165 94.5469 138.272C94.5469 142.379 97.8765 145.709 101.984 145.709Z" fill="#EBEBEB"/>
<path d="M114.72 149.254C118.827 149.254 122.157 145.925 122.157 141.818C122.157 137.71 118.827 134.381 114.72 134.381C110.613 134.381 107.283 137.71 107.283 141.818C107.283 145.925 110.613 149.254 114.72 149.254Z" fill="#EBEBEB"/>
<path d="M127.374 143.299C129.907 142.255 131.115 139.356 130.071 136.823C129.028 134.291 126.129 133.083 123.596 134.127C121.063 135.17 119.856 138.069 120.899 140.602C121.943 143.135 124.842 144.342 127.374 143.299Z" fill="#EBEBEB"/>
<path d="M114.33 134.571C114.768 131.867 112.93 129.32 110.226 128.882C107.522 128.444 104.975 130.281 104.537 132.985C104.099 135.689 105.936 138.236 108.64 138.674C111.344 139.112 113.892 137.275 114.33 134.571Z" fill="#EBEBEB"/>
<path d="M90.0938 140.486C90.0938 140.486 90.6761 151.974 112.993 151.974C135.31 151.974 135.892 140.486 135.892 140.486H90.0938Z" fill="#E0E0E0"/>
<path d="M69.4857 148.038C69.4857 148.038 62.2153 135.507 72.3017 125.53C72.3017 125.53 74.9321 127.245 74.8617 129.555C74.7913 131.866 72.0393 132.442 72.6345 134.368C73.2297 136.294 75.8345 138.208 74.1385 139.776C72.4425 141.344 74.4137 142.778 74.2985 144.73C74.1833 146.682 69.4857 148.038 69.4857 148.038Z" fill="#E0E0E0"/>
<path d="M70.0343 149.184C70.0343 149.184 72.9783 135.002 60.2615 128.704C60.2615 128.704 58.3031 131.168 59.0711 133.344C59.8391 135.52 62.6551 135.194 62.6999 137.184C62.7447 139.174 60.8439 141.818 62.9815 142.784C65.1191 143.75 63.6663 145.728 64.3895 147.539C65.1127 149.35 70.0343 149.184 70.0343 149.184Z" fill="#E0E0E0"/>
<path d="M58.8809 142.624C58.8809 142.624 59.1241 151.974 68.3913 151.974C77.6585 151.974 77.9017 142.624 77.9017 142.624H58.8809Z" fill="#EBEBEB"/>
<path d="M160 238.438C228.533 238.438 284.089 235.195 284.089 231.194C284.089 227.192 228.533 223.949 160 223.949C91.467 223.949 35.9102 227.192 35.9102 231.194C35.9102 235.195 91.467 238.438 160 238.438Z" fill="#F5F5F5"/>
<path d="M115.488 139.162C115.108 139.137 114.752 138.968 114.492 138.691C114.233 138.413 114.088 138.047 114.088 137.667C114.088 137.287 114.233 136.921 114.492 136.643C114.752 136.366 115.108 136.198 115.488 136.173C119.148 136.173 122.233 130.931 122.233 124.723C122.258 124.344 122.426 123.988 122.704 123.728C122.981 123.468 123.347 123.323 123.728 123.323C124.108 123.323 124.474 123.468 124.751 123.728C125.029 123.988 125.197 124.344 125.222 124.723C125.222 132.819 120.96 139.162 115.488 139.162Z" fill="#EA580C"/>
<path d="M138.074 139.162C137.694 139.137 137.338 138.968 137.078 138.691C136.818 138.413 136.674 138.047 136.674 137.667C136.674 137.287 136.818 136.921 137.078 136.643C137.338 136.366 137.694 136.198 138.074 136.173C141.734 136.173 144.819 130.931 144.819 124.723C144.844 124.344 145.012 123.988 145.29 123.728C145.567 123.468 145.933 123.323 146.314 123.323C146.694 123.323 147.06 123.468 147.337 123.728C147.615 123.988 147.783 124.344 147.808 124.723C147.84 132.819 143.533 139.162 138.074 139.162Z" fill="#EA580C"/>
<path d="M160.64 139.162C160.261 139.137 159.905 138.968 159.645 138.691C159.385 138.413 159.24 138.047 159.24 137.667C159.24 137.287 159.385 136.921 159.645 136.643C159.905 136.366 160.261 136.198 160.64 136.173C164.294 136.173 167.386 130.931 167.386 124.723C167.386 124.328 167.543 123.948 167.822 123.669C168.102 123.389 168.481 123.232 168.877 123.232C169.272 123.232 169.652 123.389 169.931 123.669C170.211 123.948 170.368 124.328 170.368 124.723C170.387 132.819 166.118 139.162 160.64 139.162Z" fill="#EA580C"/>
<path d="M183.244 139.162C183.039 139.175 182.834 139.146 182.641 139.077C182.449 139.008 182.272 138.9 182.122 138.76C181.973 138.62 181.853 138.451 181.772 138.263C181.69 138.075 181.648 137.872 181.648 137.667C181.648 137.462 181.69 137.259 181.772 137.071C181.853 136.883 181.973 136.714 182.122 136.574C182.272 136.434 182.449 136.326 182.641 136.257C182.834 136.188 183.039 136.159 183.244 136.173C186.898 136.173 189.989 130.931 189.989 124.723C189.989 124.328 190.147 123.948 190.426 123.669C190.706 123.389 191.085 123.232 191.481 123.232C191.876 123.232 192.255 123.389 192.535 123.669C192.815 123.948 192.972 124.328 192.972 124.723C192.972 132.819 188.697 139.162 183.244 139.162Z" fill="#EA580C"/>
<path d="M205.824 139.162C205.444 139.137 205.088 138.968 204.828 138.691C204.568 138.413 204.424 138.047 204.424 137.667C204.424 137.287 204.568 136.921 204.828 136.643C205.088 136.366 205.444 136.198 205.824 136.173C209.484 136.173 212.569 130.931 212.569 124.723C212.594 124.344 212.762 123.988 213.04 123.728C213.317 123.468 213.683 123.323 214.064 123.323C214.444 123.323 214.81 123.468 215.087 123.728C215.365 123.988 215.533 124.344 215.558 124.723C215.558 132.819 211.283 139.162 205.824 139.162Z" fill="#EA580C"/>
<path d="M228.41 139.162C228.03 139.137 227.674 138.968 227.414 138.691C227.154 138.413 227.01 138.047 227.01 137.667C227.01 137.287 227.154 136.921 227.414 136.643C227.674 136.366 228.03 136.198 228.41 136.173C232.064 136.173 235.155 130.931 235.155 124.723C235.18 124.344 235.348 123.988 235.626 123.728C235.903 123.468 236.269 123.323 236.65 123.323C237.03 123.323 237.396 123.468 237.673 123.728C237.951 123.988 238.119 124.344 238.144 124.723C238.144 132.819 233.869 139.162 228.41 139.162Z" fill="#EA580C"/>
<g opacity="0.3">
<path d="M115.488 139.162C115.108 139.137 114.752 138.968 114.492 138.691C114.233 138.413 114.088 138.047 114.088 137.667C114.088 137.287 114.233 136.921 114.492 136.643C114.752 136.366 115.108 136.198 115.488 136.173C119.148 136.173 122.233 130.931 122.233 124.723C122.258 124.344 122.426 123.988 122.704 123.728C122.981 123.468 123.347 123.323 123.728 123.323C124.108 123.323 124.474 123.468 124.751 123.728C125.029 123.988 125.197 124.344 125.222 124.723C125.222 132.819 120.96 139.162 115.488 139.162Z" fill="black"/>
<path d="M138.074 139.162C137.694 139.137 137.338 138.968 137.078 138.691C136.818 138.413 136.674 138.047 136.674 137.667C136.674 137.287 136.818 136.921 137.078 136.643C137.338 136.366 137.694 136.198 138.074 136.173C141.734 136.173 144.819 130.931 144.819 124.723C144.844 124.344 145.012 123.988 145.29 123.728C145.567 123.468 145.933 123.323 146.314 123.323C146.694 123.323 147.06 123.468 147.337 123.728C147.615 123.988 147.783 124.344 147.808 124.723C147.84 132.819 143.533 139.162 138.074 139.162Z" fill="black"/>
<path d="M160.64 139.162C160.261 139.137 159.905 138.968 159.645 138.691C159.385 138.413 159.24 138.047 159.24 137.667C159.24 137.287 159.385 136.921 159.645 136.643C159.905 136.366 160.261 136.198 160.64 136.173C164.294 136.173 167.386 130.931 167.386 124.723C167.386 124.328 167.543 123.948 167.822 123.669C168.102 123.389 168.481 123.232 168.877 123.232C169.272 123.232 169.652 123.389 169.931 123.669C170.211 123.948 170.368 124.328 170.368 124.723C170.387 132.819 166.118 139.162 160.64 139.162Z" fill="black"/>
<path d="M183.244 139.162C183.039 139.175 182.834 139.146 182.641 139.077C182.449 139.008 182.272 138.9 182.122 138.76C181.973 138.62 181.853 138.451 181.772 138.263C181.69 138.075 181.648 137.872 181.648 137.667C181.648 137.462 181.69 137.259 181.772 137.071C181.853 136.883 181.973 136.714 182.122 136.574C182.272 136.434 182.449 136.326 182.641 136.257C182.834 136.188 183.039 136.159 183.244 136.173C186.898 136.173 189.989 130.931 189.989 124.723C189.989 124.328 190.147 123.948 190.426 123.669C190.706 123.389 191.085 123.232 191.481 123.232C191.876 123.232 192.255 123.389 192.535 123.669C192.815 123.948 192.972 124.328 192.972 124.723C192.972 132.819 188.697 139.162 183.244 139.162Z" fill="black"/>
<path d="M205.824 139.162C205.444 139.137 205.088 138.968 204.828 138.691C204.568 138.413 204.424 138.047 204.424 137.667C204.424 137.287 204.568 136.921 204.828 136.643C205.088 136.366 205.444 136.198 205.824 136.173C209.484 136.173 212.569 130.931 212.569 124.723C212.594 124.344 212.762 123.988 213.04 123.728C213.317 123.468 213.683 123.323 214.064 123.323C214.444 123.323 214.81 123.468 215.087 123.728C215.365 123.988 215.533 124.344 215.558 124.723C215.558 132.819 211.283 139.162 205.824 139.162Z" fill="black"/>
<path d="M228.41 139.162C228.03 139.137 227.674 138.968 227.414 138.691C227.154 138.413 227.01 138.047 227.01 137.667C227.01 137.287 227.154 136.921 227.414 136.643C227.674 136.366 228.03 136.198 228.41 136.173C232.064 136.173 235.155 130.931 235.155 124.723C235.18 124.344 235.348 123.988 235.626 123.728C235.903 123.468 236.269 123.323 236.65 123.323C237.03 123.323 237.396 123.468 237.673 123.728C237.951 123.988 238.119 124.344 238.144 124.723C238.144 132.819 233.869 139.162 228.41 139.162Z" fill="black"/>
</g>
<path d="M101.337 126.253H246.733C248.682 126.292 250.55 127.041 251.987 128.359C253.423 129.678 254.329 131.475 254.534 133.414L262.585 224.186C262.683 225.096 262.587 226.018 262.302 226.888C262.017 227.759 261.551 228.559 260.934 229.236C260.317 229.913 259.563 230.452 258.722 230.815C257.882 231.179 256.973 231.361 256.057 231.347H110.656C108.707 231.305 106.84 230.555 105.405 229.237C103.969 227.919 103.062 226.123 102.854 224.186L94.8093 133.414C94.7103 132.503 94.8061 131.582 95.0904 130.711C95.3747 129.839 95.841 129.039 96.4583 128.361C97.0756 127.684 97.8299 127.146 98.6711 126.782C99.5122 126.419 100.421 126.238 101.337 126.253Z" fill="#EA580C"/>
<path opacity="0.4" d="M101.337 126.253H246.733C248.682 126.292 250.55 127.041 251.987 128.359C253.423 129.678 254.329 131.475 254.534 133.414L262.585 224.186C262.683 225.096 262.587 226.018 262.302 226.888C262.017 227.759 261.551 228.559 260.934 229.236C260.317 229.913 259.563 230.452 258.722 230.815C257.882 231.179 256.973 231.361 256.057 231.347H110.656C108.707 231.305 106.84 230.555 105.405 229.237C103.969 227.919 103.062 226.123 102.854 224.186L94.8093 133.414C94.7103 132.503 94.8061 131.582 95.0904 130.711C95.3747 129.839 95.841 129.039 96.4583 128.361C97.0756 127.684 97.8299 127.146 98.6711 126.782C99.5122 126.419 100.421 126.238 101.337 126.253Z" fill="#FAFAFA"/>
<path d="M245.522 126.253H100.121C98.1976 126.276 96.3548 127.028 94.9648 128.357C93.5748 129.686 92.7413 131.494 92.6328 133.414L88.5368 224.185C88.488 225.11 88.6285 226.035 88.9497 226.904C89.2709 227.772 89.766 228.566 90.4047 229.236C91.0434 229.907 91.8123 230.44 92.6642 230.803C93.5162 231.166 94.4332 231.351 95.3592 231.347H240.774C242.697 231.324 244.54 230.572 245.93 229.243C247.32 227.913 248.153 226.106 248.262 224.185L252.364 133.414C252.412 132.488 252.27 131.562 251.948 130.693C251.625 129.823 251.128 129.029 250.487 128.358C249.847 127.688 249.076 127.155 248.222 126.793C247.368 126.431 246.45 126.247 245.522 126.253Z" fill="#EA580C"/>
<path opacity="0.2" d="M245.522 126.253H100.121C98.1976 126.276 96.3548 127.028 94.9648 128.357C93.5748 129.686 92.7413 131.494 92.6328 133.414L88.5368 224.185C88.488 225.11 88.6285 226.035 88.9497 226.904C89.2709 227.772 89.766 228.566 90.4047 229.236C91.0434 229.907 91.8123 230.44 92.6642 230.803C93.5162 231.166 94.4332 231.351 95.3592 231.347H240.774C242.697 231.324 244.54 230.572 245.93 229.243C247.32 227.913 248.153 226.106 248.262 224.185L252.364 133.414C252.412 132.488 252.27 131.562 251.948 130.693C251.625 129.823 251.128 129.029 250.487 128.358C249.847 127.688 249.076 127.155 248.222 126.793C247.368 126.431 246.45 126.247 245.522 126.253Z" fill="#FAFAFA"/>
<path d="M102.789 207.36L106.174 132.397C106.215 131.661 106.534 130.969 107.066 130.46C107.599 129.952 108.305 129.665 109.041 129.658H236.293C236.647 129.655 236.999 129.726 237.325 129.864C237.652 130.002 237.947 130.206 238.192 130.463C238.437 130.719 238.627 131.023 238.751 131.356C238.874 131.688 238.929 132.042 238.91 132.397L235.518 207.36C235.478 208.095 235.159 208.788 234.626 209.296C234.094 209.805 233.387 210.092 232.651 210.099H105.406C105.051 210.101 104.7 210.031 104.373 209.893C104.047 209.754 103.752 209.55 103.507 209.294C103.262 209.037 103.072 208.734 102.948 208.401C102.825 208.068 102.77 207.714 102.789 207.36Z" fill="#EA580C"/>
<path opacity="0.1" d="M102.789 207.36L106.174 132.397C106.215 131.661 106.534 130.969 107.066 130.46C107.599 129.952 108.305 129.665 109.041 129.658H236.293C236.647 129.655 236.999 129.726 237.325 129.864C237.652 130.002 237.947 130.206 238.192 130.463C238.437 130.719 238.627 131.023 238.751 131.356C238.874 131.688 238.929 132.042 238.91 132.397L235.518 207.36C235.478 208.095 235.159 208.788 234.626 209.296C234.094 209.805 233.387 210.092 232.651 210.099H105.406C105.051 210.101 104.7 210.031 104.373 209.893C104.047 209.754 103.752 209.55 103.507 209.294C103.262 209.037 103.072 208.734 102.948 208.401C102.825 208.068 102.77 207.714 102.789 207.36Z" fill="#FAFAFA"/>
<path opacity="0.1" d="M99.2 213.478L102.752 134.758C102.793 133.986 103.127 133.259 103.686 132.725C104.245 132.191 104.987 131.89 105.76 131.885H239.392C239.764 131.882 240.133 131.955 240.477 132.1C240.82 132.245 241.129 132.458 241.386 132.728C241.644 132.997 241.843 133.316 241.972 133.665C242.101 134.014 242.158 134.386 242.138 134.758L238.579 213.478C238.539 214.25 238.206 214.977 237.648 215.512C237.091 216.047 236.35 216.35 235.578 216.358H101.933C101.561 216.361 101.192 216.287 100.85 216.141C100.507 215.995 100.198 215.781 99.9422 215.511C99.6861 215.241 99.488 214.921 99.3604 214.571C99.2327 214.222 99.1781 213.85 99.2 213.478Z" fill="black"/>
<path d="M95.8971 219.827L99.6027 137.715C99.6524 136.912 100.003 136.157 100.584 135.601C101.165 135.045 101.934 134.728 102.739 134.713H242.137C242.526 134.71 242.911 134.787 243.27 134.938C243.628 135.09 243.951 135.313 244.22 135.594C244.489 135.875 244.697 136.209 244.832 136.573C244.967 136.938 245.025 137.327 245.004 137.715L241.28 219.827C241.23 220.63 240.879 221.385 240.298 221.941C239.717 222.497 238.948 222.814 238.144 222.829H98.7643C98.3751 222.833 97.9893 222.757 97.6306 222.606C97.272 222.455 96.9482 222.231 96.6794 221.95C96.4106 221.669 96.2024 221.335 96.0678 220.97C95.9333 220.605 95.8752 220.216 95.8971 219.827Z" fill="#FAFAFA"/>
<path d="M228.39 139.635C228.128 139.636 227.869 139.582 227.628 139.479C227.387 139.375 227.17 139.223 226.99 139.033C226.81 138.842 226.671 138.617 226.582 138.37C226.493 138.124 226.455 137.862 226.47 137.6C226.495 137.086 226.714 136.602 227.084 136.245C227.454 135.888 227.947 135.686 228.461 135.68C228.723 135.679 228.982 135.733 229.223 135.836C229.464 135.94 229.681 136.092 229.861 136.282C230.041 136.473 230.18 136.699 230.269 136.945C230.358 137.191 230.396 137.453 230.381 137.715C230.356 138.229 230.137 138.713 229.767 139.07C229.397 139.427 228.904 139.629 228.39 139.635Z" fill="#EA580C"/>
<path d="M205.804 139.635C205.542 139.636 205.283 139.582 205.042 139.479C204.801 139.375 204.584 139.223 204.404 139.033C204.224 138.842 204.085 138.617 203.996 138.37C203.907 138.124 203.869 137.862 203.884 137.6C203.909 137.086 204.128 136.602 204.498 136.245C204.868 135.888 205.361 135.686 205.875 135.68C206.137 135.679 206.396 135.733 206.637 135.836C206.878 135.94 207.095 136.092 207.275 136.282C207.455 136.473 207.594 136.699 207.683 136.945C207.772 137.191 207.81 137.453 207.795 137.715C207.772 138.229 207.553 138.715 207.182 139.072C206.812 139.429 206.319 139.631 205.804 139.635Z" fill="#EA580C"/>
<path d="M183.218 139.635C182.956 139.636 182.697 139.582 182.456 139.479C182.215 139.375 181.998 139.223 181.818 139.033C181.638 138.842 181.5 138.617 181.41 138.37C181.321 138.124 181.283 137.862 181.298 137.6C181.324 137.087 181.544 136.603 181.914 136.247C182.284 135.89 182.775 135.687 183.289 135.68C183.551 135.679 183.81 135.733 184.051 135.836C184.292 135.94 184.509 136.092 184.689 136.282C184.869 136.473 185.008 136.699 185.097 136.945C185.186 137.191 185.225 137.453 185.209 137.715C185.186 138.229 184.967 138.715 184.596 139.072C184.226 139.429 183.733 139.631 183.218 139.635Z" fill="#EA580C"/>
<path d="M160.638 139.635C160.376 139.636 160.117 139.582 159.876 139.479C159.635 139.375 159.418 139.223 159.238 139.033C159.058 138.842 158.919 138.617 158.83 138.37C158.741 138.124 158.703 137.862 158.718 137.6C158.746 137.086 158.967 136.603 159.338 136.246C159.709 135.89 160.201 135.687 160.715 135.68C160.977 135.679 161.237 135.733 161.477 135.836C161.718 135.94 161.935 136.092 162.115 136.282C162.295 136.473 162.434 136.699 162.523 136.945C162.613 137.191 162.651 137.453 162.635 137.715C162.612 138.23 162.392 138.717 162.02 139.074C161.649 139.432 161.154 139.632 160.638 139.635Z" fill="#EA580C"/>
<path d="M138.054 139.635C137.792 139.636 137.533 139.582 137.292 139.479C137.051 139.375 136.834 139.223 136.654 139.033C136.474 138.842 136.335 138.617 136.246 138.37C136.157 138.124 136.119 137.862 136.134 137.6C136.159 137.086 136.378 136.602 136.748 136.245C137.118 135.888 137.611 135.686 138.125 135.68C138.387 135.679 138.646 135.733 138.887 135.836C139.128 135.94 139.345 136.092 139.525 136.282C139.705 136.473 139.844 136.699 139.933 136.945C140.022 137.191 140.06 137.453 140.045 137.715C140.02 138.229 139.801 138.713 139.431 139.07C139.061 139.427 138.568 139.629 138.054 139.635Z" fill="#EA580C"/>
<path d="M115.468 139.635C115.206 139.636 114.947 139.582 114.706 139.479C114.465 139.375 114.248 139.223 114.068 139.033C113.888 138.842 113.75 138.617 113.66 138.37C113.571 138.124 113.533 137.862 113.548 137.6C113.573 137.086 113.792 136.602 114.162 136.245C114.532 135.888 115.025 135.686 115.539 135.68C115.801 135.679 116.06 135.733 116.301 135.836C116.542 135.94 116.759 136.092 116.939 136.282C117.119 136.473 117.258 136.699 117.347 136.945C117.436 137.191 117.475 137.453 117.459 137.715C117.436 138.229 117.217 138.715 116.846 139.072C116.476 139.429 115.983 139.631 115.468 139.635Z" fill="#EA580C"/>
<g opacity="0.1">
<path d="M228.39 139.635C228.128 139.636 227.869 139.582 227.628 139.479C227.387 139.375 227.17 139.223 226.99 139.033C226.81 138.842 226.671 138.617 226.582 138.37C226.493 138.124 226.455 137.862 226.47 137.6C226.495 137.086 226.714 136.602 227.084 136.245C227.454 135.888 227.947 135.686 228.461 135.68C228.723 135.679 228.982 135.733 229.223 135.836C229.464 135.94 229.681 136.092 229.861 136.282C230.041 136.473 230.18 136.699 230.269 136.945C230.358 137.191 230.396 137.453 230.381 137.715C230.356 138.229 230.137 138.713 229.767 139.07C229.397 139.427 228.904 139.629 228.39 139.635Z" fill="#FAFAFA"/>
<path d="M205.804 139.635C205.542 139.636 205.283 139.582 205.042 139.479C204.801 139.375 204.584 139.223 204.404 139.033C204.224 138.842 204.085 138.617 203.996 138.37C203.907 138.124 203.869 137.862 203.884 137.6C203.909 137.086 204.128 136.602 204.498 136.245C204.868 135.888 205.361 135.686 205.875 135.68C206.137 135.679 206.396 135.733 206.637 135.836C206.878 135.94 207.095 136.092 207.275 136.282C207.455 136.473 207.594 136.699 207.683 136.945C207.772 137.191 207.81 137.453 207.795 137.715C207.772 138.229 207.553 138.715 207.182 139.072C206.812 139.429 206.319 139.631 205.804 139.635Z" fill="#FAFAFA"/>
<path d="M183.218 139.635C182.956 139.636 182.697 139.582 182.456 139.479C182.215 139.375 181.998 139.223 181.818 139.033C181.638 138.842 181.5 138.617 181.41 138.37C181.321 138.124 181.283 137.862 181.298 137.6C181.324 137.087 181.544 136.603 181.914 136.247C182.284 135.89 182.775 135.687 183.289 135.68C183.551 135.679 183.81 135.733 184.051 135.836C184.292 135.94 184.509 136.092 184.689 136.282C184.869 136.473 185.008 136.699 185.097 136.945C185.186 137.191 185.225 137.453 185.209 137.715C185.186 138.229 184.967 138.715 184.596 139.072C184.226 139.429 183.733 139.631 183.218 139.635Z" fill="#FAFAFA"/>
<path d="M160.64 139.635C160.378 139.636 160.119 139.582 159.878 139.479C159.637 139.375 159.42 139.223 159.24 139.033C159.06 138.842 158.921 138.617 158.832 138.37C158.743 138.124 158.705 137.862 158.72 137.6C158.748 137.086 158.969 136.603 159.34 136.246C159.711 135.89 160.203 135.687 160.717 135.68C160.979 135.679 161.239 135.733 161.479 135.836C161.72 135.94 161.937 136.092 162.117 136.282C162.297 136.473 162.436 136.699 162.525 136.945C162.615 137.191 162.653 137.453 162.637 137.715C162.614 138.23 162.394 138.717 162.022 139.074C161.651 139.432 161.156 139.632 160.64 139.635Z" fill="#FAFAFA"/>
<path d="M138.054 139.635C137.792 139.636 137.533 139.582 137.292 139.479C137.051 139.375 136.834 139.223 136.654 139.033C136.474 138.842 136.335 138.617 136.246 138.37C136.157 138.124 136.119 137.862 136.134 137.6C136.159 137.086 136.378 136.602 136.748 136.245C137.118 135.888 137.611 135.686 138.125 135.68C138.387 135.679 138.646 135.733 138.887 135.836C139.128 135.94 139.345 136.092 139.525 136.282C139.705 136.473 139.844 136.699 139.933 136.945C140.022 137.191 140.06 137.453 140.045 137.715C140.02 138.229 139.801 138.713 139.431 139.07C139.061 139.427 138.568 139.629 138.054 139.635Z" fill="#FAFAFA"/>
<path d="M115.468 139.635C115.206 139.636 114.947 139.582 114.706 139.479C114.465 139.375 114.248 139.223 114.068 139.033C113.888 138.842 113.75 138.617 113.66 138.37C113.571 138.124 113.533 137.862 113.548 137.6C113.573 137.086 113.792 136.602 114.162 136.245C114.532 135.888 115.025 135.686 115.539 135.68C115.801 135.679 116.06 135.733 116.301 135.836C116.542 135.94 116.759 136.092 116.939 136.282C117.119 136.473 117.258 136.699 117.347 136.945C117.436 137.191 117.475 137.453 117.459 137.715C117.436 138.229 117.217 138.715 116.846 139.072C116.476 139.429 115.983 139.631 115.468 139.635Z" fill="#FAFAFA"/>
</g>
<path d="M121.113 146.79H109.753C109.588 146.792 109.425 146.759 109.274 146.694C109.122 146.629 108.986 146.533 108.874 146.413C108.761 146.293 108.675 146.15 108.62 145.995C108.566 145.84 108.544 145.674 108.556 145.51C108.569 145.175 108.708 144.857 108.945 144.619C109.182 144.382 109.501 144.243 109.836 144.23H121.196C121.361 144.229 121.524 144.262 121.675 144.327C121.827 144.392 121.963 144.487 122.075 144.608C122.188 144.728 122.274 144.87 122.329 145.026C122.384 145.181 122.405 145.346 122.393 145.51C122.38 145.846 122.241 146.164 122.004 146.401C121.767 146.639 121.448 146.778 121.113 146.79Z" fill="#EA580C"/>
<path d="M143.699 146.79H132.339C132.174 146.792 132.011 146.759 131.86 146.694C131.708 146.629 131.572 146.533 131.46 146.413C131.347 146.293 131.261 146.15 131.206 145.995C131.151 145.84 131.13 145.674 131.142 145.51C131.155 145.169 131.299 144.847 131.543 144.609C131.787 144.37 132.113 144.235 132.454 144.23H143.808C143.973 144.229 144.136 144.262 144.288 144.327C144.439 144.392 144.576 144.487 144.689 144.607C144.802 144.728 144.889 144.87 144.944 145.025C145 145.181 145.022 145.346 145.011 145.51C144.998 145.851 144.854 146.174 144.61 146.412C144.366 146.65 144.04 146.786 143.699 146.79Z" fill="#EA580C"/>
<path d="M166.285 146.79H154.925C154.76 146.792 154.596 146.759 154.445 146.694C154.293 146.629 154.157 146.533 154.044 146.413C153.931 146.293 153.844 146.151 153.788 145.995C153.733 145.84 153.71 145.675 153.722 145.51C153.735 145.169 153.878 144.847 154.122 144.609C154.366 144.37 154.693 144.235 155.034 144.23H166.4C166.565 144.229 166.728 144.262 166.879 144.327C167.031 144.392 167.167 144.487 167.279 144.608C167.392 144.728 167.478 144.87 167.533 145.026C167.587 145.181 167.609 145.346 167.597 145.51C167.585 145.852 167.442 146.175 167.198 146.414C166.953 146.652 166.626 146.787 166.285 146.79Z" fill="#EA580C"/>
<path d="M188.863 146.79H177.503C177.338 146.792 177.175 146.759 177.024 146.694C176.872 146.629 176.736 146.533 176.624 146.413C176.511 146.293 176.425 146.15 176.37 145.995C176.316 145.84 176.294 145.674 176.306 145.51C176.319 145.175 176.458 144.857 176.695 144.619C176.932 144.382 177.251 144.243 177.586 144.23H188.946C189.111 144.229 189.274 144.262 189.425 144.327C189.577 144.392 189.713 144.487 189.825 144.608C189.938 144.728 190.024 144.87 190.079 145.026C190.133 145.181 190.155 145.346 190.143 145.51C190.13 145.846 189.991 146.164 189.754 146.401C189.517 146.639 189.198 146.778 188.863 146.79Z" fill="#EA580C"/>
<path d="M211.449 146.79H200.089C199.924 146.792 199.761 146.759 199.61 146.694C199.458 146.629 199.322 146.533 199.21 146.413C199.097 146.293 199.011 146.15 198.956 145.995C198.901 145.84 198.88 145.674 198.892 145.51C198.905 145.169 199.049 144.847 199.293 144.609C199.537 144.37 199.863 144.235 200.204 144.23H211.564C211.729 144.229 211.892 144.262 212.043 144.327C212.195 144.392 212.331 144.487 212.443 144.608C212.556 144.728 212.642 144.87 212.697 145.026C212.751 145.181 212.773 145.346 212.761 145.51C212.748 145.851 212.604 146.174 212.36 146.412C212.116 146.65 211.79 146.786 211.449 146.79Z" fill="#EA580C"/>
<path d="M234.035 146.79H222.675C222.51 146.792 222.347 146.759 222.196 146.694C222.044 146.629 221.908 146.533 221.795 146.413C221.683 146.293 221.597 146.15 221.542 145.995C221.487 145.84 221.466 145.674 221.478 145.51C221.491 145.169 221.634 144.847 221.879 144.609C222.123 144.37 222.449 144.235 222.79 144.23H234.144C234.309 144.229 234.472 144.262 234.624 144.327C234.775 144.392 234.912 144.487 235.025 144.607C235.138 144.728 235.225 144.87 235.28 145.025C235.336 145.181 235.358 145.346 235.347 145.51C235.334 145.851 235.19 146.174 234.946 146.412C234.702 146.65 234.376 146.786 234.035 146.79Z" fill="#EA580C"/>
<g opacity="0.3">
<path d="M121.113 146.79H109.753C109.588 146.792 109.425 146.759 109.274 146.694C109.122 146.629 108.986 146.533 108.874 146.413C108.761 146.293 108.675 146.15 108.62 145.995C108.566 145.84 108.544 145.674 108.556 145.51C108.569 145.175 108.708 144.857 108.945 144.619C109.182 144.382 109.501 144.243 109.836 144.23H121.196C121.361 144.229 121.524 144.262 121.675 144.327C121.827 144.392 121.963 144.487 122.075 144.608C122.188 144.728 122.274 144.87 122.329 145.026C122.384 145.181 122.405 145.346 122.393 145.51C122.38 145.846 122.241 146.164 122.004 146.401C121.767 146.639 121.448 146.778 121.113 146.79Z" fill="black"/>
<path d="M143.699 146.79H132.339C132.174 146.792 132.011 146.759 131.86 146.694C131.708 146.629 131.572 146.533 131.46 146.413C131.347 146.293 131.261 146.15 131.206 145.995C131.151 145.84 131.13 145.674 131.142 145.51C131.155 145.169 131.299 144.847 131.543 144.609C131.787 144.37 132.113 144.235 132.454 144.23H143.808C143.973 144.229 144.136 144.262 144.288 144.327C144.439 144.392 144.576 144.487 144.689 144.607C144.802 144.728 144.889 144.87 144.944 145.025C145 145.181 145.022 145.346 145.011 145.51C144.998 145.851 144.854 146.174 144.61 146.412C144.366 146.65 144.04 146.786 143.699 146.79Z" fill="black"/>
<path d="M166.285 146.79H154.925C154.76 146.792 154.596 146.759 154.445 146.694C154.293 146.629 154.157 146.533 154.044 146.413C153.931 146.293 153.844 146.151 153.788 145.995C153.733 145.84 153.71 145.675 153.722 145.51C153.735 145.169 153.878 144.847 154.122 144.609C154.366 144.37 154.693 144.235 155.034 144.23H166.4C166.565 144.229 166.728 144.262 166.879 144.327C167.031 144.392 167.167 144.487 167.279 144.608C167.392 144.728 167.478 144.87 167.533 145.026C167.587 145.181 167.609 145.346 167.597 145.51C167.585 145.852 167.442 146.175 167.198 146.414C166.953 146.652 166.626 146.787 166.285 146.79Z" fill="black"/>
<path d="M188.863 146.79H177.503C177.338 146.792 177.175 146.759 177.024 146.694C176.872 146.629 176.736 146.533 176.624 146.413C176.511 146.293 176.425 146.15 176.37 145.995C176.316 145.84 176.294 145.674 176.306 145.51C176.319 145.175 176.458 144.857 176.695 144.619C176.932 144.382 177.251 144.243 177.586 144.23H188.946C189.111 144.229 189.274 144.262 189.425 144.327C189.577 144.392 189.713 144.487 189.825 144.608C189.938 144.728 190.024 144.87 190.079 145.026C190.133 145.181 190.155 145.346 190.143 145.51C190.13 145.846 189.991 146.164 189.754 146.401C189.517 146.639 189.198 146.778 188.863 146.79Z" fill="black"/>
<path d="M211.449 146.79H200.089C199.924 146.792 199.761 146.759 199.61 146.694C199.458 146.629 199.322 146.533 199.21 146.413C199.097 146.293 199.011 146.15 198.956 145.995C198.901 145.84 198.88 145.674 198.892 145.51C198.905 145.169 199.049 144.847 199.293 144.609C199.537 144.37 199.863 144.235 200.204 144.23H211.564C211.729 144.229 211.892 144.262 212.043 144.327C212.195 144.392 212.331 144.487 212.443 144.608C212.556 144.728 212.642 144.87 212.697 145.026C212.751 145.181 212.773 145.346 212.761 145.51C212.748 145.851 212.604 146.174 212.36 146.412C212.116 146.65 211.79 146.786 211.449 146.79Z" fill="black"/>
<path d="M234.035 146.79H222.675C222.51 146.792 222.347 146.759 222.196 146.694C222.044 146.629 221.908 146.533 221.795 146.413C221.683 146.293 221.597 146.15 221.542 145.995C221.487 145.84 221.466 145.674 221.478 145.51C221.491 145.169 221.634 144.847 221.879 144.609C222.123 144.37 222.449 144.235 222.79 144.23H234.144C234.309 144.229 234.472 144.262 234.624 144.327C234.775 144.392 234.912 144.487 235.025 144.607C235.138 144.728 235.225 144.87 235.28 145.025C235.336 145.181 235.358 145.346 235.347 145.51C235.334 145.851 235.19 146.174 234.946 146.412C234.702 146.65 234.376 146.786 234.035 146.79Z" fill="black"/>
</g>
<path d="M121.74 170.963H106.944C106.619 170.964 106.298 170.899 105.999 170.772C105.7 170.645 105.431 170.459 105.207 170.224C104.983 169.989 104.809 169.711 104.696 169.407C104.583 169.102 104.533 168.778 104.55 168.454L105.19 153.657C105.229 152.985 105.521 152.352 106.008 151.887C106.495 151.421 107.14 151.157 107.814 151.149H122.611C122.935 151.147 123.257 151.212 123.555 151.339C123.854 151.467 124.123 151.653 124.347 151.888C124.571 152.123 124.745 152.401 124.858 152.705C124.971 153.009 125.021 153.333 125.004 153.657L124.364 168.454C124.324 169.126 124.031 169.758 123.545 170.224C123.058 170.689 122.414 170.953 121.74 170.963Z" fill="#EA580C"/>
<path d="M144.325 170.963H129.528C129.203 170.965 128.881 170.901 128.582 170.774C128.283 170.647 128.013 170.461 127.789 170.226C127.565 169.991 127.391 169.712 127.279 169.408C127.166 169.103 127.117 168.779 127.134 168.454L127.774 153.657C127.813 152.985 128.105 152.352 128.592 151.887C129.079 151.421 129.725 151.157 130.398 151.149H145.214C145.539 151.147 145.861 151.212 146.16 151.339C146.459 151.466 146.729 151.653 146.953 151.888C147.178 152.122 147.352 152.4 147.466 152.705C147.579 153.009 147.63 153.333 147.614 153.657L146.942 168.454C146.905 169.126 146.614 169.759 146.128 170.225C145.642 170.691 144.998 170.954 144.325 170.963Z" fill="#EA580C"/>
<path d="M166.904 170.963H152.114C151.789 170.964 151.467 170.899 151.168 170.772C150.869 170.645 150.599 170.459 150.375 170.224C150.15 169.989 149.976 169.711 149.862 169.407C149.749 169.103 149.698 168.779 149.714 168.454L150.354 153.658C150.393 152.985 150.685 152.352 151.172 151.887C151.659 151.421 152.304 151.157 152.978 151.149H167.768C168.093 151.147 168.415 151.211 168.714 151.338C169.013 151.464 169.283 151.651 169.507 151.886C169.731 152.121 169.905 152.399 170.017 152.704C170.13 153.009 170.179 153.333 170.162 153.658L169.522 168.454C169.483 169.126 169.192 169.758 168.706 170.223C168.22 170.689 167.577 170.953 166.904 170.963Z" fill="#EA580C"/>
<path d="M189.491 170.963H174.72C174.394 170.965 174.072 170.901 173.773 170.774C173.474 170.648 173.203 170.461 172.979 170.226C172.754 169.991 172.58 169.713 172.466 169.408C172.353 169.104 172.303 168.779 172.32 168.454L172.96 153.657C172.997 152.985 173.288 152.353 173.774 151.887C174.26 151.421 174.904 151.157 175.577 151.149H190.374C190.698 151.147 191.02 151.212 191.318 151.339C191.617 151.467 191.887 151.653 192.111 151.888C192.335 152.123 192.508 152.401 192.621 152.705C192.734 153.009 192.784 153.333 192.768 153.657L192.128 168.454C192.089 169.129 191.794 169.764 191.305 170.23C190.815 170.696 190.167 170.958 189.491 170.963Z" fill="#EA580C"/>
<path d="M212.076 170.963H197.28C196.955 170.964 196.634 170.9 196.335 170.772C196.036 170.645 195.767 170.459 195.543 170.224C195.319 169.989 195.145 169.711 195.032 169.407C194.919 169.103 194.869 168.778 194.886 168.454L195.526 153.658C195.565 152.985 195.857 152.352 196.344 151.887C196.831 151.421 197.476 151.157 198.15 151.149H212.94C213.265 151.147 213.587 151.211 213.887 151.338C214.186 151.464 214.456 151.651 214.681 151.886C214.906 152.121 215.08 152.399 215.194 152.704C215.307 153.008 215.357 153.333 215.34 153.658L214.7 168.454C214.66 169.126 214.367 169.758 213.881 170.224C213.394 170.689 212.749 170.953 212.076 170.963Z" fill="#EA580C"/>
<path d="M234.654 170.963H219.864C219.539 170.965 219.217 170.901 218.918 170.774C218.619 170.647 218.349 170.461 218.125 170.226C217.901 169.991 217.727 169.712 217.614 169.408C217.502 169.103 217.453 168.779 217.47 168.454L218.11 153.657C218.149 152.985 218.441 152.352 218.928 151.887C219.415 151.421 220.061 151.157 220.734 151.149H235.525C235.849 151.147 236.171 151.212 236.47 151.339C236.769 151.466 237.039 151.653 237.263 151.888C237.488 152.122 237.662 152.4 237.776 152.705C237.89 153.009 237.94 153.333 237.925 153.657L237.253 168.454C237.216 169.123 236.927 169.753 236.446 170.218C235.964 170.684 235.324 170.95 234.654 170.963Z" fill="#EA580C"/>
<g opacity="0.8">
<path d="M121.74 170.963H106.944C106.619 170.964 106.298 170.899 105.999 170.772C105.7 170.645 105.431 170.459 105.207 170.224C104.983 169.989 104.809 169.711 104.696 169.407C104.583 169.102 104.533 168.778 104.55 168.454L105.19 153.657C105.229 152.985 105.521 152.352 106.008 151.887C106.495 151.421 107.14 151.157 107.814 151.149H122.611C122.935 151.147 123.257 151.212 123.555 151.339C123.854 151.467 124.123 151.653 124.347 151.888C124.571 152.123 124.745 152.401 124.858 152.705C124.971 153.009 125.021 153.333 125.004 153.657L124.364 168.454C124.324 169.126 124.031 169.758 123.545 170.224C123.058 170.689 122.414 170.953 121.74 170.963Z" fill="#FAFAFA"/>
<path d="M144.327 170.963H129.53C129.205 170.965 128.883 170.901 128.584 170.774C128.285 170.647 128.015 170.461 127.791 170.226C127.567 169.991 127.393 169.712 127.28 169.408C127.168 169.103 127.119 168.779 127.136 168.454L127.776 153.657C127.815 152.985 128.107 152.352 128.594 151.887C129.081 151.421 129.727 151.157 130.4 151.149H145.216C145.541 151.147 145.863 151.212 146.162 151.339C146.461 151.466 146.731 151.653 146.955 151.888C147.18 152.122 147.354 152.4 147.468 152.705C147.581 153.009 147.632 153.333 147.616 153.657L146.944 168.454C146.907 169.126 146.616 169.759 146.13 170.225C145.644 170.691 145 170.954 144.327 170.963Z" fill="#FAFAFA"/>
<path d="M166.906 170.963H152.116C151.791 170.964 151.469 170.899 151.17 170.772C150.871 170.645 150.601 170.459 150.377 170.224C150.152 169.989 149.978 169.711 149.864 169.407C149.751 169.103 149.7 168.779 149.716 168.454L150.356 153.658C150.394 152.985 150.687 152.352 151.174 151.887C151.661 151.421 152.306 151.157 152.98 151.149H167.77C168.095 151.147 168.417 151.211 168.716 151.338C169.015 151.464 169.285 151.651 169.509 151.886C169.733 152.121 169.907 152.399 170.019 152.704C170.132 153.009 170.181 153.333 170.164 153.658L169.524 168.454C169.485 169.126 169.193 169.758 168.708 170.223C168.222 170.689 167.579 170.953 166.906 170.963Z" fill="#FAFAFA"/>
<path d="M189.491 170.963H174.72C174.394 170.965 174.072 170.901 173.773 170.774C173.474 170.648 173.203 170.461 172.979 170.226C172.754 169.991 172.58 169.713 172.466 169.408C172.353 169.104 172.303 168.779 172.32 168.454L172.96 153.657C172.997 152.985 173.288 152.353 173.774 151.887C174.26 151.421 174.904 151.157 175.577 151.149H190.374C190.698 151.147 191.02 151.212 191.318 151.339C191.617 151.467 191.887 151.653 192.111 151.888C192.335 152.123 192.508 152.401 192.621 152.705C192.734 153.009 192.784 153.333 192.768 153.657L192.128 168.454C192.089 169.129 191.794 169.764 191.305 170.23C190.815 170.696 190.167 170.958 189.491 170.963Z" fill="#FAFAFA"/>
<path d="M212.076 170.963H197.28C196.955 170.964 196.634 170.9 196.335 170.772C196.036 170.645 195.767 170.459 195.543 170.224C195.319 169.989 195.145 169.711 195.032 169.407C194.919 169.103 194.869 168.778 194.886 168.454L195.526 153.658C195.565 152.985 195.857 152.352 196.344 151.887C196.831 151.421 197.476 151.157 198.15 151.149H212.94C213.265 151.147 213.587 151.211 213.887 151.338C214.186 151.464 214.456 151.651 214.681 151.886C214.906 152.121 215.08 152.399 215.194 152.704C215.307 153.008 215.357 153.333 215.34 153.658L214.7 168.454C214.66 169.126 214.367 169.758 213.881 170.224C213.394 170.689 212.749 170.953 212.076 170.963Z" fill="#FAFAFA"/>
<path d="M234.656 170.963H219.866C219.541 170.965 219.219 170.901 218.92 170.774C218.621 170.647 218.351 170.461 218.127 170.226C217.903 169.991 217.729 169.712 217.616 169.408C217.504 169.103 217.455 168.779 217.472 168.454L218.112 153.657C218.151 152.985 218.443 152.352 218.93 151.887C219.417 151.421 220.063 151.157 220.736 151.149H235.527C235.851 151.147 236.173 151.212 236.472 151.339C236.771 151.466 237.041 151.653 237.265 151.888C237.49 152.122 237.664 152.4 237.778 152.705C237.892 153.009 237.942 153.333 237.927 153.657L237.255 168.454C237.218 169.123 236.929 169.753 236.448 170.218C235.966 170.684 235.326 170.95 234.656 170.963Z" fill="#FAFAFA"/>
</g>
<path d="M120.703 193.92H105.906C105.582 193.921 105.261 193.856 104.962 193.729C104.663 193.602 104.394 193.415 104.17 193.181C103.946 192.946 103.772 192.668 103.659 192.364C103.546 192.059 103.496 191.735 103.513 191.411L104.153 176.614C104.193 175.942 104.486 175.31 104.973 174.845C105.459 174.38 106.104 174.116 106.777 174.105H121.599C121.924 174.104 122.245 174.169 122.544 174.296C122.842 174.423 123.112 174.61 123.336 174.845C123.56 175.08 123.734 175.358 123.847 175.662C123.96 175.966 124.009 176.29 123.993 176.614L123.353 191.411C123.312 192.087 123.016 192.723 122.524 193.189C122.032 193.655 121.381 193.916 120.703 193.92Z" fill="#EA580C"/>
<path d="M143.289 193.92H128.492C128.168 193.921 127.846 193.856 127.548 193.729C127.249 193.602 126.98 193.415 126.756 193.181C126.532 192.946 126.358 192.668 126.245 192.364C126.132 192.059 126.082 191.735 126.099 191.411L126.739 176.614C126.778 175.942 127.07 175.309 127.557 174.843C128.044 174.378 128.689 174.114 129.363 174.106H144.153C144.481 174.103 144.805 174.168 145.107 174.296C145.408 174.425 145.68 174.613 145.906 174.851C146.132 175.089 146.306 175.37 146.418 175.678C146.531 175.985 146.579 176.313 146.56 176.64L145.92 191.411C145.882 192.085 145.589 192.72 145.101 193.186C144.612 193.652 143.964 193.914 143.289 193.92Z" fill="#EA580C"/>
<path d="M165.867 193.92H151.077C150.752 193.922 150.43 193.858 150.131 193.731C149.832 193.604 149.562 193.418 149.338 193.183C149.114 192.948 148.94 192.669 148.827 192.365C148.715 192.06 148.666 191.735 148.683 191.411L149.323 176.614C149.362 175.942 149.654 175.309 150.141 174.843C150.628 174.378 151.273 174.114 151.947 174.106H166.738C167.062 174.103 167.384 174.168 167.683 174.294C167.982 174.421 168.252 174.608 168.476 174.843C168.701 175.078 168.874 175.356 168.987 175.661C169.1 175.966 169.149 176.29 169.131 176.614L168.491 191.411C168.452 192.084 168.16 192.717 167.673 193.182C167.186 193.648 166.541 193.911 165.867 193.92Z" fill="#EA580C"/>
<path d="M188.453 193.92H173.663C173.338 193.921 173.016 193.856 172.717 193.729C172.418 193.602 172.148 193.416 171.924 193.181C171.699 192.946 171.525 192.668 171.411 192.364C171.297 192.06 171.247 191.736 171.263 191.411L171.903 176.614C171.94 175.942 172.231 175.309 172.717 174.844C173.203 174.378 173.847 174.114 174.52 174.105H189.317C189.646 174.1 189.974 174.162 190.278 174.289C190.582 174.415 190.857 174.604 191.085 174.842C191.312 175.08 191.488 175.362 191.602 175.672C191.715 175.981 191.763 176.311 191.743 176.64L191.103 191.437C191.057 192.109 190.759 192.739 190.267 193.2C189.775 193.661 189.127 193.918 188.453 193.92Z" fill="#EA580C"/>
<path d="M211.039 193.92H196.242C195.918 193.921 195.596 193.856 195.298 193.729C194.999 193.602 194.73 193.415 194.506 193.181C194.282 192.946 194.108 192.668 193.995 192.364C193.882 192.059 193.832 191.735 193.849 191.411L194.489 176.614C194.523 175.937 194.814 175.297 195.302 174.827C195.791 174.356 196.441 174.089 197.119 174.08H211.916C212.241 174.079 212.562 174.144 212.861 174.271C213.159 174.398 213.429 174.584 213.653 174.819C213.877 175.054 214.051 175.332 214.163 175.636C214.276 175.941 214.326 176.265 214.31 176.589L213.67 191.386C213.635 192.063 213.345 192.702 212.856 193.173C212.367 193.644 211.718 193.911 211.039 193.92Z" fill="#EA580C"/>
<path d="M233.6 193.92H218.829C218.504 193.922 218.182 193.858 217.883 193.731C217.584 193.604 217.314 193.418 217.09 193.183C216.866 192.948 216.692 192.669 216.579 192.365C216.467 192.06 216.418 191.735 216.435 191.411L217.075 176.614C217.114 175.942 217.406 175.309 217.893 174.843C218.38 174.378 219.025 174.114 219.699 174.105H234.49C234.814 174.104 235.136 174.169 235.435 174.296C235.734 174.423 236.004 174.61 236.228 174.844C236.453 175.079 236.627 175.357 236.741 175.661C236.855 175.966 236.905 176.29 236.889 176.614L236.217 191.411C236.18 192.083 235.889 192.716 235.403 193.182C234.917 193.647 234.273 193.911 233.6 193.92Z" fill="#EA580C"/>
<g opacity="0.8">
<path d="M120.703 193.92H105.906C105.582 193.921 105.261 193.856 104.962 193.729C104.663 193.602 104.394 193.416 104.17 193.181C103.946 192.946 103.772 192.668 103.659 192.364C103.546 192.059 103.496 191.735 103.513 191.411L104.153 176.614C104.193 175.942 104.486 175.31 104.973 174.845C105.459 174.38 106.104 174.116 106.777 174.106H121.599C121.924 174.104 122.245 174.169 122.544 174.296C122.842 174.423 123.112 174.61 123.336 174.845C123.56 175.08 123.734 175.358 123.847 175.662C123.96 175.966 124.009 176.29 123.993 176.614L123.353 191.411C123.312 192.088 123.016 192.723 122.524 193.189C122.032 193.655 121.381 193.916 120.703 193.92Z" fill="#FAFAFA"/>
<path d="M143.289 193.92H128.492C128.168 193.921 127.846 193.856 127.548 193.729C127.249 193.602 126.98 193.415 126.756 193.181C126.532 192.946 126.358 192.668 126.245 192.364C126.132 192.059 126.082 191.735 126.099 191.411L126.739 176.614C126.778 175.942 127.07 175.309 127.557 174.843C128.044 174.378 128.689 174.114 129.363 174.106H144.153C144.481 174.103 144.805 174.168 145.107 174.296C145.408 174.425 145.68 174.613 145.906 174.851C146.132 175.089 146.306 175.37 146.418 175.678C146.531 175.985 146.579 176.313 146.56 176.64L145.92 191.411C145.882 192.085 145.589 192.72 145.101 193.186C144.612 193.652 143.964 193.914 143.289 193.92Z" fill="#FAFAFA"/>
<path d="M165.867 193.92H151.077C150.752 193.922 150.43 193.858 150.131 193.731C149.832 193.604 149.562 193.418 149.338 193.183C149.114 192.948 148.94 192.669 148.827 192.365C148.715 192.06 148.666 191.735 148.683 191.411L149.323 176.614C149.362 175.942 149.654 175.309 150.141 174.843C150.628 174.378 151.273 174.114 151.947 174.106H166.738C167.062 174.103 167.384 174.168 167.683 174.294C167.982 174.421 168.252 174.608 168.476 174.843C168.701 175.078 168.874 175.356 168.987 175.661C169.1 175.966 169.149 176.29 169.131 176.614L168.491 191.411C168.452 192.084 168.16 192.717 167.673 193.182C167.186 193.648 166.541 193.911 165.867 193.92Z" fill="#FAFAFA"/>
<path d="M188.453 193.92H173.663C173.338 193.921 173.016 193.856 172.717 193.729C172.418 193.602 172.148 193.416 171.924 193.181C171.699 192.946 171.525 192.668 171.411 192.364C171.297 192.06 171.247 191.736 171.263 191.411L171.903 176.614C171.94 175.942 172.231 175.31 172.717 174.844C173.203 174.378 173.847 174.114 174.52 174.106H189.317C189.646 174.1 189.974 174.162 190.278 174.289C190.582 174.415 190.857 174.604 191.085 174.842C191.312 175.08 191.488 175.363 191.602 175.672C191.715 175.982 191.763 176.311 191.743 176.64L191.103 191.437C191.057 192.109 190.759 192.739 190.267 193.2C189.775 193.661 189.127 193.918 188.453 193.92Z" fill="#FAFAFA"/>
<path d="M211.039 193.92H196.242C195.918 193.921 195.596 193.856 195.298 193.729C194.999 193.602 194.73 193.415 194.506 193.181C194.282 192.946 194.108 192.668 193.995 192.364C193.882 192.059 193.832 191.735 193.849 191.411L194.489 176.614C194.523 175.937 194.814 175.297 195.302 174.827C195.791 174.356 196.441 174.089 197.119 174.08H211.916C212.241 174.079 212.562 174.144 212.861 174.271C213.159 174.398 213.429 174.584 213.653 174.819C213.877 175.054 214.051 175.332 214.163 175.636C214.276 175.941 214.326 176.265 214.31 176.589L213.67 191.386C213.635 192.063 213.345 192.702 212.856 193.173C212.367 193.644 211.718 193.911 211.039 193.92Z" fill="#FAFAFA"/>
<path d="M233.6 193.92H218.829C218.504 193.922 218.182 193.858 217.883 193.731C217.584 193.604 217.314 193.418 217.09 193.183C216.866 192.948 216.692 192.669 216.579 192.365C216.467 192.06 216.418 191.736 216.435 191.411L217.075 176.614C217.114 175.942 217.406 175.309 217.893 174.843C218.38 174.378 219.025 174.114 219.699 174.106H234.49C234.814 174.104 235.136 174.169 235.435 174.296C235.734 174.423 236.004 174.61 236.228 174.845C236.453 175.079 236.627 175.357 236.741 175.661C236.855 175.966 236.905 176.29 236.889 176.614L236.217 191.411C236.18 192.083 235.889 192.716 235.403 193.182C234.917 193.647 234.273 193.911 233.6 193.92Z" fill="#FAFAFA"/>
</g>
<path d="M119.679 216.87H104.87C104.545 216.873 104.223 216.808 103.924 216.681C103.625 216.555 103.355 216.368 103.131 216.133C102.907 215.898 102.733 215.62 102.62 215.315C102.508 215.01 102.459 214.686 102.476 214.362L103.116 199.571C103.155 198.899 103.447 198.266 103.934 197.8C104.421 197.335 105.066 197.071 105.74 197.062H120.537C120.862 197.06 121.184 197.124 121.483 197.251C121.782 197.378 122.052 197.565 122.276 197.8C122.5 198.035 122.674 198.313 122.786 198.618C122.899 198.922 122.948 199.247 122.931 199.571L122.291 214.362C122.253 215.032 121.963 215.664 121.479 216.13C120.994 216.595 120.351 216.86 119.679 216.87Z" fill="#EA580C"/>
<path d="M142.252 216.87H127.456C127.131 216.873 126.809 216.808 126.51 216.682C126.211 216.555 125.941 216.368 125.717 216.133C125.493 215.898 125.319 215.62 125.206 215.315C125.094 215.01 125.045 214.686 125.062 214.362L125.702 199.571C125.739 198.898 126.031 198.264 126.519 197.798C127.006 197.333 127.652 197.069 128.326 197.062H143.116C143.442 197.059 143.764 197.123 144.064 197.249C144.364 197.376 144.635 197.562 144.859 197.797C145.084 198.032 145.259 198.311 145.372 198.616C145.485 198.921 145.534 199.246 145.516 199.571L144.876 214.362C144.841 215.035 144.549 215.67 144.062 216.136C143.574 216.602 142.927 216.865 142.252 216.87Z" fill="#EA580C"/>
<path d="M164.832 216.87H150.042C149.717 216.873 149.395 216.808 149.096 216.681C148.797 216.555 148.527 216.368 148.303 216.133C148.079 215.898 147.905 215.62 147.792 215.315C147.68 215.01 147.631 214.686 147.648 214.362L148.288 199.571C148.325 198.898 148.617 198.264 149.104 197.798C149.592 197.333 150.238 197.069 150.912 197.062H165.76C166.085 197.06 166.407 197.124 166.706 197.251C167.006 197.378 167.276 197.564 167.501 197.799C167.726 198.034 167.9 198.312 168.013 198.617C168.127 198.922 168.177 199.246 168.16 199.571L167.488 214.362C167.45 215.04 167.154 215.678 166.66 216.145C166.166 216.612 165.512 216.871 164.832 216.87Z" fill="#EA580C"/>
<path d="M187.416 216.87H172.626C172.301 216.872 171.979 216.808 171.679 216.682C171.38 216.555 171.11 216.368 170.885 216.133C170.66 215.898 170.486 215.62 170.372 215.315C170.259 215.011 170.209 214.686 170.226 214.362L170.866 199.571C170.902 198.899 171.192 198.265 171.678 197.799C172.164 197.333 172.81 197.069 173.483 197.062H188.28C188.605 197.06 188.927 197.124 189.226 197.251C189.525 197.378 189.795 197.565 190.019 197.8C190.243 198.035 190.417 198.313 190.53 198.618C190.642 198.922 190.691 199.247 190.674 199.571L190.034 214.362C189.997 215.034 189.706 215.666 189.22 216.132C188.734 216.598 188.089 216.862 187.416 216.87Z" fill="#EA580C"/>
<path d="M210.003 216.87H195.2C194.875 216.873 194.553 216.808 194.254 216.681C193.955 216.555 193.685 216.368 193.461 216.133C193.237 215.898 193.063 215.62 192.95 215.315C192.838 215.01 192.789 214.686 192.806 214.362L193.446 199.571C193.485 198.899 193.777 198.266 194.264 197.8C194.751 197.335 195.397 197.071 196.07 197.062H210.867C211.192 197.06 211.514 197.124 211.813 197.251C212.112 197.378 212.382 197.565 212.606 197.8C212.83 198.035 213.004 198.313 213.116 198.618C213.229 198.922 213.278 199.247 213.261 199.571L212.621 214.362C212.582 215.033 212.29 215.665 211.805 216.13C211.319 216.596 210.676 216.86 210.003 216.87Z" fill="#EA580C"/>
<path d="M232.588 216.87H217.792C217.467 216.873 217.145 216.808 216.846 216.681C216.547 216.555 216.277 216.368 216.053 216.133C215.829 215.898 215.655 215.62 215.542 215.315C215.43 215.01 215.381 214.686 215.398 214.362L216.038 199.571C216.075 198.898 216.367 198.264 216.854 197.798C217.342 197.333 217.988 197.069 218.662 197.062H233.452C233.777 197.06 234.1 197.124 234.399 197.251C234.698 197.378 234.969 197.564 235.193 197.799C235.418 198.034 235.592 198.312 235.706 198.617C235.819 198.922 235.869 199.246 235.852 199.571L235.18 214.362C235.145 215.03 234.858 215.66 234.377 216.125C233.896 216.59 233.257 216.857 232.588 216.87Z" fill="#EA580C"/>
<g opacity="0.8">
<path d="M119.679 216.87H104.87C104.545 216.873 104.223 216.808 103.924 216.682C103.625 216.555 103.355 216.368 103.131 216.133C102.907 215.898 102.733 215.62 102.62 215.315C102.508 215.01 102.459 214.686 102.476 214.362L103.116 199.571C103.155 198.899 103.447 198.266 103.934 197.8C104.421 197.335 105.066 197.071 105.74 197.062H120.537C120.862 197.06 121.184 197.124 121.483 197.251C121.782 197.378 122.052 197.565 122.276 197.8C122.5 198.035 122.674 198.313 122.786 198.618C122.899 198.922 122.948 199.247 122.931 199.571L122.291 214.362C122.253 215.033 121.963 215.664 121.479 216.13C120.994 216.596 120.351 216.86 119.679 216.87Z" fill="#FAFAFA"/>
<path d="M142.252 216.87H127.456C127.131 216.873 126.809 216.808 126.51 216.682C126.211 216.555 125.941 216.368 125.717 216.133C125.493 215.898 125.319 215.62 125.206 215.315C125.094 215.01 125.045 214.686 125.062 214.362L125.702 199.571C125.739 198.898 126.031 198.264 126.519 197.798C127.006 197.333 127.652 197.069 128.326 197.062H143.116C143.442 197.059 143.764 197.123 144.064 197.249C144.364 197.376 144.635 197.562 144.859 197.797C145.084 198.032 145.259 198.311 145.372 198.616C145.485 198.921 145.534 199.246 145.516 199.571L144.876 214.362C144.841 215.035 144.549 215.67 144.062 216.136C143.574 216.602 142.927 216.865 142.252 216.87Z" fill="#FAFAFA"/>
<path d="M164.832 216.87H150.042C149.717 216.873 149.395 216.808 149.096 216.681C148.797 216.555 148.527 216.368 148.303 216.133C148.079 215.898 147.905 215.62 147.792 215.315C147.68 215.01 147.631 214.686 147.648 214.362L148.288 199.571C148.325 198.898 148.617 198.264 149.104 197.798C149.592 197.333 150.238 197.069 150.912 197.062H165.76C166.085 197.06 166.407 197.124 166.706 197.251C167.006 197.378 167.276 197.564 167.501 197.799C167.726 198.034 167.9 198.312 168.013 198.617C168.127 198.922 168.177 199.246 168.16 199.571L167.488 214.362C167.45 215.04 167.154 215.678 166.66 216.145C166.166 216.612 165.512 216.871 164.832 216.87Z" fill="#FAFAFA"/>
<path d="M187.416 216.87H172.626C172.301 216.872 171.979 216.808 171.679 216.682C171.38 216.555 171.11 216.368 170.885 216.133C170.66 215.898 170.486 215.62 170.372 215.315C170.259 215.011 170.209 214.686 170.226 214.362L170.866 199.571C170.902 198.899 171.192 198.265 171.678 197.799C172.164 197.333 172.81 197.069 173.483 197.062H188.28C188.605 197.06 188.927 197.124 189.226 197.251C189.525 197.378 189.795 197.565 190.019 197.8C190.243 198.035 190.417 198.313 190.53 198.618C190.642 198.922 190.691 199.247 190.674 199.571L190.034 214.362C189.997 215.034 189.706 215.666 189.22 216.132C188.734 216.598 188.089 216.862 187.416 216.87Z" fill="#FAFAFA"/>
<path d="M210.003 216.87H195.2C194.875 216.873 194.553 216.808 194.254 216.681C193.955 216.555 193.685 216.368 193.461 216.133C193.237 215.898 193.063 215.62 192.95 215.315C192.838 215.01 192.789 214.686 192.806 214.362L193.446 199.571C193.485 198.899 193.777 198.266 194.264 197.8C194.751 197.335 195.397 197.071 196.07 197.062H210.867C211.192 197.06 211.514 197.124 211.813 197.251C212.112 197.378 212.382 197.565 212.606 197.8C212.83 198.035 213.004 198.313 213.116 198.618C213.229 198.922 213.278 199.247 213.261 199.571L212.621 214.362C212.582 215.033 212.29 215.665 211.805 216.13C211.319 216.596 210.676 216.86 210.003 216.87Z" fill="#FAFAFA"/>
<path d="M232.588 216.87H217.792C217.467 216.873 217.145 216.808 216.846 216.681C216.547 216.555 216.277 216.368 216.053 216.133C215.829 215.898 215.655 215.62 215.542 215.315C215.43 215.01 215.381 214.686 215.398 214.362L216.038 199.571C216.075 198.898 216.367 198.264 216.854 197.798C217.342 197.333 217.988 197.069 218.662 197.062H233.452C233.777 197.06 234.1 197.124 234.399 197.251C234.698 197.378 234.969 197.564 235.193 197.799C235.418 198.034 235.592 198.312 235.706 198.617C235.819 198.922 235.869 199.246 235.852 199.571L235.18 214.362C235.145 215.03 234.858 215.66 234.377 216.125C233.896 216.59 233.257 216.857 232.588 216.87Z" fill="#FAFAFA"/>
</g>
<path d="M115.488 139.162C110.035 139.162 105.76 132.819 105.76 124.723C105.76 116.627 110.035 110.291 115.488 110.291C120.941 110.291 125.222 116.634 125.222 124.723C125.197 125.103 125.029 125.458 124.752 125.718C124.474 125.978 124.108 126.123 123.728 126.123C123.348 126.123 122.982 125.978 122.704 125.718C122.426 125.458 122.258 125.103 122.233 124.723C122.233 118.522 119.149 113.274 115.488 113.274C111.827 113.274 108.742 118.522 108.742 124.723C108.742 130.925 111.833 136.173 115.488 136.173C115.692 136.159 115.897 136.188 116.09 136.257C116.283 136.326 116.46 136.434 116.609 136.574C116.759 136.714 116.878 136.883 116.96 137.071C117.041 137.26 117.083 137.462 117.083 137.667C117.083 137.872 117.041 138.075 116.96 138.263C116.878 138.451 116.759 138.62 116.609 138.76C116.46 138.9 116.283 139.008 116.09 139.077C115.897 139.146 115.692 139.175 115.488 139.162Z" fill="#EA580C"/>
<path d="M138.074 139.162C132.621 139.162 128.346 132.819 128.346 124.723C128.346 116.627 132.621 110.291 138.074 110.291C143.527 110.291 147.84 116.634 147.84 124.723C147.815 125.103 147.647 125.458 147.369 125.718C147.092 125.978 146.726 126.123 146.346 126.123C145.965 126.123 145.599 125.978 145.322 125.718C145.044 125.458 144.876 125.103 144.851 124.723C144.851 118.522 141.767 113.274 138.106 113.274C134.445 113.274 131.36 118.522 131.36 124.723C131.36 130.925 134.451 136.173 138.106 136.173C138.485 136.198 138.841 136.366 139.101 136.643C139.361 136.921 139.505 137.287 139.505 137.667C139.505 138.047 139.361 138.413 139.101 138.691C138.841 138.968 138.485 139.137 138.106 139.162H138.074Z" fill="#EA580C"/>
<path d="M160.639 139.162C155.18 139.162 150.904 132.819 150.904 124.723C150.904 116.627 155.18 110.291 160.639 110.291C166.098 110.291 170.367 116.634 170.367 124.723C170.367 125.119 170.21 125.498 169.93 125.778C169.65 126.057 169.271 126.214 168.875 126.214C168.48 126.214 168.101 126.057 167.821 125.778C167.541 125.498 167.384 125.119 167.384 124.723C167.384 118.522 164.293 113.274 160.639 113.274C156.984 113.274 153.893 118.522 153.893 124.723C153.893 130.925 156.984 136.173 160.639 136.173C161.018 136.198 161.374 136.366 161.634 136.643C161.894 136.921 162.038 137.287 162.038 137.667C162.038 138.047 161.894 138.413 161.634 138.691C161.374 138.968 161.018 139.137 160.639 139.162Z" fill="#EA580C"/>
<path d="M183.244 139.162C177.785 139.162 173.51 132.819 173.51 124.723C173.51 116.627 177.785 110.291 183.244 110.291C188.703 110.291 192.972 116.634 192.972 124.723C192.972 125.119 192.815 125.498 192.535 125.778C192.256 126.057 191.876 126.214 191.481 126.214C191.085 126.214 190.706 126.057 190.427 125.778C190.147 125.498 189.99 125.119 189.99 124.723C189.99 118.522 186.899 113.274 183.244 113.274C179.59 113.274 176.499 118.522 176.499 124.723C176.499 130.925 179.583 136.173 183.244 136.173C183.624 136.198 183.979 136.366 184.239 136.643C184.499 136.921 184.644 137.287 184.644 137.667C184.644 138.047 184.499 138.413 184.239 138.691C183.979 138.968 183.624 139.137 183.244 139.162Z" fill="#EA580C"/>
<path d="M205.824 139.162C200.371 139.162 196.096 132.819 196.096 124.723C196.096 116.627 200.371 110.291 205.824 110.291C211.277 110.291 215.558 116.634 215.558 124.723C215.533 125.103 215.365 125.458 215.087 125.718C214.81 125.978 214.444 126.123 214.064 126.123C213.683 126.123 213.317 125.978 213.04 125.718C212.762 125.458 212.594 125.103 212.569 124.723C212.569 118.522 209.485 113.274 205.824 113.274C202.163 113.274 199.078 118.522 199.078 124.723C199.078 130.925 202.169 136.173 205.824 136.173C206.028 136.159 206.233 136.188 206.426 136.257C206.619 136.326 206.796 136.434 206.945 136.574C207.095 136.714 207.214 136.883 207.296 137.071C207.377 137.26 207.419 137.462 207.419 137.667C207.419 137.872 207.377 138.075 207.296 138.263C207.214 138.451 207.095 138.62 206.945 138.76C206.796 138.9 206.619 139.008 206.426 139.077C206.233 139.146 206.028 139.175 205.824 139.162Z" fill="#EA580C"/>
<path d="M228.41 139.162C222.957 139.162 218.682 132.819 218.682 124.723C218.682 116.627 222.957 110.291 228.41 110.291C233.862 110.291 238.144 116.634 238.144 124.723C238.119 125.103 237.951 125.458 237.673 125.718C237.396 125.978 237.03 126.123 236.65 126.123C236.269 126.123 235.903 125.978 235.626 125.718C235.348 125.458 235.18 125.103 235.155 124.723C235.155 118.522 232.064 113.274 228.41 113.274C224.755 113.274 221.664 118.522 221.664 124.723C221.664 130.925 224.755 136.173 228.41 136.173C228.789 136.198 229.145 136.366 229.405 136.643C229.665 136.921 229.809 137.287 229.809 137.667C229.809 138.047 229.665 138.413 229.405 138.691C229.145 138.968 228.789 139.137 228.41 139.162Z" fill="#EA580C"/>
<g opacity="0.3">
<path d="M115.488 139.162C110.035 139.162 105.76 132.819 105.76 124.723C105.76 116.627 110.035 110.291 115.488 110.291C120.941 110.291 125.222 116.634 125.222 124.723C125.197 125.103 125.029 125.458 124.752 125.718C124.474 125.978 124.108 126.123 123.728 126.123C123.348 126.123 122.982 125.978 122.704 125.718C122.426 125.458 122.258 125.103 122.233 124.723C122.233 118.522 119.149 113.274 115.488 113.274C111.827 113.274 108.742 118.522 108.742 124.723C108.742 130.925 111.833 136.173 115.488 136.173C115.692 136.159 115.897 136.188 116.09 136.257C116.283 136.326 116.46 136.434 116.609 136.574C116.759 136.714 116.878 136.883 116.96 137.071C117.041 137.26 117.083 137.462 117.083 137.667C117.083 137.872 117.041 138.075 116.96 138.263C116.878 138.451 116.759 138.62 116.609 138.76C116.46 138.9 116.283 139.008 116.09 139.077C115.897 139.146 115.692 139.175 115.488 139.162Z" fill="black"/>
<path d="M138.074 139.162C132.621 139.162 128.346 132.819 128.346 124.723C128.346 116.627 132.621 110.291 138.074 110.291C143.527 110.291 147.84 116.634 147.84 124.723C147.815 125.103 147.647 125.458 147.369 125.718C147.092 125.978 146.726 126.123 146.346 126.123C145.965 126.123 145.599 125.978 145.322 125.718C145.044 125.458 144.876 125.103 144.851 124.723C144.851 118.522 141.767 113.274 138.106 113.274C134.445 113.274 131.36 118.522 131.36 124.723C131.36 130.925 134.451 136.173 138.106 136.173C138.485 136.198 138.841 136.366 139.101 136.643C139.361 136.921 139.505 137.287 139.505 137.667C139.505 138.047 139.361 138.413 139.101 138.691C138.841 138.968 138.485 139.137 138.106 139.162H138.074Z" fill="black"/>
<path d="M160.641 139.162C155.181 139.162 150.906 132.819 150.906 124.723C150.906 116.627 155.181 110.291 160.641 110.291C166.1 110.291 170.369 116.634 170.369 124.723C170.369 125.119 170.212 125.498 169.932 125.778C169.652 126.057 169.273 126.214 168.877 126.214C168.482 126.214 168.103 126.057 167.823 125.778C167.543 125.498 167.386 125.119 167.386 124.723C167.386 118.522 164.295 113.274 160.641 113.274C156.986 113.274 153.895 118.522 153.895 124.723C153.895 130.925 156.986 136.173 160.641 136.173C161.02 136.198 161.376 136.366 161.636 136.643C161.896 136.921 162.04 137.287 162.04 137.667C162.04 138.047 161.896 138.413 161.636 138.691C161.376 138.968 161.02 139.137 160.641 139.162Z" fill="black"/>
<path d="M183.244 139.162C177.785 139.162 173.51 132.819 173.51 124.723C173.51 116.627 177.785 110.291 183.244 110.291C188.703 110.291 192.972 116.634 192.972 124.723C192.972 125.119 192.815 125.498 192.535 125.778C192.256 126.057 191.876 126.214 191.481 126.214C191.085 126.214 190.706 126.057 190.427 125.778C190.147 125.498 189.99 125.119 189.99 124.723C189.99 118.522 186.899 113.274 183.244 113.274C179.59 113.274 176.499 118.522 176.499 124.723C176.499 130.925 179.583 136.173 183.244 136.173C183.624 136.198 183.979 136.366 184.239 136.643C184.499 136.921 184.644 137.287 184.644 137.667C184.644 138.047 184.499 138.413 184.239 138.691C183.979 138.968 183.624 139.137 183.244 139.162Z" fill="black"/>
<path d="M205.824 139.162C200.371 139.162 196.096 132.819 196.096 124.723C196.096 116.627 200.371 110.291 205.824 110.291C211.277 110.291 215.558 116.634 215.558 124.723C215.533 125.103 215.365 125.458 215.087 125.718C214.81 125.978 214.444 126.123 214.064 126.123C213.683 126.123 213.317 125.978 213.04 125.718C212.762 125.458 212.594 125.103 212.569 124.723C212.569 118.522 209.485 113.274 205.824 113.274C202.163 113.274 199.078 118.522 199.078 124.723C199.078 130.925 202.169 136.173 205.824 136.173C206.028 136.159 206.233 136.188 206.426 136.257C206.619 136.326 206.796 136.434 206.945 136.574C207.095 136.714 207.214 136.883 207.296 137.071C207.377 137.26 207.419 137.462 207.419 137.667C207.419 137.872 207.377 138.075 207.296 138.263C207.214 138.451 207.095 138.62 206.945 138.76C206.796 138.9 206.619 139.008 206.426 139.077C206.233 139.146 206.028 139.175 205.824 139.162Z" fill="black"/>
<path d="M228.41 139.162C222.957 139.162 218.682 132.819 218.682 124.723C218.682 116.627 222.957 110.291 228.41 110.291C233.862 110.291 238.144 116.634 238.144 124.723C238.119 125.103 237.951 125.458 237.673 125.718C237.396 125.978 237.03 126.123 236.65 126.123C236.269 126.123 235.903 125.978 235.626 125.718C235.348 125.458 235.18 125.103 235.155 124.723C235.155 118.522 232.064 113.274 228.41 113.274C224.755 113.274 221.664 118.522 221.664 124.723C221.664 130.925 224.755 136.173 228.41 136.173C228.789 136.198 229.145 136.366 229.405 136.643C229.665 136.921 229.809 137.287 229.809 137.667C229.809 138.047 229.665 138.413 229.405 138.691C229.145 138.968 228.789 139.137 228.41 139.162Z" fill="black"/>
</g>
<path d="M184.754 171.789C179.531 170.752 173.669 171.961 171.576 177.465C169.893 181.894 172.05 186.694 176.696 187.865C180.792 188.896 187.858 187.635 189.317 182.912C190.987 177.51 184.197 175.757 180.389 175.437C179.243 175.341 179.25 177.133 180.389 177.229C182.123 177.376 184.107 177.472 185.643 178.425C188.843 180.429 187.525 183.641 184.799 185.177C182.072 186.713 177.893 187.097 175.199 185.395C172.255 183.52 172.159 179.398 173.919 176.71C176.229 173.158 180.447 172.761 184.248 173.51C185.375 173.734 185.855 172.006 184.722 171.782L184.754 171.789Z" fill="#EA580C"/>
<path opacity="0.1" d="M184.754 171.789C179.531 170.752 173.669 171.961 171.576 177.465C169.893 181.894 172.05 186.694 176.696 187.865C180.792 188.896 187.858 187.635 189.317 182.912C190.987 177.51 184.197 175.757 180.389 175.437C179.243 175.341 179.25 177.133 180.389 177.229C182.123 177.376 184.107 177.472 185.643 178.425C188.843 180.429 187.525 183.641 184.799 185.177C182.072 186.713 177.893 187.097 175.199 185.395C172.255 183.52 172.159 179.398 173.919 176.71C176.229 173.158 180.447 172.761 184.248 173.51C185.375 173.734 185.855 172.006 184.722 171.782L184.754 171.789Z" fill="#FAFAFA"/>
<path d="M127.136 151.174C132.13 157.795 137.698 163.963 143.776 169.606C144.621 170.394 145.894 169.126 145.056 168.326C139.083 162.795 133.607 156.749 128.691 150.259C128.006 149.35 126.451 150.259 127.149 151.162L127.136 151.174Z" fill="#EA580C"/>
<path d="M128.985 168.858C132.761 162.144 139.372 156.416 145.625 152.032C146.559 151.392 145.67 149.818 144.722 150.483C138.22 155.053 131.385 160.954 127.442 167.949C127.334 168.153 127.309 168.39 127.372 168.612C127.434 168.834 127.58 169.024 127.779 169.141C127.978 169.258 128.214 169.294 128.439 169.241C128.663 169.188 128.859 169.051 128.985 168.858Z" fill="#EA580C"/>
<g opacity="0.2">
<path d="M127.136 151.174C132.13 157.795 137.698 163.963 143.776 169.606C144.621 170.394 145.894 169.126 145.056 168.326C139.083 162.795 133.607 156.749 128.691 150.259C128.006 149.35 126.451 150.259 127.149 151.162L127.136 151.174Z" fill="black"/>
<path d="M128.985 168.858C132.761 162.144 139.372 156.416 145.625 152.032C146.559 151.392 145.67 149.818 144.722 150.483C138.22 155.053 131.385 160.954 127.442 167.949C127.334 168.153 127.309 168.39 127.372 168.612C127.434 168.834 127.58 169.024 127.779 169.141C127.978 169.258 128.214 169.294 128.439 169.241C128.663 169.188 128.859 169.051 128.985 168.858Z" fill="black"/>
</g>
<path d="M198.316 156.902H209.996C210.22 156.883 210.429 156.781 210.581 156.616C210.732 156.45 210.817 156.234 210.817 156.01C210.817 155.785 210.732 155.569 210.581 155.403C210.429 155.238 210.22 155.136 209.996 155.117H198.316C198.093 155.136 197.884 155.238 197.732 155.403C197.58 155.569 197.496 155.785 197.496 156.01C197.496 156.234 197.58 156.45 197.732 156.616C197.884 156.781 198.093 156.883 198.316 156.902Z" fill="#EA580C"/>
<path d="M198.181 160.224H204.952C205.19 160.224 205.418 160.129 205.586 159.961C205.754 159.793 205.848 159.566 205.848 159.328C205.848 159.09 205.754 158.862 205.586 158.694C205.418 158.526 205.19 158.432 204.952 158.432H198.181C197.944 158.432 197.716 158.526 197.548 158.694C197.38 158.862 197.285 159.09 197.285 159.328C197.285 159.566 197.38 159.793 197.548 159.961C197.716 160.129 197.944 160.224 198.181 160.224Z" fill="#EA580C"/>
<g opacity="0.1">
<path d="M198.316 156.902H209.996C210.22 156.883 210.429 156.781 210.581 156.616C210.732 156.45 210.817 156.234 210.817 156.01C210.817 155.785 210.732 155.569 210.581 155.403C210.429 155.238 210.22 155.136 209.996 155.117H198.316C198.093 155.136 197.884 155.238 197.732 155.403C197.58 155.569 197.496 155.785 197.496 156.01C197.496 156.234 197.58 156.45 197.732 156.616C197.884 156.781 198.093 156.883 198.316 156.902Z" fill="#FAFAFA"/>
<path d="M198.181 160.224H204.952C205.19 160.224 205.418 160.129 205.586 159.961C205.754 159.793 205.848 159.566 205.848 159.328C205.848 159.09 205.754 158.862 205.586 158.694C205.418 158.526 205.19 158.432 204.952 158.432H198.181C197.944 158.432 197.716 158.526 197.548 158.694C197.38 158.862 197.285 159.09 197.285 159.328C197.285 159.566 197.38 159.793 197.548 159.961C197.716 160.129 197.944 160.224 198.181 160.224Z" fill="#FAFAFA"/>
</g>
<path d="M128.357 202.752H138.373C138.611 202.752 138.838 202.658 139.007 202.49C139.175 202.321 139.269 202.094 139.269 201.856C139.269 201.618 139.175 201.39 139.007 201.222C138.838 201.054 138.611 200.96 138.373 200.96H128.357C128.119 200.96 127.891 201.054 127.723 201.222C127.555 201.39 127.461 201.618 127.461 201.856C127.461 202.094 127.555 202.321 127.723 202.49C127.891 202.658 128.119 202.752 128.357 202.752Z" fill="#EA580C"/>
<path d="M128 206.598H140.992C141.229 206.598 141.457 206.504 141.625 206.336C141.793 206.168 141.888 205.94 141.888 205.702C141.888 205.465 141.793 205.237 141.625 205.069C141.457 204.901 141.229 204.806 140.992 204.806H128C127.762 204.806 127.534 204.901 127.366 205.069C127.198 205.237 127.104 205.465 127.104 205.702C127.104 205.94 127.198 206.168 127.366 206.336C127.534 206.504 127.762 206.598 128 206.598Z" fill="#EA580C"/>
<path d="M128 210.56H134.496C134.733 210.56 134.961 210.466 135.129 210.297C135.297 210.129 135.392 209.902 135.392 209.664C135.392 209.426 135.297 209.198 135.129 209.03C134.961 208.862 134.733 208.768 134.496 208.768H128C127.762 208.768 127.534 208.862 127.366 209.03C127.198 209.198 127.104 209.426 127.104 209.664C127.104 209.902 127.198 210.129 127.366 210.297C127.534 210.466 127.762 210.56 128 210.56Z" fill="#EA580C"/>
<g opacity="0.1">
<path d="M128.359 202.752H138.375C138.613 202.752 138.84 202.658 139.008 202.49C139.176 202.321 139.271 202.094 139.271 201.856C139.271 201.618 139.176 201.39 139.008 201.222C138.84 201.054 138.613 200.96 138.375 200.96H128.359C128.121 200.96 127.893 201.054 127.725 201.222C127.557 201.39 127.463 201.618 127.463 201.856C127.463 202.094 127.557 202.321 127.725 202.49C127.893 202.658 128.121 202.752 128.359 202.752Z" fill="#FAFAFA"/>
<path d="M128 206.598H140.992C141.229 206.598 141.457 206.504 141.625 206.336C141.793 206.168 141.888 205.94 141.888 205.702C141.888 205.465 141.793 205.237 141.625 205.069C141.457 204.901 141.229 204.806 140.992 204.806H128C127.762 204.806 127.534 204.901 127.366 205.069C127.198 205.237 127.104 205.465 127.104 205.702C127.104 205.94 127.198 206.168 127.366 206.336C127.534 206.504 127.762 206.598 128 206.598Z" fill="#FAFAFA"/>
<path d="M128 210.56H134.496C134.733 210.56 134.961 210.466 135.129 210.297C135.297 210.129 135.392 209.902 135.392 209.664C135.392 209.426 135.297 209.198 135.129 209.03C134.961 208.862 134.733 208.768 134.496 208.768H128C127.762 208.768 127.534 208.862 127.366 209.03C127.198 209.198 127.104 209.426 127.104 209.664C127.104 209.902 127.198 210.129 127.366 210.297C127.534 210.466 127.762 210.56 128 210.56Z" fill="#FAFAFA"/>
</g>
<path d="M57.7223 102.266L60.7495 102.131L59.3799 107.891C58.2996 107.152 57.315 106.281 56.4487 105.299C56.1989 105.005 56.0749 104.625 56.1037 104.24C56.1324 103.856 56.3116 103.498 56.6023 103.245L57.7223 102.266Z" fill="#E4897B"/>
<path d="M64.2641 105.235L62.9073 109.92L59.3809 107.878L60.7505 102.131L64.2641 105.235Z" fill="#E4897B"/>
<path d="M63.667 77.4233L57.4727 77.9968L71.6795 231.433L77.8738 230.86L63.667 77.4233Z" fill="#EA580C"/>
<path opacity="0.3" d="M63.667 77.4233L57.4727 77.9968L71.6795 231.433L77.8738 230.86L63.667 77.4233Z" fill="black"/>
<path d="M76.0576 76.273L69.8633 76.8466L84.0701 230.283L90.2645 229.71L76.0576 76.273Z" fill="#EA580C"/>
<path opacity="0.3" d="M76.0576 76.273L69.8633 76.8466L84.0701 230.283L90.2645 229.71L76.0576 76.273Z" fill="black"/>
<path d="M69.8642 76.8481L63.6699 77.4216L77.8768 230.858L84.0711 230.285L69.8642 76.8481Z" fill="#EA580C"/>
<path opacity="0.1" d="M69.8642 76.8481L63.6699 77.4216L77.8768 230.858L84.0711 230.285L69.8642 76.8481Z" fill="black"/>
<path d="M68.5575 66.1184L62.9831 66.6368L57.4727 77.9968L76.0583 76.2752L68.5575 66.1184Z" fill="#EA580C"/>
<g opacity="0.8">
<path d="M68.5575 66.1184L62.9831 66.6368L57.4727 77.9968L76.0583 76.2752L68.5575 66.1184Z" fill="#FAFAFA"/>
</g>
<path d="M65.344 61.7665L62.9824 66.6369L68.5568 66.1185L65.344 61.7665Z" fill="#263238"/>
<path d="M112.18 70.4385C112.82 71.0785 113.351 71.6865 113.901 72.3585C114.452 73.0305 114.977 73.6385 115.501 74.2785C116.557 75.5585 117.543 76.9089 118.503 78.2849C120.482 81.0826 122.152 84.0869 123.482 87.2449C123.642 87.6545 123.789 88.0833 123.943 88.5249L124.173 89.1649C124.3 89.548 124.39 89.9423 124.442 90.3425C124.581 91.6161 124.412 92.9045 123.949 94.0993C123.259 95.8629 122.291 97.5049 121.082 98.9633C118.945 101.578 116.485 103.912 113.761 105.907L111.348 103.347C113.247 100.973 114.983 98.4738 116.545 95.8657C117.229 94.7514 117.754 93.5473 118.106 92.2881C118.204 91.979 118.215 91.6493 118.138 91.3345L117.921 90.8609C117.773 90.5473 117.645 90.2209 117.485 89.9137C116.131 87.2849 114.546 84.7812 112.749 82.4321C111.853 81.2097 110.906 80.0193 109.946 78.8289C109.466 78.2401 108.98 77.6513 108.481 77.0753L107.021 75.3921L112.18 70.4385Z" fill="#E4897B"/>
<path d="M107.477 105.299L110.203 110.694L112.872 108.397L110.683 104.563L107.477 105.299Z" fill="#E4897B"/>
<path d="M86.9389 73.6C85.2792 76.7616 83.5554 79.887 81.7677 82.976C80.8909 84.5312 79.9693 86.0608 79.0733 87.6032L77.6973 89.9072L77.3517 90.4832C77.1789 90.7584 76.9869 91.0848 76.8141 91.3024C76.6413 91.52 76.4685 91.7824 76.3021 91.9808C76.1357 92.1792 75.9565 92.4032 75.7901 92.5888C74.4973 93.9972 73.1209 95.3265 71.6685 96.5696C70.2669 97.7664 68.8653 98.9312 67.4189 100.038C64.5581 102.272 61.6205 104.352 58.5741 106.336L56.3789 103.571L63.9629 96.1024C65.2045 94.8224 66.4589 93.6192 67.6429 92.352C68.8063 91.1595 69.9023 89.9031 70.9261 88.5888C71.0498 88.4352 71.1586 88.288 71.2525 88.1472C71.3613 87.9936 71.4381 87.8656 71.5149 87.7376C71.5811 87.6347 71.6409 87.5278 71.6941 87.4176L71.9885 86.8224L73.1725 84.4096C73.9853 82.816 74.7789 81.2096 75.6045 79.6288C77.2386 76.4416 78.9453 73.2907 80.7245 70.176L86.9389 73.6Z" fill="#E4897B"/>
<path d="M104.904 51.9809C104.82 52.3521 104.955 52.7041 105.192 52.7681C105.428 52.8321 105.691 52.5761 105.774 52.2049C105.857 51.8337 105.716 51.4817 105.48 51.4177C105.243 51.3537 104.961 51.6097 104.904 51.9809Z" fill="#263238"/>
<path d="M104.916 52.6976C105.117 53.9459 105.483 55.162 106.004 56.3136C105.71 56.4302 105.393 56.4809 105.077 56.4621C104.761 56.4433 104.452 56.3555 104.174 56.2048L104.916 52.6976Z" fill="#DE5753"/>
<path d="M105.883 49.728C105.837 49.7281 105.793 49.7148 105.755 49.6896C105.518 49.5451 105.25 49.4603 104.974 49.4425C104.697 49.4246 104.421 49.4743 104.168 49.5872C104.112 49.6087 104.051 49.6081 103.996 49.5855C103.941 49.5628 103.897 49.5199 103.873 49.4656C103.852 49.4103 103.852 49.3488 103.875 49.294C103.898 49.2392 103.94 49.1952 103.995 49.1712C104.318 49.0323 104.671 48.9737 105.022 49.0004C105.373 49.0272 105.712 49.1385 106.011 49.3248C106.035 49.3409 106.056 49.3617 106.072 49.386C106.088 49.4103 106.099 49.4375 106.105 49.4662C106.11 49.4948 106.11 49.5243 106.103 49.5528C106.097 49.5813 106.085 49.6082 106.068 49.632C106.048 49.6619 106.02 49.6862 105.987 49.703C105.955 49.7197 105.919 49.7283 105.883 49.728Z" fill="#263238"/>
<path d="M91.9565 53.3953C92.7629 56.8385 93.6781 63.1361 91.3613 65.4337C91.3613 65.4337 92.4365 68.9217 98.8301 68.9217C105.87 68.9217 102.03 65.4337 102.03 65.4337C98.1581 64.5185 98.1453 61.6705 98.7085 59.0017L91.9565 53.3953Z" fill="#E4897B"/>
<path d="M90.4912 66.6304C89.9408 65.5296 89.3392 64.2624 90.4912 63.8656C91.7328 63.4304 98.6256 62.9888 101.038 63.8016C101.681 63.9736 102.232 64.3892 102.574 64.9602C102.915 65.5313 103.021 66.213 102.869 66.8608L90.4912 66.6304Z" fill="#EA580C"/>
<path opacity="0.6" d="M90.4912 66.6304C89.9408 65.5296 89.3392 64.2624 90.4912 63.8656C91.7328 63.4304 98.6256 62.9888 101.038 63.8016C101.681 63.9736 102.232 64.3892 102.574 64.9602C102.915 65.5313 103.021 66.213 102.869 66.8608L90.4912 66.6304Z" fill="#FAFAFA"/>
<path d="M81.281 227.2C80.8678 227.198 80.456 227.153 80.0522 227.066C80.0315 227.062 80.0123 227.052 79.9974 227.037C79.9826 227.022 79.9726 227.003 79.969 226.982C79.9647 226.961 79.9667 226.939 79.9746 226.918C79.9826 226.898 79.9961 226.88 80.0138 226.867C80.065 226.829 81.2938 225.946 82.0106 226.099C82.088 226.113 82.1615 226.143 82.2257 226.189C82.2899 226.234 82.3432 226.293 82.3818 226.362C82.4394 226.438 82.4706 226.531 82.4706 226.627C82.4706 226.723 82.4394 226.816 82.3818 226.893C82.2282 227.142 81.761 227.2 81.281 227.2ZM80.3658 226.906C81.0698 227.021 82.0298 227.021 82.2218 226.758C82.2218 226.758 82.2986 226.656 82.1898 226.47C82.1664 226.43 82.134 226.395 82.0953 226.368C82.0565 226.342 82.0123 226.324 81.9658 226.317C81.3846 226.354 80.8277 226.564 80.3658 226.918V226.906Z" fill="#FAFAFA"/>
<path d="M80.0778 227.085H80.0202C80.0035 227.075 79.9899 227.061 79.9808 227.044C79.9717 227.027 79.9677 227.008 79.969 226.989C79.969 226.931 80.0266 225.574 80.5578 225.126C80.6215 225.069 80.6968 225.027 80.7785 225.001C80.8603 224.976 80.9465 224.968 81.0314 224.979C81.1177 224.979 81.2013 225.009 81.2679 225.064C81.3345 225.119 81.3798 225.195 81.3962 225.28C81.4986 225.805 80.6026 226.829 80.1162 227.091L80.0778 227.085ZM80.9546 225.165C80.8626 225.166 80.774 225.2 80.705 225.261C80.3911 225.691 80.2168 226.207 80.2058 226.739C80.6666 226.374 81.2362 225.6 81.1786 225.293C81.1786 225.261 81.1786 225.184 81.0058 225.165H80.9546Z" fill="#FAFAFA"/>
<path d="M109.518 227.2C109.033 227.2 108.549 227.155 108.072 227.066C108.049 227.062 108.028 227.051 108.012 227.035C107.996 227.019 107.986 226.998 107.982 226.976C107.978 226.954 107.981 226.931 107.99 226.911C107.999 226.89 108.014 226.873 108.033 226.861C108.27 226.726 110.356 225.53 110.862 226.355C110.913 226.427 110.94 226.513 110.94 226.602C110.94 226.69 110.913 226.776 110.862 226.848C110.721 227.13 110.12 227.2 109.518 227.2ZM108.424 226.899C109.307 227.027 110.497 227.008 110.702 226.72C110.702 226.72 110.766 226.63 110.67 226.47C110.388 226.016 109.121 226.56 108.424 226.912V226.899Z" fill="#FAFAFA"/>
<path d="M108.09 227.085C108.069 227.091 108.047 227.091 108.026 227.085C108.01 227.073 107.997 227.058 107.99 227.04C107.982 227.022 107.979 227.002 107.981 226.982C107.981 226.931 108.058 225.664 108.621 225.171C108.707 225.093 108.809 225.035 108.919 225.002C109.03 224.969 109.147 224.961 109.261 224.979C109.575 225.011 109.665 225.171 109.684 225.299C109.773 225.843 108.705 226.835 108.141 227.091L108.09 227.085ZM109.165 225.165C109.023 225.163 108.886 225.216 108.781 225.312C108.445 225.724 108.25 226.233 108.225 226.765C108.788 226.419 109.505 225.632 109.46 225.306C109.46 225.274 109.46 225.19 109.229 225.165H109.165Z" fill="#FAFAFA"/>
<path d="M102.92 226.97H107.624L107.669 216.083H102.971L102.92 226.97Z" fill="#E4897B"/>
<path d="M74.6895 226.97H79.3935L81.3391 216.083H76.6351L74.6895 226.97Z" fill="#E4897B"/>
<path d="M79.7064 226.426H74.4264C74.3331 226.424 74.2423 226.457 74.1707 226.516C74.0991 226.576 74.0513 226.66 74.036 226.752L73.268 230.931C73.2522 231.035 73.2592 231.141 73.2884 231.241C73.3176 231.342 73.3683 231.435 73.4371 231.514C73.5059 231.594 73.5911 231.657 73.6868 231.7C73.7825 231.743 73.8863 231.764 73.9912 231.763C75.8344 231.731 76.724 231.622 79.0472 231.622C80.4744 231.622 83.4248 231.776 85.4024 231.776C87.38 231.776 87.5528 229.856 86.74 229.645C83.0856 228.851 81.6776 227.757 80.4808 226.72C80.2672 226.531 79.9918 226.426 79.7064 226.426Z" fill="#263238"/>
<path d="M107.572 226.426H102.452C102.359 226.424 102.268 226.457 102.196 226.516C102.125 226.576 102.077 226.66 102.062 226.752L101.294 230.931C101.276 231.034 101.281 231.14 101.308 231.24C101.336 231.341 101.386 231.435 101.453 231.514C101.521 231.594 101.606 231.657 101.701 231.7C101.796 231.743 101.9 231.765 102.004 231.763C103.854 231.731 106.523 231.622 108.852 231.622C111.579 231.622 113.934 231.776 117.127 231.776C119.047 231.776 119.514 229.856 118.702 229.645C114.99 228.838 111.982 228.755 108.73 226.797C108.387 226.567 107.985 226.439 107.572 226.426Z" fill="#263238"/>
<path d="M82.3936 66.4961C78.0224 67.5073 73.4336 79.5201 73.4336 79.5201L82.5152 85.5873C84.6002 82.4259 86.428 79.1021 87.9808 75.6481C90.3808 70.1505 86.8544 65.4657 82.3936 66.4961Z" fill="#EA580C"/>
<path opacity="0.7" d="M82.3936 66.4961C78.0224 67.5073 73.4336 79.5201 73.4336 79.5201L82.5152 85.5873C84.6002 82.4259 86.428 79.1021 87.9808 75.6481C90.3808 70.1505 86.8544 65.4657 82.3936 66.4961Z" fill="black"/>
<path d="M85.8447 74.1569L82.0879 85.2993L82.5167 85.5873C82.5167 85.5873 84.2319 83.0273 86.0559 79.6161L85.8447 74.1569Z" fill="#EA580C"/>
<path opacity="0.8" d="M85.8447 74.1569L82.0879 85.2993L82.5167 85.5873C82.5167 85.5873 84.2319 83.0273 86.0559 79.6161L85.8447 74.1569Z" fill="black"/>
<path d="M111.726 87.5008C111.687 92.7488 111.374 99.2768 110.593 107.379H85.4409C85.1145 103.539 86.8169 84.6848 82.3945 66.496C85.1609 65.9598 87.9594 65.6049 90.7721 65.4336C94.3318 65.2287 97.9004 65.2287 101.46 65.4336C103.915 65.6723 106.348 66.1002 108.737 66.7136C108.737 66.7136 110.887 69.0432 111.54 79.968C111.668 82.1504 111.739 84.6336 111.726 87.5008Z" fill="#EA580C"/>
<path opacity="0.7" d="M111.726 87.5008C111.687 92.7488 111.374 99.2768 110.593 107.379H85.4409C85.1145 103.539 86.8169 84.6848 82.3945 66.496C85.1609 65.9598 87.9594 65.6049 90.7721 65.4336C94.3318 65.2287 97.9004 65.2287 101.46 65.4336C103.915 65.6723 106.348 66.1002 108.737 66.7136C108.737 66.7136 110.887 69.0432 111.54 79.968C111.668 82.1504 111.739 84.6336 111.726 87.5008Z" fill="black"/>
<path d="M111.726 87.5008C110.203 84.7232 107.438 79.1488 107.828 75.9808L111.54 80C111.668 82.1504 111.739 84.6336 111.726 87.5008Z" fill="#EA580C"/>
<path opacity="0.8" d="M111.726 87.5008C110.203 84.7232 107.438 79.1488 107.828 75.9808L111.54 80C111.668 82.1504 111.739 84.6336 111.726 87.5008Z" fill="black"/>
<path d="M103.808 70.9888C103.411 75.4688 113.568 86.2464 113.568 86.2464L121.709 79.616C119.577 76.0179 117.022 72.6876 114.099 69.696C109.338 65.0944 104.256 65.9712 103.808 70.9888Z" fill="#EA580C"/>
<path opacity="0.7" d="M103.808 70.9888C103.411 75.4688 113.568 86.2464 113.568 86.2464L121.709 79.616C119.577 76.0179 117.022 72.6876 114.099 69.696C109.338 65.0944 104.256 65.9712 103.808 70.9888Z" fill="black"/>
<path d="M107.669 216.09L107.643 221.696H102.945L102.965 216.09H107.669Z" fill="#CE6F64"/>
<path d="M76.6337 216.09H81.3377L80.3329 221.696H75.6289L76.6337 216.09Z" fill="#CE6F64"/>
<path d="M92.8002 48.096C92.1154 52.7296 91.4818 55.392 93.261 58.336C93.8266 59.2894 94.6423 60.0698 95.6198 60.5927C96.5972 61.1156 97.6991 61.361 98.8061 61.3024C99.9131 61.2437 100.983 60.8831 101.9 60.2598C102.816 59.6366 103.545 58.7743 104.007 57.7664C105.843 53.9264 106.663 46.9888 102.624 44.0576C101.772 43.3996 100.762 42.9776 99.6947 42.8341C98.6277 42.6905 97.5417 42.8304 96.5459 43.2397C95.5502 43.6491 94.6798 44.3134 94.0222 45.1659C93.3647 46.0183 92.9432 47.0289 92.8002 48.096Z" fill="#E4897B"/>
<path d="M106.721 45.9008C105.336 46.6573 103.812 47.1254 102.241 47.2768C101.07 52.6336 97.9527 58.7969 92.9095 57.024C90.9895 56.3841 89.0695 51.7312 88.8711 47.6033C88.5383 48.0065 88.3143 48.5312 88.1415 48.7488C87.8537 46.9143 88.0614 45.0362 88.7431 43.3088C90.1383 39.3536 91.0663 41.9776 92.5831 39.5776C93.5623 37.9904 95.3031 37.1712 98.3431 37.0688C97.4919 37.5104 97.3319 38.2208 98.5927 38.1184C99.8535 38.016 105.236 37.7216 108.372 39.84C106.254 40.32 107.546 43.68 110.375 41.888C109.345 43.5584 108.065 45.1456 106.721 45.9008Z" fill="#263238"/>
<path d="M98.6192 50.9633C98.6371 52.1416 99.0318 53.2832 99.7456 54.2209C100.699 55.4497 101.794 54.8609 102.056 53.4785C102.286 52.2497 102.056 50.1249 100.866 49.3825C99.6752 48.6401 98.6128 49.5553 98.6192 50.9633Z" fill="#E4897B"/>
<path d="M92.8837 40.0769C92.245 40.0364 91.6259 39.8402 91.0804 39.5056C90.5349 39.1709 90.0796 38.7079 89.7541 38.1569C89.7541 38.1569 89.6709 41.9073 92.8837 40.0769Z" fill="#1E2A4C"/>
<path d="M101.664 107.379C101.664 107.379 97.7219 143.309 95.3091 156.768C92.6723 171.488 82.5091 220.614 82.5091 220.614H73.8691C73.8691 220.614 80.0003 172.698 81.2803 158.08C82.6563 142.24 85.4659 107.354 85.4659 107.354L101.664 107.379Z" fill="#EA580C"/>
<path opacity="0.6" d="M101.664 107.379C101.664 107.379 97.7219 143.309 95.3091 156.768C92.6723 171.488 82.5091 220.614 82.5091 220.614H73.8691C73.8691 220.614 80.0003 172.698 81.2803 158.08C82.6563 142.24 85.4659 107.354 85.4659 107.354L101.664 107.379Z" fill="#FAFAFA"/>
<path d="M83.7319 217.44C83.7703 217.44 82.9703 220.749 82.9703 220.749H73.2871L73.3511 217.798L83.7319 217.44Z" fill="#EA580C"/>
<path opacity="0.1" d="M83.7319 217.44C83.7703 217.44 82.9703 220.749 82.9703 220.749H73.2871L73.3511 217.798L83.7319 217.44Z" fill="#FAFAFA"/>
<path d="M98.7908 120.179C92.666 121.389 94.2084 144.397 95.4052 156.23C96.8644 147.866 98.8484 131.77 100.186 120.346C99.7529 120.135 99.2613 120.076 98.7908 120.179Z" fill="#EA580C"/>
<path opacity="0.4" d="M98.7908 120.179C92.666 121.389 94.2084 144.397 95.4052 156.23C96.8644 147.866 98.8484 131.77 100.186 120.346C99.7529 120.135 99.2613 120.076 98.7908 120.179Z" fill="#FAFAFA"/>
<path d="M110.586 107.379C110.586 107.379 112.595 142.528 112.634 156.87C112.679 171.782 109.357 220.614 109.357 220.614H101.389C101.389 220.614 99.2451 172.653 98.3235 158.01C97.3251 142.042 94.0547 107.379 94.0547 107.379H110.586Z" fill="#EA580C"/>
<path opacity="0.6" d="M110.586 107.379C110.586 107.379 112.595 142.528 112.634 156.87C112.679 171.782 109.357 220.614 109.357 220.614H101.389C101.389 220.614 99.2451 172.653 98.3235 158.01C97.3251 142.042 94.0547 107.379 94.0547 107.379H110.586Z" fill="#FAFAFA"/>
<path d="M112.512 102.861L110.278 103.04C110.096 103.055 109.92 103.111 109.762 103.203C109.605 103.295 109.469 103.421 109.366 103.572C109.263 103.722 109.195 103.894 109.167 104.075C109.139 104.255 109.151 104.439 109.203 104.614L110.125 107.718C110.203 107.971 110.34 108.2 110.526 108.388C110.711 108.576 110.94 108.716 111.191 108.796C111.442 108.876 111.71 108.895 111.97 108.85C112.23 108.805 112.475 108.698 112.685 108.538C113.839 107.464 114.666 106.086 115.072 104.563L112.512 102.861Z" fill="#E4897B"/>
<path d="M107.469 214.893C107.448 214.89 107.428 214.879 107.414 214.863C107.4 214.846 107.392 214.825 107.393 214.803C108.276 201.293 110.324 168.595 110.285 156.87C110.285 144.87 108.826 118.029 108.365 110.086C108.364 110.076 108.366 110.065 108.369 110.055C108.373 110.045 108.378 110.036 108.385 110.028C108.393 110.02 108.401 110.014 108.411 110.01C108.421 110.005 108.432 110.003 108.442 110.003C108.463 110.003 108.483 110.011 108.499 110.025C108.514 110.04 108.524 110.059 108.525 110.08C108.961 118.022 110.388 144.864 110.445 156.87C110.484 168.602 108.436 201.299 107.553 214.816C107.553 214.827 107.55 214.837 107.546 214.847C107.542 214.857 107.536 214.866 107.528 214.873C107.52 214.88 107.511 214.886 107.501 214.889C107.491 214.892 107.48 214.894 107.469 214.893Z" fill="#EA580C"/>
<path opacity="0.3" d="M107.469 214.893C107.448 214.89 107.428 214.879 107.414 214.863C107.4 214.846 107.392 214.825 107.393 214.803C108.276 201.293 110.324 168.595 110.285 156.87C110.285 144.87 108.826 118.029 108.365 110.086C108.364 110.076 108.366 110.065 108.369 110.055C108.373 110.045 108.378 110.036 108.385 110.028C108.393 110.02 108.401 110.014 108.411 110.01C108.421 110.005 108.432 110.003 108.442 110.003C108.463 110.003 108.483 110.011 108.499 110.025C108.514 110.04 108.524 110.059 108.525 110.08C108.961 118.022 110.388 144.864 110.445 156.87C110.484 168.602 108.436 201.299 107.553 214.816C107.553 214.827 107.55 214.837 107.546 214.847C107.542 214.857 107.536 214.866 107.528 214.873C107.52 214.88 107.511 214.886 107.501 214.889C107.491 214.892 107.48 214.894 107.469 214.893Z" fill="#FAFAFA"/>
<path d="M110.766 217.44C110.805 217.44 110.446 220.749 110.446 220.749H100.757L100.379 217.798L110.766 217.44Z" fill="#EA580C"/>
<path opacity="0.1" d="M110.766 217.44C110.805 217.44 110.446 220.749 110.446 220.749H100.757L100.379 217.798L110.766 217.44Z" fill="#FAFAFA"/>
</svg>
